ply
format ascii 1.0
element vertex 8
property float x
property float y
property float z
property uchar red
property uchar green
property uchar blue
element face 6 
property list uchar int vertex_index
end_header
-0.57735 -0.57735  0.57735   0
255
  0
-0.57735  0.57735  0.57735   0
255
  0
0.57735 0.57735 0.57735   0
255
  0
 0.57735 -0.57735  0.57735   0
255
  0
-0.57735 -0.57735 -0.57735   0
255
  0
-0.57735  0.57735 -0.57735   0
255
  0
 0.57735  0.57735 -0.57735   0
255
  0
 0.57735 -0.57735 -0.57735   0
255
  0
3 0 1 3
3 4 7 5
3 0 4 1
3 0 3 4
3 3 2 7
3 1 5 2
