ply
format ascii 1.0
element vertex 6
property double x
property double y
property double z
property uchar red
property uchar green
property uchar blue
end_header
1.5640693802802326 -0.0165003788712795 0.9210023114259285 0 255 0
1.5919358384018836 -0.0077519099210946 2.7219411256900909 0 255 0
0.0059823419311784 -0.0196687087509474 3.6136220003071222 0 255 0
-1.5944774014297831 -0.0095773858125428 2.7185266030613562 0 255 0
-1.5758264298411553 -0.0091227583671051 0.8997082986285612 0 255 0
0.0000000000000000 0.0000000000000000 0.0000000000000000 0 255 0
