ply
format ascii 1.0
comment NViewDataSet export
comment It shows 3D point structure and cameras+ camera looking direction
element vertex 15
property float x
property float y
property float z
property uchar red
property uchar green
property uchar blue
end_header
0.408225 -0.12674 0.339719 255 255 255
 0.358128  0.493977 -0.362938 255 255 255
-0.197733  0.321876  -0.26667 255 255 255
 0.0647639 -0.0271235   0.154645 255 255 255
-0.162259 0.0160811  0.542676 255 255 255
0 0 5 0 255 0
6.57164       0 7.13525 0 255 0
 10.6331        0 -9.63525 0 255 0
-10.6331        0 -9.63525 0 255 0
-6.57164       -0  7.13525 0 255 0
  0   0 4.6 255 0 0
6.30066       0 6.84103 255 0 0
 10.3367        0 -9.36666 255 0 0
-10.3367        0 -9.36666 255 0 0
-6.30066        0  6.84103 255 0 0
