ply
format ascii 1.0
comment NViewDataSet export
comment It shows 3D point structure and cameras+ camera looking direction
element vertex 22
property float x
property float y
property float z
property uchar red
property uchar green
property uchar blue
end_header
0.408225 -0.12674 0.339719 255 255 255
 0.358128  0.493977 -0.362938 255 255 255
-0.197733  0.321876  -0.26667 255 255 255
 0.0647639 -0.0271235   0.154645 255 255 255
-0.162259 0.0160811  0.542676 255 255 255
0.499434 0.162854 0.260756 255 255 255
-0.430077  0.128363 -0.580439 255 255 255
-0.308536 -0.435322  0.365012 255 255 255
-0.411985 -0.118867 -0.444251 255 255 255
-0.469429  0.598709 -0.338092 255 255 255
0 0 5 0 255 0
4.33013       0     2.5 0 255 0
4.33013       0    -2.5 0 255 0
6.12323e-16           0          -5 0 255 0
-4.33013       -0     -2.5 0 255 0
-4.33013       -0      2.5 0 255 0
  0   0 4.6 255 0 0
3.98372       0     2.3 255 0 0
3.98372       0    -2.3 255 0 0
5.63338e-16           0        -4.6 255 0 0
-3.98372        0     -2.3 255 0 0
-3.98372        0      2.3 255 0 0
