ply
format ascii 1.0
comment NViewDataSet export
comment It shows 3D point structure and cameras+ camera looking direction
element vertex 22
property float x
property float y
property float z
property uchar red
property uchar green
property uchar blue
end_header
 0.408221 -0.126745  0.339721 255 255 255
 0.358123  0.493981 -0.362941 255 255 255
-0.197728   0.32188 -0.266673 255 255 255
 0.0647593 -0.0271281   0.154648 255 255 255
-0.162254 0.0160853  0.542678 255 255 255
0.499429 0.162858 0.260758 255 255 255
-0.430072  0.128367 -0.580442 255 255 255
-0.308531 -0.435326  0.365015 255 255 255
-0.411981 -0.118871 -0.444254 255 255 255
-0.469425  0.598714 -0.338094 255 255 255
0 0 5 0 255 0
4.33013       0     2.5 0 255 0
4.33013       0    -2.5 0 255 0
6.12323e-16           0          -5 0 255 0
-4.33013       -0     -2.5 0 255 0
-4.33013       -0      2.5 0 255 0
  0   0 4.6 255 0 0
3.98372       0     2.3 255 0 0
3.98372       0    -2.3 255 0 0
5.63338e-16           0        -4.6 255 0 0
-3.98372        0     -2.3 255 0 0
-3.98372        0      2.3 255 0 0
