ply
format ascii 1.0
comment NViewDataSet export
comment It shows 3D point structure and cameras+ camera looking direction
element vertex 30
property float x
property float y
property float z
property uchar red
property uchar green
property uchar blue
end_header
-0.335632  0.425573 -0.114658 255 255 255
0.0434655  0.467396 -0.040318 255 255 255
-0.0940467     0.4546   0.257996 255 255 255
0.593363 0.420345  0.10147 255 255 255
-0.487606 -0.533248  0.071244 255 255 255
  0.40165 -0.243715 -0.446237 255 255 255
0 0 5 0 255 0
0.669873        0  6.16025 0 255 0
4.33013       0     7.5 0 255 0
10  0  5 0 255 0
12.9904       0    -2.5 0 255 0
 9.33013        0 -11.1603 0 255 0
2.44929e-15           0         -15 0 255 0
-9.33013       -0 -11.1603 0 255 0
-12.9904       -0     -2.5 0 255 0
-10   0   5 0 255 0
-4.33013        0      7.5 0 255 0
-0.669873         0   6.16025 0 255 0
  0   0 4.6 255 0 0
0.626631        0   5.7626 255 0 0
4.13013       0 7.15359 255 0 0
9.64223       0 4.82111 255 0 0
 12.5976        0 -2.42441 255 0 0
 9.07357        0 -10.8534 255 0 0
2.38398e-15           0       -14.6 255 0 0
-9.07357        0 -10.8534 255 0 0
-12.5976        0 -2.42441 255 0 0
-9.64223        0  4.82111 255 0 0
-4.13013        0  7.15359 255 0 0
-0.626631         0    5.7626 255 0 0
