ply
format ascii 1.0
element vertex 38
property double x
property double y
property double z
property uchar red
property uchar green
property uchar blue
end_header
-0.8675160738712403 -0.0018801295793147 0.5000959442697759 0 255 0
0.0009934234097154 0.0005817239828257 0.0005970767121552 0 255 0
0.8665607300008862 -0.0019944609065964 0.5033530524587275 0 255 0
0.8633007112597666 -0.0063719885179371 1.5044223380102171 0 255 0
-0.0047357894549325 -0.0086190983975231 2.0016646432732847 0 255 0
-0.8693958997042870 -0.0071088373500911 1.4996152146563475 0 255 0
-0.2669527402476680 0.3260109732101889 1.0553799469473977 255 255 255
0.2691326260286380 -0.2590547832168473 0.9315860734038396 255 255 255
-0.4665164001503611 -0.3999276266041839 0.8715640443512577 255 255 255
-0.0610056551868506 -0.3621821772613871 1.4923531000598984 255 255 255
0.1411491449382066 0.3099511644541008 0.6477582985202663 255 255 255
-0.5277781343952953 -0.2771818251720941 0.8886568176187691 255 255 255
-0.0519421823184706 0.0524266756184532 1.3260995372153614 255 255 255
-0.1463798052290506 -0.2386953123702815 0.6873494381314244 255 255 255
0.1458408531692736 0.0144069347365451 0.5799494254930211 255 255 255
0.3367245060714082 0.2049257410899815 0.9374459333202206 255 255 255
-0.2343038439691294 0.1182552147851270 1.3487395194176104 255 255 255
-0.3378341533435502 -0.2111909561775297 0.8950394340165957 255 255 255
-0.1655858289202531 -0.1823616025415974 0.8071934162302021 255 255 255
-0.3172837764325401 -0.2687998597228821 1.1039949419499970 255 255 255
-0.1567926127249157 -0.3017653821572898 0.7229945642975051 255 255 255
-0.2004659634831655 0.3819927191662811 1.3570437995705138 255 255 255
-0.1011778982512527 -0.0983405667775126 1.2292725883329516 255 255 255
0.1313911013722402 -0.1680935365794690 0.8018074213311686 255 255 255
0.2728318280540006 -0.2080544044318519 0.9198894519372830 255 255 255
-0.1133728721385918 -0.3045857152475143 1.2774834830217896 255 255 255
0.1597609813285575 0.1938980134282695 0.5991017965157145 255 255 255
0.1621666332382248 -0.3634583999707439 1.3200723694008960 255 255 255
-0.1130401734674694 0.0380796784983599 0.9367092100496692 255 255 255
0.2574448550560278 0.1470942685179589 0.8095724674835073 255 255 255
0.1468449944629472 0.2024971447795167 0.9468658925162182 255 255 255
-0.0676505182307694 0.0552068012658899 1.4927183031347346 255 255 255
0.4205230437571268 0.0988633558556942 0.9897082193098543 255 255 255
-0.1981916635483532 0.2609779940296922 1.3452752510912489 255 255 255
-0.1851535209197989 0.2589058290605041 1.4542450471483601 255 255 255
-0.2408225988402585 0.3175445862153448 1.3658439587021269 255 255 255
0.2975137772546032 -0.0069867638021703 0.9836660052948265 255 255 255
0.4234226727521143 0.3079581298325334 1.0641956001037007 255 255 255
