ply
format ascii 1.0
element vertex 34
property double x
property double y
property double z
property uchar red
property uchar green
property uchar blue
end_header
-0.8670653538197670 -0.0014109562583900 0.4981924140408402 0 255 0
0.0000000000000000 0.0000000000000000 0.0000000000000000 0 255 0
0.4248542885843579 0.3089482499882247 1.0664784061307311 255 255 255
0.2983180069256787 -0.0069744925160359 0.9851991725688856 255 255 255
-0.2408779078832616 0.3181839461336113 1.3677720669431184 255 255 255
-0.1850620038078327 0.2596129933137802 1.4567805576301103 255 255 255
-0.1981573569771476 0.2613561485040419 1.3471635213809694 255 255 255
0.4218924242075033 0.0990717403378961 0.9917449239611613 255 255 255
-0.0672146831270329 0.0552821184241219 1.4957196822363408 255 255 255
0.1470938985559793 0.2027544908498883 0.9478683006046201 255 255 255
0.2578925355010495 0.1474624240880692 0.8106280665614929 255 255 255
-0.1131305813998666 0.0380665640794838 0.9369383083229272 255 255 255
0.1630582255317266 -0.3643069026404962 1.3224695171748906 255 255 255
0.1597485093560335 0.1940703592477310 0.5997301606331863 255 255 255
-0.1131010368618320 -0.3052269982621363 1.2790595900793906 255 255 255
0.2735216187544619 -0.2083035730162913 0.9211051899241667 255 255 255
0.1315350085518326 -0.1682565005418774 0.8023442487057117 255 255 255
-0.1009703764451697 -0.0984624399526062 1.2306302891747634 255 255 255
-0.2004992960948673 0.3828284774837689 1.3589163300595053 255 255 255
-0.1568439992110927 -0.3017853114637985 0.7226260055894272 255 255 255
-0.3172184413735741 -0.2691601371020537 1.1045220447656070 255 255 255
-0.1656574210605676 -0.1824356944427820 0.8069712771327985 255 255 255
-0.3377441433930336 -0.2113295209937290 0.8947570546398005 255 255 255
-0.2342911065654592 0.1188533775823294 1.3505313791789946 255 255 255
0.3376700665712236 0.2051466893274569 0.9390958431303513 255 255 255
0.1457849688889639 0.0142046242978201 0.5804699170284729 255 255 255
-0.1464977411928708 -0.2386961210827432 0.6869903663731205 255 255 255
-0.0516225461965767 0.0523707721284517 1.3280724265725261 255 255 255
-0.5275425737630227 -0.2776281206181885 0.8882720528930991 255 255 255
0.1411027256986220 0.3102768257851488 0.6483482591293511 255 255 255
-0.0604607454861710 -0.3631302693204355 1.4954083580222246 255 255 255
-0.4662976870036726 -0.4001600105690779 0.8712428030858648 255 255 255
0.2698307061379708 -0.2594159576717112 0.9327929985656520 255 255 255
-0.2671425004490951 0.3262360410843782 1.0557579286101886 255 255 255
