<?xml version="1.0" standalone="yes"?>
<!-- SVG graphic -->
<svg xmlns='http://www.w3.org/2000/svg' xmlns:xlink='http://www.w3.org/1999/xlink'
width="100px" height="100px" preserveAspectRatio="xMinYMin meet" viewBox="0 0 100 100" version="1.1">
<circle cx="-0.169968" cy="78.0001" r="1" fill="red"/>
<circle cx="0" cy="49.0926" r="1" fill="green"/>
<circle cx="0" cy="49.3528" r="1" fill="green"/>
<circle cx="0" cy="49.659" r="1" fill="green"/>
<circle cx="0" cy="50.7566" r="1" fill="green"/>
<circle cx="1.20238" cy="2.74601" r="1" fill="red"/>
<circle cx="2" cy="50.3677" r="1" fill="green"/>
<circle cx="2" cy="51.451" r="1" fill="green"/>
<circle cx="3" cy="49.0959" r="1" fill="red"/>
<circle cx="3.48261" cy="22.1878" r="1" fill="red"/>
<circle cx="4" cy="51.8759" r="1" fill="green"/>
<circle cx="4" cy="52.4951" r="1" fill="green"/>
<circle cx="4.10479" cy="51.2004" r="1" fill="green"/>
<circle cx="4.43063" cy="49.6987" r="1" fill="red"/>
<circle cx="5" cy="51.2894" r="1" fill="green"/>
<circle cx="5" cy="52.1521" r="1" fill="green"/>
<circle cx="5.86108" cy="15.1609" r="1" fill="red"/>
<circle cx="6" cy="52.3681" r="1" fill="green"/>
<circle cx="6.15774" cy="10.0591" r="1" fill="red"/>
<circle cx="6.986" cy="58.9263" r="1" fill="red"/>
<circle cx="7" cy="51.413" r="1" fill="green"/>
<circle cx="7" cy="53.2269" r="1" fill="green"/>
<circle cx="8.78051" cy="38.9529" r="1" fill="red"/>
<circle cx="8.91459" cy="53.2228" r="1" fill="green"/>
<circle cx="9" cy="53.11" r="1" fill="green"/>
<circle cx="9.42363" cy="87.1415" r="1" fill="red"/>
<circle cx="10" cy="51.4198" r="1" fill="red"/>
<circle cx="10" cy="52.9637" r="1" fill="green"/>
<circle cx="10.8609" cy="41.7957" r="1" fill="red"/>
<circle cx="11" cy="53.5667" r="1" fill="green"/>
<circle cx="11" cy="53.8404" r="1" fill="green"/>
<circle cx="12" cy="53.6296" r="1" fill="green"/>
<circle cx="12.9587" cy="57.0667" r="1" fill="red"/>
<circle cx="13" cy="54.5668" r="1" fill="green"/>
<circle cx="14" cy="52.7034" r="1" fill="red"/>
<circle cx="14" cy="54.0432" r="1" fill="green"/>
<circle cx="14" cy="54.2073" r="1" fill="green"/>
<circle cx="14" cy="54.5903" r="1" fill="green"/>
<circle cx="14" cy="54.9026" r="1" fill="green"/>
<circle cx="15" cy="53.7773" r="1" fill="green"/>
<circle cx="15" cy="54.9642" r="1" fill="green"/>
<circle cx="16" cy="54.126" r="1" fill="green"/>
<circle cx="16" cy="55.5467" r="1" fill="green"/>
<circle cx="16.0669" cy="24.0084" r="1" fill="red"/>
<circle cx="17" cy="53.7141" r="1" fill="red"/>
<circle cx="17" cy="53.9934" r="1" fill="red"/>
<circle cx="17" cy="54.3931" r="1" fill="green"/>
<circle cx="17" cy="54.4258" r="1" fill="green"/>
<circle cx="17" cy="54.7601" r="1" fill="green"/>
<circle cx="17" cy="54.8879" r="1" fill="green"/>
<circle cx="18" cy="55.6593" r="1" fill="green"/>
<circle cx="18" cy="56.0504" r="1" fill="green"/>
<circle cx="18" cy="56.9033" r="1" fill="green"/>
<circle cx="18" cy="57.1695" r="1" fill="red"/>
<circle cx="19" cy="56.3796" r="1" fill="green"/>
<circle cx="20" cy="55.9746" r="1" fill="green"/>
<circle cx="20.1084" cy="32.8123" r="1" fill="red"/>
<circle cx="20.8858" cy="57.3983" r="1" fill="green"/>
<circle cx="21" cy="55.6545" r="1" fill="green"/>
<circle cx="21" cy="55.9147" r="1" fill="green"/>
<circle cx="22" cy="56.1125" r="1" fill="green"/>
<circle cx="22.9611" cy="23.8411" r="1" fill="red"/>
<circle cx="23" cy="57.1075" r="1" fill="green"/>
<circle cx="24" cy="56.555" r="1" fill="green"/>
<circle cx="25" cy="57.1383" r="1" fill="green"/>
<circle cx="25" cy="58.1781" r="1" fill="green"/>
<circle cx="25" cy="58.8168" r="1" fill="green"/>
<circle cx="26" cy="57.8048" r="1" fill="green"/>
<circle cx="26" cy="58.3875" r="1" fill="green"/>
<circle cx="26.1765" cy="66.425" r="1" fill="red"/>
<circle cx="27" cy="57.7706" r="1" fill="green"/>
<circle cx="27" cy="57.9007" r="1" fill="green"/>
<circle cx="28" cy="58.7106" r="1" fill="green"/>
<circle cx="28" cy="60.1384" r="1" fill="red"/>
<circle cx="28.0891" cy="5.74128" r="1" fill="red"/>
<circle cx="29" cy="58.3396" r="1" fill="green"/>
<circle cx="29" cy="58.9989" r="1" fill="green"/>
<circle cx="29" cy="59.0178" r="1" fill="green"/>
<circle cx="29" cy="59.8608" r="1" fill="green"/>
<circle cx="30" cy="58.3439" r="1" fill="green"/>
<circle cx="30" cy="58.575" r="1" fill="green"/>
<circle cx="30" cy="59.2366" r="1" fill="green"/>
<circle cx="31" cy="58.497" r="1" fill="green"/>
<circle cx="31" cy="58.9844" r="1" fill="green"/>
<circle cx="31" cy="59.0492" r="1" fill="green"/>
<circle cx="31.9814" cy="4.06978" r="1" fill="red"/>
<circle cx="32" cy="58.9418" r="1" fill="green"/>
<circle cx="32" cy="60.1404" r="1" fill="green"/>
<circle cx="32.1432" cy="95.7471" r="1" fill="red"/>
<circle cx="32.2523" cy="22.0819" r="1" fill="red"/>
<circle cx="33" cy="59.5438" r="1" fill="green"/>
<circle cx="33.6709" cy="97.9066" r="1" fill="red"/>
<circle cx="33.7402" cy="80.8202" r="1" fill="red"/>
<circle cx="34" cy="59.7211" r="1" fill="green"/>
<circle cx="34" cy="60.3146" r="1" fill="green"/>
<circle cx="34" cy="60.3687" r="1" fill="green"/>
<circle cx="34.2211" cy="40.2781" r="1" fill="red"/>
<circle cx="35" cy="59.4514" r="1" fill="green"/>
<circle cx="35" cy="60.2123" r="1" fill="green"/>
<circle cx="35" cy="61.6041" r="1" fill="green"/>
<circle cx="36" cy="60.0472" r="1" fill="green"/>
<circle cx="36" cy="60.8223" r="1" fill="green"/>
<circle cx="36.0997" cy="54.8376" r="1" fill="red"/>
<circle cx="37" cy="60.8508" r="1" fill="green"/>
<circle cx="37" cy="61.4459" r="1" fill="green"/>
<circle cx="37.8659" cy="88.8433" r="1" fill="red"/>
<circle cx="38" cy="60.9679" r="1" fill="green"/>
<circle cx="38" cy="62.237" r="1" fill="green"/>
<circle cx="38" cy="62.674" r="1" fill="green"/>
<circle cx="39" cy="61.6143" r="1" fill="green"/>
<circle cx="40" cy="62.9424" r="1" fill="green"/>
<circle cx="40.1295" cy="77.9296" r="1" fill="red"/>
<circle cx="40.8924" cy="48.1629" r="1" fill="red"/>
<circle cx="41" cy="61.9504" r="1" fill="green"/>
<circle cx="41" cy="62.2438" r="1" fill="green"/>
<circle cx="42" cy="63.1115" r="1" fill="green"/>
<circle cx="43" cy="62.8984" r="1" fill="green"/>
<circle cx="43" cy="64.1482" r="1" fill="green"/>
<circle cx="43" cy="64.2807" r="1" fill="green"/>
<circle cx="44" cy="62.3591" r="1" fill="green"/>
<circle cx="44" cy="62.8896" r="1" fill="green"/>
<circle cx="44" cy="63.9764" r="1" fill="green"/>
<circle cx="45" cy="62.4359" r="1" fill="green"/>
<circle cx="46" cy="62.6756" r="1" fill="green"/>
<circle cx="46" cy="64.9123" r="1" fill="green"/>
<circle cx="46.7894" cy="23.3553" r="1" fill="red"/>
<circle cx="46.9638" cy="23.9253" r="1" fill="red"/>
<circle cx="47" cy="63.4369" r="1" fill="green"/>
<circle cx="47" cy="63.6362" r="1" fill="green"/>
<circle cx="47" cy="63.6461" r="1" fill="green"/>
<circle cx="47" cy="63.9333" r="1" fill="green"/>
<circle cx="49" cy="63.5984" r="1" fill="green"/>
<circle cx="49" cy="64.4532" r="1" fill="green"/>
<circle cx="49" cy="65.0611" r="1" fill="green"/>
<circle cx="49" cy="65.8203" r="1" fill="green"/>
<circle cx="49.0244" cy="19.8013" r="1" fill="red"/>
<circle cx="50.0488" cy="79.1121" r="1" fill="red"/>
<circle cx="50.0637" cy="31.0518" r="1" fill="red"/>
<circle cx="50.1806" cy="29.9741" r="1" fill="red"/>
<circle cx="51" cy="64.8014" r="1" fill="green"/>
<circle cx="51" cy="65.2939" r="1" fill="green"/>
<circle cx="51.9624" cy="71.1327" r="1" fill="red"/>
<circle cx="52" cy="65.4943" r="1" fill="green"/>
<circle cx="52.8096" cy="33.2145" r="1" fill="red"/>
<circle cx="53" cy="65.2969" r="1" fill="green"/>
<circle cx="53" cy="65.6728" r="1" fill="green"/>
<circle cx="53.8256" cy="35.1564" r="1" fill="red"/>
<circle cx="54.08" cy="43.2532" r="1" fill="red"/>
<circle cx="54.276" cy="77.1056" r="1" fill="red"/>
<circle cx="55" cy="65.8974" r="1" fill="green"/>
<circle cx="55" cy="66.0141" r="1" fill="green"/>
<circle cx="55" cy="66.5602" r="1" fill="green"/>
<circle cx="56" cy="65.6485" r="1" fill="green"/>
<circle cx="56" cy="66.1956" r="1" fill="green"/>
<circle cx="56.9616" cy="7.65914" r="1" fill="red"/>
<circle cx="57" cy="66.6724" r="1" fill="green"/>
<circle cx="57" cy="67.7167" r="1" fill="green"/>
<circle cx="57" cy="68.316" r="1" fill="green"/>
<circle cx="57" cy="68.7355" r="1" fill="red"/>
<circle cx="58" cy="66.6114" r="1" fill="green"/>
<circle cx="59" cy="61.9586" r="1" fill="red"/>
<circle cx="59" cy="68.0923" r="1" fill="green"/>
<circle cx="59.1335" cy="21.749" r="1" fill="red"/>
<circle cx="60" cy="66.4992" r="1" fill="red"/>
<circle cx="60" cy="67.4872" r="1" fill="green"/>
<circle cx="60" cy="68.7031" r="1" fill="green"/>
<circle cx="61" cy="67.3428" r="1" fill="green"/>
<circle cx="61" cy="67.8467" r="1" fill="green"/>
<circle cx="61" cy="68.049" r="1" fill="green"/>
<circle cx="61.9441" cy="96.6059" r="1" fill="red"/>
<circle cx="62" cy="68.1079" r="1" fill="green"/>
<circle cx="62" cy="69.4119" r="1" fill="green"/>
<circle cx="62.1664" cy="82.7821" r="1" fill="red"/>
<circle cx="63" cy="68.3609" r="1" fill="green"/>
<circle cx="63" cy="68.3797" r="1" fill="green"/>
<circle cx="63" cy="69.1854" r="1" fill="green"/>
<circle cx="63.2318" cy="46.9676" r="1" fill="red"/>
<circle cx="63.3195" cy="76.9383" r="1" fill="red"/>
<circle cx="64" cy="69.1045" r="1" fill="green"/>
<circle cx="64.9406" cy="59.9071" r="1" fill="red"/>
<circle cx="65.2029" cy="46.8938" r="1" fill="red"/>
<circle cx="66" cy="70.7158" r="1" fill="green"/>
<circle cx="67" cy="69.4821" r="1" fill="green"/>
<circle cx="67" cy="71.1099" r="1" fill="green"/>
<circle cx="67.147" cy="26.0044" r="1" fill="red"/>
<circle cx="67.9762" cy="3.17654" r="1" fill="red"/>
<circle cx="68" cy="70.2539" r="1" fill="green"/>
<circle cx="68.8951" cy="17.709" r="1" fill="red"/>
<circle cx="69" cy="70.4331" r="1" fill="green"/>
<circle cx="69" cy="71.6415" r="1" fill="green"/>
<circle cx="69.8214" cy="17.9885" r="1" fill="red"/>
<circle cx="69.9378" cy="84.231" r="1" fill="red"/>
<circle cx="70" cy="70.5515" r="1" fill="green"/>
<circle cx="70" cy="70.876" r="1" fill="green"/>
<circle cx="70" cy="71.1963" r="1" fill="green"/>
<circle cx="70" cy="71.6448" r="1" fill="green"/>
<circle cx="71" cy="70.6616" r="1" fill="green"/>
<circle cx="71.3285" cy="75.9443" r="1" fill="red"/>
<circle cx="71.7621" cy="27.2718" r="1" fill="red"/>
<circle cx="72.0219" cy="21.8181" r="1" fill="red"/>
<circle cx="73" cy="70.349" r="1" fill="red"/>
<circle cx="73" cy="71.694" r="1" fill="green"/>
<circle cx="73" cy="71.8669" r="1" fill="green"/>
<circle cx="73.2752" cy="14.1401" r="1" fill="red"/>
<circle cx="74" cy="71.3011" r="1" fill="green"/>
<circle cx="74" cy="71.6309" r="1" fill="green"/>
<circle cx="74" cy="71.892" r="1" fill="green"/>
<circle cx="75" cy="72.7701" r="1" fill="green"/>
<circle cx="75" cy="73.0593" r="1" fill="green"/>
<circle cx="76" cy="73.5224" r="1" fill="green"/>
<circle cx="77" cy="72.6735" r="1" fill="green"/>
<circle cx="77" cy="72.7209" r="1" fill="green"/>
<circle cx="77" cy="73.3769" r="1" fill="green"/>
<circle cx="78" cy="72.5808" r="1" fill="green"/>
<circle cx="78" cy="72.7789" r="1" fill="green"/>
<circle cx="78.9691" cy="21.2382" r="1" fill="red"/>
<circle cx="79" cy="74.4865" r="1" fill="green"/>
<circle cx="79" cy="75.0859" r="1" fill="red"/>
<circle cx="80" cy="74.6952" r="1" fill="green"/>
<circle cx="80.8957" cy="74.8222" r="1" fill="green"/>
<circle cx="80.8997" cy="14.1321" r="1" fill="red"/>
<circle cx="81" cy="73.3175" r="1" fill="green"/>
<circle cx="81" cy="73.4972" r="1" fill="green"/>
<circle cx="81" cy="74.4067" r="1" fill="green"/>
<circle cx="81.0341" cy="2.99323" r="1" fill="red"/>
<circle cx="81.7351" cy="80.6719" r="1" fill="red"/>
<circle cx="82" cy="74.9822" r="1" fill="green"/>
<circle cx="82" cy="74.9886" r="1" fill="green"/>
<circle cx="82" cy="74.9889" r="1" fill="green"/>
<circle cx="82.117" cy="35.1369" r="1" fill="red"/>
<circle cx="82.6647" cy="72.012" r="1" fill="red"/>
<circle cx="83" cy="74.0288" r="1" fill="green"/>
<circle cx="83" cy="74.4081" r="1" fill="green"/>
<circle cx="83.253" cy="75.9952" r="1" fill="green"/>
<circle cx="84.3595" cy="7.89324" r="1" fill="red"/>
<circle cx="85" cy="75.3896" r="1" fill="green"/>
<circle cx="85.1641" cy="5.93475" r="1" fill="red"/>
<circle cx="86" cy="75.3479" r="1" fill="green"/>
<circle cx="86" cy="75.4256" r="1" fill="green"/>
<circle cx="86" cy="76.1092" r="1" fill="green"/>
<circle cx="86.8563" cy="15.5164" r="1" fill="red"/>
<circle cx="87.027" cy="30.8367" r="1" fill="red"/>
<circle cx="88" cy="74.9943" r="1" fill="red"/>
<circle cx="88" cy="76.5348" r="1" fill="green"/>
<circle cx="88" cy="76.7318" r="1" fill="green"/>
<circle cx="88.6991" cy="59.0072" r="1" fill="red"/>
<circle cx="89" cy="75.7323" r="1" fill="green"/>
<circle cx="89" cy="75.9669" r="1" fill="green"/>
<circle cx="89" cy="76.9376" r="1" fill="green"/>
<circle cx="89" cy="77.4908" r="1" fill="green"/>
<circle cx="89" cy="77.654" r="1" fill="green"/>
<circle cx="89.9002" cy="54.0878" r="1" fill="red"/>
<circle cx="90" cy="76.1372" r="1" fill="green"/>
<circle cx="90" cy="76.4083" r="1" fill="green"/>
<circle cx="90" cy="76.5202" r="1" fill="green"/>
<circle cx="90" cy="76.6526" r="1" fill="green"/>
<circle cx="90" cy="77.019" r="1" fill="green"/>
<circle cx="90" cy="77.6958" r="1" fill="green"/>
<circle cx="91" cy="75.408" r="1" fill="red"/>
<circle cx="91" cy="76.4556" r="1" fill="green"/>
<circle cx="91" cy="77.214" r="1" fill="green"/>
<circle cx="91.08" cy="76.0878" r="1" fill="green"/>
<circle cx="92" cy="78.0329" r="1" fill="green"/>
<circle cx="92.4139" cy="51.0942" r="1" fill="red"/>
<circle cx="93" cy="77.7333" r="1" fill="green"/>
<circle cx="93" cy="77.8891" r="1" fill="green"/>
<circle cx="93" cy="78.8361" r="1" fill="green"/>
<circle cx="94" cy="78.5891" r="1" fill="green"/>
<circle cx="94.2208" cy="80.9898" r="1" fill="red"/>
<circle cx="94.9727" cy="98.9538" r="1" fill="red"/>
<circle cx="95" cy="79.0803" r="1" fill="green"/>
<circle cx="95.0299" cy="39.1912" r="1" fill="red"/>
<circle cx="95.8824" cy="24.8203" r="1" fill="red"/>
<circle cx="95.9176" cy="81.2256" r="1" fill="red"/>
<circle cx="96.7081" cy="20.3121" r="1" fill="red"/>
<circle cx="97" cy="78.8535" r="1" fill="green"/>
<circle cx="97.3802" cy="31.8587" r="1" fill="red"/>
<circle cx="97.831" cy="30.1614" r="1" fill="red"/>
<circle cx="98" cy="79.3383" r="1" fill="green"/>
<circle cx="98.1067" cy="15.2221" r="1" fill="red"/>
<circle cx="98.2986" cy="85.9467" r="1" fill="red"/>
<circle cx="99" cy="79.7515" r="1" fill="green"/>
<polyline points="0,50.3012,100,79.9876" stroke="blue" stroke-width="0.5" fill="none"/>
</svg>