<?xml version="1.0" standalone="yes"?>
<!-- SVG graphic -->
<svg xmlns='http://www.w3.org/2000/svg' xmlns:xlink='http://www.w3.org/1999/xlink'
width="100px" height="100px" preserveAspectRatio="xMinYMin meet" viewBox="0 0 100 100" version="1.1">
<circle cx="0" cy="50" r="1" fill="red"/>
<circle cx="0.108407" cy="45.8123" r="1" fill="red"/>
<circle cx="1" cy="50.3" r="1" fill="red"/>
<circle cx="1.8997" cy="6.13211" r="1" fill="red"/>
<circle cx="2" cy="50.6" r="1" fill="red"/>
<circle cx="2.88242" cy="32.8203" r="1" fill="red"/>
<circle cx="2.90024" cy="33.0878" r="1" fill="red"/>
<circle cx="4" cy="51.2" r="1" fill="red"/>
<circle cx="4.0669" cy="13.0084" r="1" fill="red"/>
<circle cx="4.98141" cy="28.0698" r="1" fill="red"/>
<circle cx="5" cy="51.5" r="1" fill="red"/>
<circle cx="5.83096" cy="1.16144" r="1" fill="red"/>
<circle cx="6" cy="51.8" r="1" fill="red"/>
<circle cx="7" cy="52.1" r="1" fill="red"/>
<circle cx="8" cy="52.4" r="1" fill="red"/>
<circle cx="8.80958" cy="81.2145" r="1" fill="red"/>
<circle cx="9" cy="52.7" r="1" fill="red"/>
<circle cx="11" cy="53.3" r="1" fill="red"/>
<circle cx="12" cy="53.6" r="1" fill="red"/>
<circle cx="13" cy="53.9" r="1" fill="red"/>
<circle cx="13.0244" cy="67.8013" r="1" fill="red"/>
<circle cx="13.2318" cy="71.9676" r="1" fill="red"/>
<circle cx="13.9441" cy="20.6059" r="1" fill="red"/>
<circle cx="14" cy="54.2" r="1" fill="red"/>
<circle cx="15" cy="54.5" r="1" fill="red"/>
<circle cx="18" cy="55.4" r="1" fill="red"/>
<circle cx="18.986" cy="35.9263" r="1" fill="red"/>
<circle cx="19" cy="55.7" r="1" fill="red"/>
<circle cx="19.2752" cy="99.1401" r="1" fill="red"/>
<circle cx="20.1295" cy="23.9296" r="1" fill="red"/>
<circle cx="21" cy="56.3" r="1" fill="red"/>
<circle cx="21.1335" cy="3.74896" r="1" fill="red"/>
<circle cx="21.1577" cy="67.0591" r="1" fill="red"/>
<circle cx="21.1806" cy="54.9741" r="1" fill="red"/>
<circle cx="21.8858" cy="99.3983" r="1" fill="red"/>
<circle cx="22" cy="68.9586" r="1" fill="red"/>
<circle cx="22" cy="56.6" r="1" fill="red"/>
<circle cx="23" cy="56.9" r="1" fill="red"/>
<circle cx="24" cy="57.2" r="1" fill="red"/>
<circle cx="24.2024" cy="89.746" r="1" fill="red"/>
<circle cx="24.8256" cy="85.1564" r="1" fill="red"/>
<circle cx="25" cy="57.5" r="1" fill="red"/>
<circle cx="25.83" cy="59.0001" r="1" fill="red"/>
<circle cx="26" cy="57.8" r="1" fill="red"/>
<circle cx="26.3195" cy="65.9383" r="1" fill="red"/>
<circle cx="27" cy="58.1" r="1" fill="red"/>
<circle cx="27.08" cy="50.2532" r="1" fill="red"/>
<circle cx="27.7894" cy="89.3553" r="1" fill="red"/>
<circle cx="28" cy="58.4" r="1" fill="red"/>
<circle cx="28.276" cy="27.1056" r="1" fill="red"/>
<circle cx="29" cy="58.7" r="1" fill="red"/>
<circle cx="29.8924" cy="84.1629" r="1" fill="red"/>
<circle cx="31" cy="59.3" r="1" fill="red"/>
<circle cx="32" cy="59.6" r="1" fill="red"/>
<circle cx="32.0891" cy="54.7413" r="1" fill="red"/>
<circle cx="33.0637" cy="48.0518" r="1" fill="red"/>
<circle cx="33.1048" cy="94.2004" r="1" fill="red"/>
<circle cx="34" cy="60.2" r="1" fill="red"/>
<circle cx="35" cy="60.5" r="1" fill="red"/>
<circle cx="35.8214" cy="6.9885" r="1" fill="red"/>
<circle cx="35.8957" cy="7.82217" r="1" fill="red"/>
<circle cx="35.9727" cy="59.9538" r="1" fill="red"/>
<circle cx="36" cy="60.8" r="1" fill="red"/>
<circle cx="36.2211" cy="10.2781" r="1" fill="red"/>
<circle cx="37" cy="61.1" r="1" fill="red"/>
<circle cx="38" cy="61.4" r="1" fill="red"/>
<circle cx="38.9638" cy="10.9253" r="1" fill="red"/>
<circle cx="39" cy="61.7" r="1" fill="red"/>
<circle cx="40" cy="62" r="1" fill="red"/>
<circle cx="40.117" cy="67.1369" r="1" fill="red"/>
<circle cx="40.2029" cy="41.8938" r="1" fill="red"/>
<circle cx="41" cy="62.3" r="1" fill="red"/>
<circle cx="41.6647" cy="87.012" r="1" fill="red"/>
<circle cx="42" cy="62.6" r="1" fill="red"/>
<circle cx="42.1765" cy="67.425" r="1" fill="red"/>
<circle cx="43" cy="62.9" r="1" fill="red"/>
<circle cx="43.9146" cy="2.22281" r="1" fill="red"/>
<circle cx="44" cy="63.2" r="1" fill="red"/>
<circle cx="44.8609" cy="55.7957" r="1" fill="red"/>
<circle cx="45" cy="63.5" r="1" fill="red"/>
<circle cx="46" cy="63.8" r="1" fill="red"/>
<circle cx="47.9378" cy="72.231" r="1" fill="red"/>
<circle cx="48.8563" cy="90.5164" r="1" fill="red"/>
<circle cx="49" cy="64.7" r="1" fill="red"/>
<circle cx="50" cy="65" r="1" fill="red"/>
<circle cx="50.08" cy="55.0878" r="1" fill="red"/>
<circle cx="50.4236" cy="48.1415" r="1" fill="red"/>
<circle cx="51" cy="65.3" r="1" fill="red"/>
<circle cx="51.7402" cy="95.8202" r="1" fill="red"/>
<circle cx="52" cy="65.6" r="1" fill="red"/>
<circle cx="53" cy="65.9" r="1" fill="red"/>
<circle cx="53.0488" cy="48.1121" r="1" fill="red"/>
<circle cx="53.4139" cy="92.0942" r="1" fill="red"/>
<circle cx="54" cy="66.2" r="1" fill="red"/>
<circle cx="55" cy="66.5" r="1" fill="red"/>
<circle cx="56" cy="66.8" r="1" fill="red"/>
<circle cx="56.9616" cy="28.6591" r="1" fill="red"/>
<circle cx="58" cy="67.4" r="1" fill="red"/>
<circle cx="58.2523" cy="98.0819" r="1" fill="red"/>
<circle cx="58.7621" cy="9.27183" r="1" fill="red"/>
<circle cx="59.0299" cy="73.1912" r="1" fill="red"/>
<circle cx="59.4306" cy="62.6987" r="1" fill="red"/>
<circle cx="60" cy="68" r="1" fill="red"/>
<circle cx="60.1067" cy="42.2221" r="1" fill="red"/>
<circle cx="60.253" cy="3.99518" r="1" fill="red"/>
<circle cx="60.7805" cy="53.9529" r="1" fill="red"/>
<circle cx="61" cy="68.3" r="1" fill="red"/>
<circle cx="62" cy="68.6" r="1" fill="red"/>
<circle cx="62.4826" cy="97.1878" r="1" fill="red"/>
<circle cx="64" cy="69.2" r="1" fill="red"/>
<circle cx="65" cy="69.5" r="1" fill="red"/>
<circle cx="67" cy="70.1" r="1" fill="red"/>
<circle cx="67.2208" cy="45.9898" r="1" fill="red"/>
<circle cx="68" cy="70.4" r="1" fill="red"/>
<circle cx="68.0341" cy="28.9932" r="1" fill="red"/>
<circle cx="69" cy="70.7" r="1" fill="red"/>
<circle cx="70" cy="71" r="1" fill="red"/>
<circle cx="71" cy="71.3" r="1" fill="red"/>
<circle cx="72" cy="71.6" r="1" fill="red"/>
<circle cx="72.0219" cy="49.8181" r="1" fill="red"/>
<circle cx="72.027" cy="7.83669" r="1" fill="red"/>
<circle cx="72.6709" cy="75.9066" r="1" fill="red"/>
<circle cx="73" cy="71.9" r="1" fill="red"/>
<circle cx="74" cy="72.2" r="1" fill="red"/>
<circle cx="74.8611" cy="88.1609" r="1" fill="red"/>
<circle cx="75" cy="72.5" r="1" fill="red"/>
<circle cx="76" cy="72.8" r="1" fill="red"/>
<circle cx="76.0997" cy="41.8376" r="1" fill="red"/>
<circle cx="78" cy="73.4" r="1" fill="red"/>
<circle cx="78.9624" cy="84.1327" r="1" fill="red"/>
<circle cx="79" cy="73.7" r="1" fill="red"/>
<circle cx="79.1432" cy="17.7471" r="1" fill="red"/>
<circle cx="79.3595" cy="68.8932" r="1" fill="red"/>
<circle cx="80" cy="74" r="1" fill="red"/>
<circle cx="81" cy="74.3" r="1" fill="red"/>
<circle cx="82" cy="74.6" r="1" fill="red"/>
<circle cx="83" cy="74.9" r="1" fill="red"/>
<circle cx="83.8659" cy="20.8433" r="1" fill="red"/>
<circle cx="83.9176" cy="40.2256" r="1" fill="red"/>
<circle cx="84" cy="75.2" r="1" fill="red"/>
<circle cx="84.2986" cy="57.9467" r="1" fill="red"/>
<circle cx="86" cy="75.8" r="1" fill="red"/>
<circle cx="86.3802" cy="24.8587" r="1" fill="red"/>
<circle cx="86.9691" cy="12.2382" r="1" fill="red"/>
<circle cx="87" cy="76.1" r="1" fill="red"/>
<circle cx="87.7351" cy="96.6719" r="1" fill="red"/>
<circle cx="88" cy="76.4" r="1" fill="red"/>
<circle cx="89.9406" cy="83.9071" r="1" fill="red"/>
<circle cx="89.9587" cy="54.0667" r="1" fill="red"/>
<circle cx="90" cy="77" r="1" fill="red"/>
<circle cx="90.147" cy="95.0044" r="1" fill="red"/>
<circle cx="91" cy="77.3" r="1" fill="red"/>
<circle cx="91.9611" cy="71.8411" r="1" fill="red"/>
<circle cx="92" cy="77.6" r="1" fill="red"/>
<circle cx="92.6991" cy="5.00715" r="1" fill="red"/>
<circle cx="93" cy="77.9" r="1" fill="red"/>
<circle cx="93.7081" cy="4.31213" r="1" fill="red"/>
<circle cx="95" cy="78.5" r="1" fill="red"/>
<circle cx="96" cy="78.8" r="1" fill="red"/>
<circle cx="96.1664" cy="80.7821" r="1" fill="red"/>
<circle cx="97" cy="79.1" r="1" fill="red"/>
<circle cx="97.8951" cy="89.709" r="1" fill="red"/>
<circle cx="98.3285" cy="12.9442" r="1" fill="red"/>
<circle cx="98.9762" cy="81.1765" r="1" fill="red"/>
<circle cx="99" cy="79.7" r="1" fill="red"/>
<circle cx="99.1641" cy="95.9348" r="1" fill="red"/>
</svg>