<?xml version="1.0" standalone="yes"?>
<!-- SVG graphic -->
<svg xmlns='http://www.w3.org/2000/svg' xmlns:xlink='http://www.w3.org/1999/xlink'
width="100px" height="100px" preserveAspectRatio="xMinYMin meet" viewBox="0 0 100 100" version="1.1">
<circle cx="0" cy="48.7213" r="1" fill="red"/>
<circle cx="0" cy="49.6279" r="1" fill="red"/>
<circle cx="0" cy="51.6212" r="1" fill="red"/>
<circle cx="0" cy="52.4358" r="1" fill="red"/>
<circle cx="0.166381" cy="66.7821" r="1" fill="red"/>
<circle cx="1" cy="48.8607" r="1" fill="red"/>
<circle cx="2" cy="49.5187" r="1" fill="red"/>
<circle cx="2.95875" cy="87.0667" r="1" fill="red"/>
<circle cx="3" cy="49.54" r="1" fill="red"/>
<circle cx="3" cy="52.2821" r="1" fill="red"/>
<circle cx="4" cy="50.2759" r="1" fill="red"/>
<circle cx="4" cy="51.1953" r="1" fill="red"/>
<circle cx="4.6991" cy="27.0072" r="1" fill="red"/>
<circle cx="5" cy="55.4505" r="1" fill="red"/>
<circle cx="6" cy="49.9922" r="1" fill="red"/>
<circle cx="6" cy="50.3041" r="1" fill="red"/>
<circle cx="7" cy="50.6237" r="1" fill="red"/>
<circle cx="7" cy="53.8626" r="1" fill="red"/>
<circle cx="7" cy="54.8473" r="1" fill="red"/>
<circle cx="8" cy="48.939" r="1" fill="red"/>
<circle cx="8" cy="51.0438" r="1" fill="red"/>
<circle cx="8" cy="51.647" r="1" fill="red"/>
<circle cx="8" cy="52.4219" r="1" fill="red"/>
<circle cx="8.25229" cy="62.0819" r="1" fill="red"/>
<circle cx="9" cy="51.2382" r="1" fill="red"/>
<circle cx="9" cy="53.5002" r="1" fill="red"/>
<circle cx="9.06371" cy="73.0518" r="1" fill="red"/>
<circle cx="10" cy="53.8102" r="1" fill="red"/>
<circle cx="10" cy="56.8219" r="1" fill="red"/>
<circle cx="10.4306" cy="-0.301333" r="1" fill="red"/>
<circle cx="10.7894" cy="35.3553" r="1" fill="red"/>
<circle cx="11" cy="50.1789" r="1" fill="red"/>
<circle cx="11.1432" cy="64.7471" r="1" fill="red"/>
<circle cx="11.8824" cy="8.8203" r="1" fill="red"/>
<circle cx="12.9176" cy="54.2256" r="1" fill="red"/>
<circle cx="12.9378" cy="83.231" r="1" fill="red"/>
<circle cx="12.9727" cy="57.9538" r="1" fill="red"/>
<circle cx="13" cy="50.5951" r="1" fill="red"/>
<circle cx="13" cy="51.9634" r="1" fill="red"/>
<circle cx="13" cy="52.7628" r="1" fill="red"/>
<circle cx="13" cy="54.8319" r="1" fill="red"/>
<circle cx="13" cy="57.261" r="1" fill="red"/>
<circle cx="13.9814" cy="71.0698" r="1" fill="red"/>
<circle cx="14" cy="50.9855" r="1" fill="red"/>
<circle cx="14.9762" cy="87.1765" r="1" fill="red"/>
<circle cx="15" cy="52.0917" r="1" fill="red"/>
<circle cx="15" cy="52.5255" r="1" fill="red"/>
<circle cx="16" cy="52.4126" r="1" fill="red"/>
<circle cx="16" cy="52.9907" r="1" fill="red"/>
<circle cx="16" cy="54.3618" r="1" fill="red"/>
<circle cx="16" cy="56.8519" r="1" fill="red"/>
<circle cx="18" cy="55.3312" r="1" fill="red"/>
<circle cx="19" cy="53.6774" r="1" fill="red"/>
<circle cx="19" cy="55.2046" r="1" fill="red"/>
<circle cx="19" cy="59.2628" r="1" fill="red"/>
<circle cx="19.83" cy="63.0001" r="1" fill="red"/>
<circle cx="20" cy="54.5375" r="1" fill="red"/>
<circle cx="20" cy="59.3808" r="1" fill="red"/>
<circle cx="20.9146" cy="60.2228" r="1" fill="red"/>
<circle cx="22.8858" cy="90.3983" r="1" fill="red"/>
<circle cx="23.1084" cy="28.8123" r="1" fill="red"/>
<circle cx="23.2752" cy="87.1401" r="1" fill="red"/>
<circle cx="24" cy="55.9251" r="1" fill="red"/>
<circle cx="24" cy="59.9066" r="1" fill="red"/>
<circle cx="24" cy="60.5369" r="1" fill="red"/>
<circle cx="25" cy="58.5378" r="1" fill="red"/>
<circle cx="25" cy="59.6094" r="1" fill="red"/>
<circle cx="25" cy="59.8291" r="1" fill="red"/>
<circle cx="25.0891" cy="35.7413" r="1" fill="red"/>
<circle cx="25.9624" cy="97.1327" r="1" fill="red"/>
<circle cx="26" cy="56.8688" r="1" fill="red"/>
<circle cx="26" cy="57.3467" r="1" fill="red"/>
<circle cx="26" cy="57.8437" r="1" fill="red"/>
<circle cx="26" cy="58.8876" r="1" fill="red"/>
<circle cx="26.7805" cy="97.9529" r="1" fill="red"/>
<circle cx="27" cy="56.2868" r="1" fill="red"/>
<circle cx="28" cy="57.6597" r="1" fill="red"/>
<circle cx="28" cy="58.0687" r="1" fill="red"/>
<circle cx="28" cy="59.178" r="1" fill="red"/>
<circle cx="28" cy="60.4278" r="1" fill="red"/>
<circle cx="29" cy="58.4421" r="1" fill="red"/>
<circle cx="29" cy="60.7854" r="1" fill="red"/>
<circle cx="29" cy="62.3481" r="1" fill="red"/>
<circle cx="29.3285" cy="48.9442" r="1" fill="red"/>
<circle cx="30" cy="57.9149" r="1" fill="red"/>
<circle cx="30" cy="58.1992" r="1" fill="red"/>
<circle cx="31" cy="56.524" r="1" fill="red"/>
<circle cx="31" cy="59.0135" r="1" fill="red"/>
<circle cx="31" cy="61.0044" r="1" fill="red"/>
<circle cx="32" cy="59.3368" r="1" fill="red"/>
<circle cx="32" cy="63.7576" r="1" fill="red"/>
<circle cx="32.9611" cy="89.8411" r="1" fill="red"/>
<circle cx="33" cy="59.203" r="1" fill="red"/>
<circle cx="34" cy="58.9204" r="1" fill="red"/>
<circle cx="34" cy="59.2531" r="1" fill="red"/>
<circle cx="34" cy="61.9409" r="1" fill="red"/>
<circle cx="34" cy="62.2375" r="1" fill="red"/>
<circle cx="34" cy="64.0967" r="1" fill="red"/>
<circle cx="34.1641" cy="31.9348" r="1" fill="red"/>
<circle cx="34.3802" cy="58.8587" r="1" fill="red"/>
<circle cx="34.8951" cy="21.709" r="1" fill="red"/>
<circle cx="35" cy="57.3922" r="1" fill="red"/>
<circle cx="35" cy="59.3768" r="1" fill="red"/>
<circle cx="35.2211" cy="14.2781" r="1" fill="red"/>
<circle cx="37" cy="62.987" r="1" fill="red"/>
<circle cx="37.8214" cy="50.9885" r="1" fill="red"/>
<circle cx="37.9616" cy="70.6591" r="1" fill="red"/>
<circle cx="38" cy="63.9111" r="1" fill="red"/>
<circle cx="38.986" cy="65.9263" r="1" fill="red"/>
<circle cx="39" cy="58.7969" r="1" fill="red"/>
<circle cx="39" cy="59.3341" r="1" fill="red"/>
<circle cx="39" cy="62.206" r="1" fill="red"/>
<circle cx="39" cy="64.1945" r="1" fill="red"/>
<circle cx="39" cy="64.5245" r="1" fill="red"/>
<circle cx="39.147" cy="80.0044" r="1" fill="red"/>
<circle cx="40" cy="63.1657" r="1" fill="red"/>
<circle cx="40" cy="64.9127" r="1" fill="red"/>
<circle cx="40.1067" cy="21.2221" r="1" fill="red"/>
<circle cx="40.1806" cy="10.9741" r="1" fill="red"/>
<circle cx="40.2024" cy="67.746" r="1" fill="red"/>
<circle cx="41" cy="61.7415" r="1" fill="red"/>
<circle cx="41" cy="65.1057" r="1" fill="red"/>
<circle cx="41.8563" cy="80.5164" r="1" fill="red"/>
<circle cx="42" cy="60.1077" r="1" fill="red"/>
<circle cx="42" cy="61.5803" r="1" fill="red"/>
<circle cx="42" cy="61.8759" r="1" fill="red"/>
<circle cx="42" cy="65.9123" r="1" fill="red"/>
<circle cx="42.8096" cy="55.2145" r="1" fill="red"/>
<circle cx="43" cy="60.7794" r="1" fill="red"/>
<circle cx="43" cy="63.4086" r="1" fill="red"/>
<circle cx="45" cy="64.6467" r="1" fill="red"/>
<circle cx="45.831" cy="7.16144" r="1" fill="red"/>
<circle cx="46" cy="62.7511" r="1" fill="red"/>
<circle cx="46" cy="63.2999" r="1" fill="red"/>
<circle cx="46" cy="64.6307" r="1" fill="red"/>
<circle cx="47" cy="62.4828" r="1" fill="red"/>
<circle cx="47" cy="64.8262" r="1" fill="red"/>
<circle cx="48" cy="63.9174" r="1" fill="red"/>
<circle cx="48.8256" cy="29.1564" r="1" fill="red"/>
<circle cx="49" cy="65.2101" r="1" fill="red"/>
<circle cx="49" cy="66.6513" r="1" fill="red"/>
<circle cx="49" cy="67.0596" r="1" fill="red"/>
<circle cx="50" cy="63.065" r="1" fill="red"/>
<circle cx="50" cy="65.9949" r="1" fill="red"/>
<circle cx="50.8609" cy="72.7957" r="1" fill="red"/>
<circle cx="51" cy="66.6927" r="1" fill="red"/>
<circle cx="52" cy="62.9927" r="1" fill="red"/>
<circle cx="52" cy="66.5533" r="1" fill="red"/>
<circle cx="52.3595" cy="19.8932" r="1" fill="red"/>
<circle cx="52.7081" cy="60.3121" r="1" fill="red"/>
<circle cx="53" cy="65.2184" r="1" fill="red"/>
<circle cx="53" cy="67.0667" r="1" fill="red"/>
<circle cx="53" cy="68.2085" r="1" fill="red"/>
<circle cx="53.027" cy="62.8367" r="1" fill="red"/>
<circle cx="54" cy="60.5239" r="1" fill="red"/>
<circle cx="54.2208" cy="72.9898" r="1" fill="red"/>
<circle cx="54.4139" cy="66.0942" r="1" fill="red"/>
<circle cx="54.4826" cy="47.1878" r="1" fill="red"/>
<circle cx="56" cy="67.0874" r="1" fill="red"/>
<circle cx="56.6709" cy="3.90657" r="1" fill="red"/>
<circle cx="57" cy="65.6634" r="1" fill="red"/>
<circle cx="57" cy="67.9967" r="1" fill="red"/>
<circle cx="57.0219" cy="31.8181" r="1" fill="red"/>
<circle cx="57.0341" cy="80.9932" r="1" fill="red"/>
<circle cx="57.1335" cy="35.749" r="1" fill="red"/>
<circle cx="58" cy="69.1548" r="1" fill="red"/>
<circle cx="60" cy="70.24" r="1" fill="red"/>
<circle cx="61" cy="66.9086" r="1" fill="red"/>
<circle cx="61" cy="72.4421" r="1" fill="red"/>
<circle cx="61.276" cy="90.1056" r="1" fill="red"/>
<circle cx="62" cy="67.1652" r="1" fill="red"/>
<circle cx="62" cy="68.6491" r="1" fill="red"/>
<circle cx="62" cy="69.0014" r="1" fill="red"/>
<circle cx="63" cy="68.7149" r="1" fill="red"/>
<circle cx="63" cy="70.1986" r="1" fill="red"/>
<circle cx="63" cy="70.5778" r="1" fill="red"/>
<circle cx="63" cy="71.1697" r="1" fill="red"/>
<circle cx="63.1048" cy="66.2004" r="1" fill="red"/>
<circle cx="63.6647" cy="69.012" r="1" fill="red"/>
<circle cx="64" cy="66.919" r="1" fill="red"/>
<circle cx="65" cy="69.567" r="1" fill="red"/>
<circle cx="66" cy="69.7996" r="1" fill="red"/>
<circle cx="66.8659" cy="22.8433" r="1" fill="red"/>
<circle cx="67" cy="96.9586" r="1" fill="red"/>
<circle cx="67" cy="72.7177" r="1" fill="red"/>
<circle cx="67.8957" cy="94.8222" r="1" fill="red"/>
<circle cx="67.9002" cy="76.0878" r="1" fill="red"/>
<circle cx="67.9691" cy="81.2382" r="1" fill="red"/>
<circle cx="69" cy="68.1774" r="1" fill="red"/>
<circle cx="69" cy="72.7389" r="1" fill="red"/>
<circle cx="69.0669" cy="70.0084" r="1" fill="red"/>
<circle cx="70" cy="68.0526" r="1" fill="red"/>
<circle cx="70" cy="70.683" r="1" fill="red"/>
<circle cx="70" cy="73.8619" r="1" fill="red"/>
<circle cx="71.08" cy="18.2532" r="1" fill="red"/>
<circle cx="72" cy="70.039" r="1" fill="red"/>
<circle cx="72" cy="72.5955" r="1" fill="red"/>
<circle cx="72.2318" cy="90.9676" r="1" fill="red"/>
<circle cx="72.8611" cy="1.16092" r="1" fill="red"/>
<circle cx="73" cy="74.0079" r="1" fill="red"/>
<circle cx="73.8924" cy="35.1629" r="1" fill="red"/>
<circle cx="74" cy="72.5202" r="1" fill="red"/>
<circle cx="75" cy="71.1448" r="1" fill="red"/>
<circle cx="75" cy="72.4672" r="1" fill="red"/>
<circle cx="75.0997" cy="22.8376" r="1" fill="red"/>
<circle cx="76" cy="70.9366" r="1" fill="red"/>
<circle cx="76" cy="74.8724" r="1" fill="red"/>
<circle cx="77" cy="70.6911" r="1" fill="red"/>
<circle cx="78" cy="71.0937" r="1" fill="red"/>
<circle cx="78" cy="74.5672" r="1" fill="red"/>
<circle cx="78.1577" cy="28.0591" r="1" fill="red"/>
<circle cx="79" cy="69.483" r="1" fill="red"/>
<circle cx="79" cy="73.0681" r="1" fill="red"/>
<circle cx="79" cy="73.4191" r="1" fill="red"/>
<circle cx="79" cy="74.5563" r="1" fill="red"/>
<circle cx="79" cy="75.6345" r="1" fill="red"/>
<circle cx="80" cy="71.5425" r="1" fill="red"/>
<circle cx="80.4236" cy="71.1415" r="1" fill="red"/>
<circle cx="80.7402" cy="41.8202" r="1" fill="red"/>
<circle cx="81" cy="72.2782" r="1" fill="red"/>
<circle cx="81" cy="73.9145" r="1" fill="red"/>
<circle cx="81" cy="78.8099" r="1" fill="red"/>
<circle cx="81.117" cy="20.1369" r="1" fill="red"/>
<circle cx="81.9406" cy="43.9071" r="1" fill="red"/>
<circle cx="82" cy="71.4543" r="1" fill="red"/>
<circle cx="82" cy="75.1562" r="1" fill="red"/>
<circle cx="82.1765" cy="91.425" r="1" fill="red"/>
<circle cx="82.8997" cy="16.1321" r="1" fill="red"/>
<circle cx="83" cy="72.9106" r="1" fill="red"/>
<circle cx="83" cy="73.8771" r="1" fill="red"/>
<circle cx="83" cy="76.5213" r="1" fill="red"/>
<circle cx="83.1295" cy="63.9296" r="1" fill="red"/>
<circle cx="84" cy="75.7889" r="1" fill="red"/>
<circle cx="84" cy="76.5117" r="1" fill="red"/>
<circle cx="84.253" cy="54.9952" r="1" fill="red"/>
<circle cx="85" cy="73.1152" r="1" fill="red"/>
<circle cx="86" cy="70.3877" r="1" fill="red"/>
<circle cx="86" cy="75.161" r="1" fill="red"/>
<circle cx="86" cy="75.3298" r="1" fill="red"/>
<circle cx="86" cy="76.1439" r="1" fill="red"/>
<circle cx="86" cy="76.9708" r="1" fill="red"/>
<circle cx="86" cy="79.6854" r="1" fill="red"/>
<circle cx="87" cy="75.5887" r="1" fill="red"/>
<circle cx="87" cy="78.1344" r="1" fill="red"/>
<circle cx="87.08" cy="83.0878" r="1" fill="red"/>
<circle cx="88" cy="74.1416" r="1" fill="red"/>
<circle cx="90" cy="76.402" r="1" fill="red"/>
<circle cx="90" cy="80.1187" r="1" fill="red"/>
<circle cx="90.0299" cy="50.1912" r="1" fill="red"/>
<circle cx="91" cy="75.6742" r="1" fill="red"/>
<circle cx="92" cy="75.539" r="1" fill="red"/>
<circle cx="92" cy="77.5817" r="1" fill="red"/>
<circle cx="92" cy="82.5063" r="1" fill="red"/>
<circle cx="92.2029" cy="46.8938" r="1" fill="red"/>
<circle cx="92.9638" cy="38.9253" r="1" fill="red"/>
<circle cx="93" cy="76.9158" r="1" fill="red"/>
<circle cx="93.0244" cy="32.8013" r="1" fill="red"/>
<circle cx="94" cy="76.8383" r="1" fill="red"/>
<circle cx="94" cy="80.1563" r="1" fill="red"/>
<circle cx="94" cy="81.2296" r="1" fill="red"/>
<circle cx="94.3195" cy="92.9383" r="1" fill="red"/>
<circle cx="95" cy="76.8691" r="1" fill="red"/>
<circle cx="95" cy="79.5832" r="1" fill="red"/>
<circle cx="95" cy="83.8086" r="1" fill="red"/>
<circle cx="95.7351" cy="43.6719" r="1" fill="red"/>
<circle cx="96" cy="74.0595" r="1" fill="red"/>
<circle cx="96" cy="75.4801" r="1" fill="red"/>
<circle cx="96" cy="77.7578" r="1" fill="red"/>
<circle cx="96" cy="78.0475" r="1" fill="red"/>
<circle cx="96" cy="78.182" r="1" fill="red"/>
<circle cx="96.2986" cy="33.9467" r="1" fill="red"/>
<circle cx="97" cy="77.1317" r="1" fill="red"/>
<circle cx="97" cy="79.8128" r="1" fill="red"/>
<circle cx="97" cy="80.1807" r="1" fill="red"/>
<circle cx="98" cy="77.6404" r="1" fill="red"/>
<circle cx="98" cy="78.0998" r="1" fill="red"/>
<circle cx="98" cy="80.9682" r="1" fill="red"/>
<circle cx="98" cy="81.6211" r="1" fill="red"/>
<circle cx="98.0488" cy="60.1121" r="1" fill="red"/>
<circle cx="98.7621" cy="77.2718" r="1" fill="red"/>
<circle cx="98.9441" cy="21.6059" r="1" fill="red"/>
<circle cx="99" cy="77.7585" r="1" fill="red"/>
</svg>