<?xml version="1.0" standalone="yes"?>
<!-- SVG graphic -->
<svg xmlns='http://www.w3.org/2000/svg' xmlns:xlink='http://www.w3.org/1999/xlink'
width="100px" height="100px" preserveAspectRatio="xMinYMin meet" viewBox="0 0 100 100" version="1.1">
<circle cx="-0.134127" cy="44.8433" r="1" fill="red"/>
<circle cx="0" cy="48.9219" r="1" fill="red"/>
<circle cx="0" cy="49.1029" r="1" fill="red"/>
<circle cx="0.972741" cy="75.9538" r="1" fill="red"/>
<circle cx="2" cy="49.7469" r="1" fill="red"/>
<circle cx="3.15774" cy="16.0591" r="1" fill="red"/>
<circle cx="3.9624" cy="11.1327" r="1" fill="red"/>
<circle cx="4.89512" cy="3.70904" r="1" fill="red"/>
<circle cx="4.91765" cy="90.2256" r="1" fill="red"/>
<circle cx="5" cy="51.2887" r="1" fill="red"/>
<circle cx="5.10673" cy="60.2221" r="1" fill="red"/>
<circle cx="6" cy="51.543" r="1" fill="red"/>
<circle cx="6.90024" cy="92.0878" r="1" fill="red"/>
<circle cx="7" cy="52.6402" r="1" fill="red"/>
<circle cx="8" cy="51.0737" r="1" fill="red"/>
<circle cx="8" cy="53.5698" r="1" fill="red"/>
<circle cx="8.0299" cy="23.1912" r="1" fill="red"/>
<circle cx="8.48261" cy="65.1878" r="1" fill="red"/>
<circle cx="9" cy="54.402" r="1" fill="red"/>
<circle cx="9.43063" cy="79.6987" r="1" fill="red"/>
<circle cx="10" cy="54.4063" r="1" fill="red"/>
<circle cx="10" cy="54.6741" r="1" fill="red"/>
<circle cx="10.3195" cy="19.9383" r="1" fill="red"/>
<circle cx="11" cy="50.4887" r="1" fill="red"/>
<circle cx="11.1295" cy="33.9296" r="1" fill="red"/>
<circle cx="12" cy="54.3778" r="1" fill="red"/>
<circle cx="12.3285" cy="68.9443" r="1" fill="red"/>
<circle cx="12.9406" cy="90.9071" r="1" fill="red"/>
<circle cx="13" cy="52.609" r="1" fill="red"/>
<circle cx="14" cy="50.416" r="1" fill="red"/>
<circle cx="14" cy="53.2027" r="1" fill="red"/>
<circle cx="14" cy="54.9845" r="1" fill="red"/>
<circle cx="14.986" cy="34.9263" r="1" fill="red"/>
<circle cx="15" cy="53.2642" r="1" fill="red"/>
<circle cx="16" cy="56.1592" r="1" fill="red"/>
<circle cx="16" cy="57.0082" r="1" fill="red"/>
<circle cx="16.8563" cy="12.5164" r="1" fill="red"/>
<circle cx="17" cy="54.6016" r="1" fill="red"/>
<circle cx="17" cy="57.1791" r="1" fill="red"/>
<circle cx="17.0637" cy="64.0518" r="1" fill="red"/>
<circle cx="18" cy="55.1791" r="1" fill="red"/>
<circle cx="18" cy="55.6696" r="1" fill="red"/>
<circle cx="18" cy="58.8767" r="1" fill="red"/>
<circle cx="18.2029" cy="52.8938" r="1" fill="red"/>
<circle cx="18.9611" cy="41.8411" r="1" fill="red"/>
<circle cx="19" cy="56.8185" r="1" fill="red"/>
<circle cx="19" cy="57.6079" r="1" fill="red"/>
<circle cx="20" cy="56.3373" r="1" fill="red"/>
<circle cx="20.8214" cy="66.9885" r="1" fill="red"/>
<circle cx="20.9587" cy="20.0667" r="1" fill="red"/>
<circle cx="21" cy="56.8496" r="1" fill="red"/>
<circle cx="21" cy="57.0781" r="1" fill="red"/>
<circle cx="21" cy="57.2157" r="1" fill="red"/>
<circle cx="21" cy="57.8731" r="1" fill="red"/>
<circle cx="21.7805" cy="4.95285" r="1" fill="red"/>
<circle cx="22.1664" cy="86.7821" r="1" fill="red"/>
<circle cx="23.1084" cy="36.8123" r="1" fill="red"/>
<circle cx="23.8256" cy="39.1564" r="1" fill="red"/>
<circle cx="23.9378" cy="88.231" r="1" fill="red"/>
<circle cx="24" cy="55.5385" r="1" fill="red"/>
<circle cx="24" cy="57.4293" r="1" fill="red"/>
<circle cx="25" cy="56.0338" r="1" fill="red"/>
<circle cx="25" cy="58.1185" r="1" fill="red"/>
<circle cx="25" cy="58.3658" r="1" fill="red"/>
<circle cx="25" cy="59.163" r="1" fill="red"/>
<circle cx="25.9762" cy="83.1765" r="1" fill="red"/>
<circle cx="26" cy="57.1688" r="1" fill="red"/>
<circle cx="27" cy="57.4007" r="1" fill="red"/>
<circle cx="28" cy="56.7616" r="1" fill="red"/>
<circle cx="28" cy="56.9546" r="1" fill="red"/>
<circle cx="28" cy="57.4405" r="1" fill="red"/>
<circle cx="28" cy="57.7202" r="1" fill="red"/>
<circle cx="28" cy="57.8245" r="1" fill="red"/>
<circle cx="28" cy="60.7217" r="1" fill="red"/>
<circle cx="28.8609" cy="70.7957" r="1" fill="red"/>
<circle cx="29" cy="56.9022" r="1" fill="red"/>
<circle cx="29" cy="57.85" r="1" fill="red"/>
<circle cx="30" cy="58.3438" r="1" fill="red"/>
<circle cx="30.8824" cy="16.8203" r="1" fill="red"/>
<circle cx="31" cy="57.135" r="1" fill="red"/>
<circle cx="31" cy="61.6752" r="1" fill="red"/>
<circle cx="31" cy="62.0717" r="1" fill="red"/>
<circle cx="32" cy="58.3912" r="1" fill="red"/>
<circle cx="32" cy="60.9679" r="1" fill="red"/>
<circle cx="32.7351" cy="83.6719" r="1" fill="red"/>
<circle cx="33" cy="86.9586" r="1" fill="red"/>
<circle cx="33" cy="59.5978" r="1" fill="red"/>
<circle cx="33.2024" cy="98.746" r="1" fill="red"/>
<circle cx="33.2318" cy="62.9676" r="1" fill="red"/>
<circle cx="33.8096" cy="19.2145" r="1" fill="red"/>
<circle cx="34" cy="59.584" r="1" fill="red"/>
<circle cx="34" cy="59.6661" r="1" fill="red"/>
<circle cx="35" cy="59.1878" r="1" fill="red"/>
<circle cx="36" cy="58.5967" r="1" fill="red"/>
<circle cx="36.0488" cy="6.11211" r="1" fill="red"/>
<circle cx="36.6709" cy="61.9066" r="1" fill="red"/>
<circle cx="37" cy="61.0968" r="1" fill="red"/>
<circle cx="37" cy="61.1291" r="1" fill="red"/>
<circle cx="37" cy="62.6816" r="1" fill="red"/>
<circle cx="38" cy="61.1079" r="1" fill="red"/>
<circle cx="38" cy="61.4379" r="1" fill="red"/>
<circle cx="38.0244" cy="56.8013" r="1" fill="red"/>
<circle cx="38.0997" cy="69.8376" r="1" fill="red"/>
<circle cx="38.9638" cy="63.9253" r="1" fill="red"/>
<circle cx="39" cy="59.7646" r="1" fill="red"/>
<circle cx="39" cy="63.5849" r="1" fill="red"/>
<circle cx="40" cy="62.5335" r="1" fill="red"/>
<circle cx="40.253" cy="24.9952" r="1" fill="red"/>
<circle cx="41" cy="62.6926" r="1" fill="red"/>
<circle cx="41" cy="63.6562" r="1" fill="red"/>
<circle cx="41" cy="63.839" r="1" fill="red"/>
<circle cx="41.1048" cy="2.20043" r="1" fill="red"/>
<circle cx="42" cy="62.8676" r="1" fill="red"/>
<circle cx="42.117" cy="30.1369" r="1" fill="red"/>
<circle cx="42.83" cy="79.0001" r="1" fill="red"/>
<circle cx="43" cy="63.625" r="1" fill="red"/>
<circle cx="43.276" cy="72.1056" r="1" fill="red"/>
<circle cx="44" cy="63.2146" r="1" fill="red"/>
<circle cx="44" cy="63.7204" r="1" fill="red"/>
<circle cx="45" cy="62.8411" r="1" fill="red"/>
<circle cx="45" cy="63.4997" r="1" fill="red"/>
<circle cx="47.8957" cy="93.8222" r="1" fill="red"/>
<circle cx="48" cy="63.4281" r="1" fill="red"/>
<circle cx="49" cy="65.0401" r="1" fill="red"/>
<circle cx="49" cy="65.7229" r="1" fill="red"/>
<circle cx="49.08" cy="15.2532" r="1" fill="red"/>
<circle cx="50" cy="63.6516" r="1" fill="red"/>
<circle cx="50" cy="66.3816" r="1" fill="red"/>
<circle cx="51" cy="64.3933" r="1" fill="red"/>
<circle cx="51" cy="65.2412" r="1" fill="red"/>
<circle cx="51" cy="65.2781" r="1" fill="red"/>
<circle cx="51.9441" cy="70.6059" r="1" fill="red"/>
<circle cx="52" cy="63.297" r="1" fill="red"/>
<circle cx="52" cy="64.6423" r="1" fill="red"/>
<circle cx="52" cy="65.1787" r="1" fill="red"/>
<circle cx="53" cy="66.2719" r="1" fill="red"/>
<circle cx="53.2523" cy="26.0819" r="1" fill="red"/>
<circle cx="53.7621" cy="86.2718" r="1" fill="red"/>
<circle cx="54" cy="63.9512" r="1" fill="red"/>
<circle cx="54" cy="65.774" r="1" fill="red"/>
<circle cx="54" cy="66.0127" r="1" fill="red"/>
<circle cx="54" cy="67.5042" r="1" fill="red"/>
<circle cx="54" cy="68.4407" r="1" fill="red"/>
<circle cx="54.0219" cy="43.8181" r="1" fill="red"/>
<circle cx="55" cy="64.9101" r="1" fill="red"/>
<circle cx="55" cy="64.9502" r="1" fill="red"/>
<circle cx="55" cy="65.9984" r="1" fill="red"/>
<circle cx="56" cy="67.2731" r="1" fill="red"/>
<circle cx="56" cy="67.4355" r="1" fill="red"/>
<circle cx="56" cy="67.7285" r="1" fill="red"/>
<circle cx="56.4139" cy="8.09419" r="1" fill="red"/>
<circle cx="56.6991" cy="29.0072" r="1" fill="red"/>
<circle cx="57" cy="64.1069" r="1" fill="red"/>
<circle cx="57" cy="65.0028" r="1" fill="red"/>
<circle cx="58.8858" cy="63.3983" r="1" fill="red"/>
<circle cx="59" cy="67.5281" r="1" fill="red"/>
<circle cx="59" cy="67.5877" r="1" fill="red"/>
<circle cx="60" cy="67.498" r="1" fill="red"/>
<circle cx="60" cy="69.4448" r="1" fill="red"/>
<circle cx="60" cy="70.4964" r="1" fill="red"/>
<circle cx="60.9146" cy="28.2228" r="1" fill="red"/>
<circle cx="61" cy="67.2161" r="1" fill="red"/>
<circle cx="62" cy="67.2828" r="1" fill="red"/>
<circle cx="62" cy="67.5985" r="1" fill="red"/>
<circle cx="62" cy="69.7363" r="1" fill="red"/>
<circle cx="63" cy="67.3227" r="1" fill="red"/>
<circle cx="63" cy="69.5632" r="1" fill="red"/>
<circle cx="64" cy="70.2808" r="1" fill="red"/>
<circle cx="66" cy="66.6558" r="1" fill="red"/>
<circle cx="66" cy="68.5578" r="1" fill="red"/>
<circle cx="66" cy="69.307" r="1" fill="red"/>
<circle cx="66" cy="71.1584" r="1" fill="red"/>
<circle cx="67" cy="69.1959" r="1" fill="red"/>
<circle cx="67" cy="69.7782" r="1" fill="red"/>
<circle cx="68" cy="68.5853" r="1" fill="red"/>
<circle cx="68" cy="71.7337" r="1" fill="red"/>
<circle cx="68.6647" cy="10.012" r="1" fill="red"/>
<circle cx="68.7081" cy="50.3121" r="1" fill="red"/>
<circle cx="68.9616" cy="58.6591" r="1" fill="red"/>
<circle cx="69" cy="68.6192" r="1" fill="red"/>
<circle cx="69" cy="70.2173" r="1" fill="red"/>
<circle cx="69" cy="70.5246" r="1" fill="red"/>
<circle cx="69" cy="71.1752" r="1" fill="red"/>
<circle cx="69" cy="71.3074" r="1" fill="red"/>
<circle cx="69.2211" cy="32.2781" r="1" fill="red"/>
<circle cx="69.3802" cy="44.8587" r="1" fill="red"/>
<circle cx="70" cy="71.6637" r="1" fill="red"/>
<circle cx="70" cy="74.5391" r="1" fill="red"/>
<circle cx="70.8611" cy="95.1609" r="1" fill="red"/>
<circle cx="71" cy="70.4332" r="1" fill="red"/>
<circle cx="71" cy="72.3809" r="1" fill="red"/>
<circle cx="71" cy="73.7321" r="1" fill="red"/>
<circle cx="72" cy="69.3867" r="1" fill="red"/>
<circle cx="72" cy="72.3832" r="1" fill="red"/>
<circle cx="72" cy="73.4316" r="1" fill="red"/>
<circle cx="72" cy="73.5418" r="1" fill="red"/>
<circle cx="72.831" cy="30.1614" r="1" fill="red"/>
<circle cx="72.8924" cy="43.1629" r="1" fill="red"/>
<circle cx="73" cy="71.7286" r="1" fill="red"/>
<circle cx="73" cy="74.1246" r="1" fill="red"/>
<circle cx="74" cy="71.2158" r="1" fill="red"/>
<circle cx="74" cy="71.7911" r="1" fill="red"/>
<circle cx="74" cy="75.2066" r="1" fill="red"/>
<circle cx="75" cy="71.3619" r="1" fill="red"/>
<circle cx="75" cy="71.8792" r="1" fill="red"/>
<circle cx="75" cy="72.1665" r="1" fill="red"/>
<circle cx="76" cy="72.4276" r="1" fill="red"/>
<circle cx="76" cy="73.4508" r="1" fill="red"/>
<circle cx="76" cy="74.8197" r="1" fill="red"/>
<circle cx="77" cy="71.3618" r="1" fill="red"/>
<circle cx="77" cy="71.7837" r="1" fill="red"/>
<circle cx="77" cy="71.81" r="1" fill="red"/>
<circle cx="77" cy="72.3766" r="1" fill="red"/>
<circle cx="77" cy="74.4009" r="1" fill="red"/>
<circle cx="77.8997" cy="47.1321" r="1" fill="red"/>
<circle cx="78" cy="73.3878" r="1" fill="red"/>
<circle cx="79" cy="72.0941" r="1" fill="red"/>
<circle cx="80" cy="73.5758" r="1" fill="red"/>
<circle cx="80" cy="73.6865" r="1" fill="red"/>
<circle cx="80.1432" cy="42.7471" r="1" fill="red"/>
<circle cx="80.2208" cy="65.9898" r="1" fill="red"/>
<circle cx="81" cy="74.9089" r="1" fill="red"/>
<circle cx="81" cy="76.1723" r="1" fill="red"/>
<circle cx="82" cy="71.5985" r="1" fill="red"/>
<circle cx="82" cy="74.2091" r="1" fill="red"/>
<circle cx="82" cy="74.6592" r="1" fill="red"/>
<circle cx="82" cy="75.1538" r="1" fill="red"/>
<circle cx="82.1765" cy="86.425" r="1" fill="red"/>
<circle cx="83" cy="71.7396" r="1" fill="red"/>
<circle cx="83" cy="73.6948" r="1" fill="red"/>
<circle cx="83" cy="74.0359" r="1" fill="red"/>
<circle cx="83" cy="75.2661" r="1" fill="red"/>
<circle cx="83" cy="75.5919" r="1" fill="red"/>
<circle cx="84" cy="76.3751" r="1" fill="red"/>
<circle cx="85" cy="74.2057" r="1" fill="red"/>
<circle cx="85" cy="76.0709" r="1" fill="red"/>
<circle cx="85.9814" cy="15.0698" r="1" fill="red"/>
<circle cx="86" cy="75.0293" r="1" fill="red"/>
<circle cx="86" cy="76.8839" r="1" fill="red"/>
<circle cx="86.2986" cy="80.9467" r="1" fill="red"/>
<circle cx="87" cy="76.0541" r="1" fill="red"/>
<circle cx="87" cy="76.9745" r="1" fill="red"/>
<circle cx="87.0891" cy="52.7413" r="1" fill="red"/>
<circle cx="87.1806" cy="78.9741" r="1" fill="red"/>
<circle cx="87.3595" cy="1.89324" r="1" fill="red"/>
<circle cx="88" cy="77.1222" r="1" fill="red"/>
<circle cx="89" cy="75.3521" r="1" fill="red"/>
<circle cx="89" cy="75.6593" r="1" fill="red"/>
<circle cx="89" cy="76.8204" r="1" fill="red"/>
<circle cx="89.027" cy="85.8367" r="1" fill="red"/>
<circle cx="89.08" cy="10.0878" r="1" fill="red"/>
<circle cx="89.1641" cy="39.9348" r="1" fill="red"/>
<circle cx="90" cy="75.9744" r="1" fill="red"/>
<circle cx="90" cy="76.0922" r="1" fill="red"/>
<circle cx="90" cy="76.2791" r="1" fill="red"/>
<circle cx="90" cy="76.6591" r="1" fill="red"/>
<circle cx="90" cy="78.4933" r="1" fill="red"/>
<circle cx="90" cy="78.7452" r="1" fill="red"/>
<circle cx="91" cy="77.6391" r="1" fill="red"/>
<circle cx="91.4236" cy="89.1415" r="1" fill="red"/>
<circle cx="92.0669" cy="21.0084" r="1" fill="red"/>
<circle cx="93" cy="76.2945" r="1" fill="red"/>
<circle cx="93" cy="76.3944" r="1" fill="red"/>
<circle cx="93" cy="77.2052" r="1" fill="red"/>
<circle cx="93" cy="77.6519" r="1" fill="red"/>
<circle cx="93" cy="77.8275" r="1" fill="red"/>
<circle cx="93.147" cy="31.0044" r="1" fill="red"/>
<circle cx="94.0341" cy="53.9932" r="1" fill="red"/>
<circle cx="94.2752" cy="49.1401" r="1" fill="red"/>
<circle cx="94.7402" cy="21.8202" r="1" fill="red"/>
<circle cx="94.9691" cy="99.2382" r="1" fill="red"/>
<circle cx="95" cy="79.8903" r="1" fill="red"/>
<circle cx="97" cy="80.5053" r="1" fill="red"/>
<circle cx="97" cy="81.8614" r="1" fill="red"/>
<circle cx="98" cy="77.4856" r="1" fill="red"/>
<circle cx="98" cy="78.1231" r="1" fill="red"/>
<circle cx="98" cy="80.4455" r="1" fill="red"/>
<circle cx="98" cy="81.9978" r="1" fill="red"/>
<circle cx="98.7894" cy="51.3553" r="1" fill="red"/>
<circle cx="99" cy="79.2065" r="1" fill="red"/>
<circle cx="99" cy="82.9709" r="1" fill="red"/>
<circle cx="99.1335" cy="50.749" r="1" fill="red"/>
</svg>