<?xml version="1.0" standalone="yes"?>
<!-- SVG graphic -->
<svg xmlns='http://www.w3.org/2000/svg' xmlns:xlink='http://www.w3.org/1999/xlink'
width="100px" height="100px" preserveAspectRatio="xMinYMin meet" viewBox="0 0 100 100" version="1.1">
<circle cx="0" cy="47.3983" r="1" fill="green"/>
<circle cx="0" cy="48.7674" r="1" fill="green"/>
<circle cx="0" cy="58.1772" r="1" fill="red"/>
<circle cx="0.298574" cy="21.9467" r="1" fill="red"/>
<circle cx="1" cy="45.1203" r="1" fill="green"/>
<circle cx="1" cy="47.0642" r="1" fill="green"/>
<circle cx="1" cy="49.8716" r="1" fill="green"/>
<circle cx="1.74019" cy="25.8202" r="1" fill="red"/>
<circle cx="2" cy="46.3781" r="1" fill="green"/>
<circle cx="2" cy="48.2012" r="1" fill="green"/>
<circle cx="2" cy="52.227" r="1" fill="green"/>
<circle cx="2.6991" cy="87.0072" r="1" fill="red"/>
<circle cx="3.88585" cy="72.3983" r="1" fill="red"/>
<circle cx="3.8957" cy="22.8222" r="1" fill="red"/>
<circle cx="6" cy="51.7695" r="1" fill="green"/>
<circle cx="6" cy="53.7513" r="1" fill="green"/>
<circle cx="6" cy="54.0893" r="1" fill="green"/>
<circle cx="6" cy="58.7035" r="1" fill="green"/>
<circle cx="6.08002" cy="68.0878" r="1" fill="red"/>
<circle cx="7" cy="50.8662" r="1" fill="green"/>
<circle cx="7" cy="51.0468" r="1" fill="green"/>
<circle cx="8" cy="49.2944" r="1" fill="green"/>
<circle cx="8" cy="51.0653" r="1" fill="green"/>
<circle cx="8" cy="52.9336" r="1" fill="green"/>
<circle cx="8.06371" cy="87.0518" r="1" fill="red"/>
<circle cx="9" cy="53.5502" r="1" fill="green"/>
<circle cx="9.117" cy="9.13692" r="1" fill="red"/>
<circle cx="9.38018" cy="86.8587" r="1" fill="red"/>
<circle cx="9.91765" cy="2.22558" r="1" fill="red"/>
<circle cx="10" cy="52.5225" r="1" fill="green"/>
<circle cx="10" cy="53.0366" r="1" fill="green"/>
<circle cx="10" cy="56.5131" r="1" fill="green"/>
<circle cx="10" cy="57.6761" r="1" fill="green"/>
<circle cx="10" cy="60.8782" r="1" fill="red"/>
<circle cx="11" cy="49.0957" r="1" fill="green"/>
<circle cx="11" cy="52.4743" r="1" fill="green"/>
<circle cx="11" cy="58.8205" r="1" fill="green"/>
<circle cx="11.0669" cy="69.0084" r="1" fill="red"/>
<circle cx="12" cy="53.8574" r="1" fill="green"/>
<circle cx="12" cy="56.8522" r="1" fill="green"/>
<circle cx="13" cy="55.9586" r="1" fill="green"/>
<circle cx="13" cy="51.0547" r="1" fill="green"/>
<circle cx="13" cy="58.2629" r="1" fill="green"/>
<circle cx="13.0244" cy="34.8013" r="1" fill="red"/>
<circle cx="14" cy="48.4424" r="1" fill="green"/>
<circle cx="14" cy="53.3665" r="1" fill="green"/>
<circle cx="14" cy="57.2833" r="1" fill="green"/>
<circle cx="14.4236" cy="62.1415" r="1" fill="red"/>
<circle cx="15" cy="59.1807" r="1" fill="green"/>
<circle cx="15.8659" cy="75.8433" r="1" fill="red"/>
<circle cx="16" cy="56.5296" r="1" fill="green"/>
<circle cx="17" cy="58.4959" r="1" fill="green"/>
<circle cx="17.8256" cy="72.1564" r="1" fill="red"/>
<circle cx="18" cy="52.2078" r="1" fill="green"/>
<circle cx="18" cy="52.8964" r="1" fill="green"/>
<circle cx="18" cy="56.0689" r="1" fill="green"/>
<circle cx="18" cy="59.1333" r="1" fill="green"/>
<circle cx="19" cy="53.7733" r="1" fill="green"/>
<circle cx="19" cy="56.179" r="1" fill="green"/>
<circle cx="19" cy="57.3592" r="1" fill="green"/>
<circle cx="19.1335" cy="24.749" r="1" fill="red"/>
<circle cx="20.1295" cy="45.9296" r="1" fill="red"/>
<circle cx="20.253" cy="73.9952" r="1" fill="red"/>
<circle cx="21" cy="53.9057" r="1" fill="green"/>
<circle cx="23" cy="49.8717" r="1" fill="red"/>
<circle cx="23" cy="55.6459" r="1" fill="green"/>
<circle cx="24" cy="51.6668" r="1" fill="green"/>
<circle cx="24" cy="55.4951" r="1" fill="green"/>
<circle cx="24" cy="59.5212" r="1" fill="green"/>
<circle cx="24" cy="61.0818" r="1" fill="green"/>
<circle cx="24" cy="63.2802" r="1" fill="green"/>
<circle cx="24.1641" cy="5.93475" r="1" fill="red"/>
<circle cx="25" cy="59.3054" r="1" fill="green"/>
<circle cx="25.7805" cy="2.95285" r="1" fill="red"/>
<circle cx="25.8997" cy="86.1321" r="1" fill="red"/>
<circle cx="26" cy="58.6476" r="1" fill="green"/>
<circle cx="27.8924" cy="24.1629" r="1" fill="red"/>
<circle cx="28" cy="55.9406" r="1" fill="green"/>
<circle cx="28" cy="57.5663" r="1" fill="green"/>
<circle cx="28" cy="57.8478" r="1" fill="green"/>
<circle cx="28" cy="58.2731" r="1" fill="green"/>
<circle cx="28" cy="61.8758" r="1" fill="green"/>
<circle cx="28.4139" cy="76.0942" r="1" fill="red"/>
<circle cx="28.7081" cy="31.3121" r="1" fill="red"/>
<circle cx="29" cy="50.8394" r="1" fill="red"/>
<circle cx="29" cy="52.9317" r="1" fill="red"/>
<circle cx="29" cy="60.3581" r="1" fill="green"/>
<circle cx="29.1664" cy="63.7821" r="1" fill="green"/>
<circle cx="31" cy="62.0963" r="1" fill="green"/>
<circle cx="31.9002" cy="88.0878" r="1" fill="red"/>
<circle cx="32.08" cy="31.2532" r="1" fill="red"/>
<circle cx="33" cy="56.9673" r="1" fill="green"/>
<circle cx="33" cy="60.7433" r="1" fill="green"/>
<circle cx="33" cy="61.4462" r="1" fill="green"/>
<circle cx="34" cy="59.0384" r="1" fill="green"/>
<circle cx="34.9762" cy="96.1765" r="1" fill="red"/>
<circle cx="35" cy="61.4154" r="1" fill="green"/>
<circle cx="35" cy="67.4293" r="1" fill="green"/>
<circle cx="37" cy="57.1568" r="1" fill="green"/>
<circle cx="37" cy="59.4528" r="1" fill="green"/>
<circle cx="37" cy="61.1948" r="1" fill="green"/>
<circle cx="37" cy="61.2116" r="1" fill="green"/>
<circle cx="37.8611" cy="58.1609" r="1" fill="green"/>
<circle cx="38" cy="58.9703" r="1" fill="green"/>
<circle cx="38" cy="59.2673" r="1" fill="green"/>
<circle cx="38" cy="61.4818" r="1" fill="green"/>
<circle cx="39" cy="65.4829" r="1" fill="green"/>
<circle cx="39.3285" cy="18.9442" r="1" fill="red"/>
<circle cx="39.83" cy="71.0001" r="1" fill="red"/>
<circle cx="40" cy="67.8042" r="1" fill="green"/>
<circle cx="40.0997" cy="50.8376" r="1" fill="red"/>
<circle cx="41" cy="58.2041" r="1" fill="green"/>
<circle cx="41" cy="59.3414" r="1" fill="green"/>
<circle cx="41" cy="61.8702" r="1" fill="green"/>
<circle cx="41" cy="64.6035" r="1" fill="green"/>
<circle cx="41.1765" cy="26.425" r="1" fill="red"/>
<circle cx="42" cy="62.1614" r="1" fill="green"/>
<circle cx="42" cy="65.745" r="1" fill="green"/>
<circle cx="42" cy="65.9981" r="1" fill="green"/>
<circle cx="42" cy="67.1109" r="1" fill="green"/>
<circle cx="42.1084" cy="91.8123" r="1" fill="red"/>
<circle cx="43" cy="60.1819" r="1" fill="green"/>
<circle cx="43" cy="60.7397" r="1" fill="green"/>
<circle cx="43.2211" cy="86.2781" r="1" fill="red"/>
<circle cx="43.7351" cy="5.67187" r="1" fill="red"/>
<circle cx="44" cy="57.8795" r="1" fill="green"/>
<circle cx="44" cy="59.3561" r="1" fill="green"/>
<circle cx="44" cy="68.0024" r="1" fill="green"/>
<circle cx="44" cy="68.2493" r="1" fill="green"/>
<circle cx="44" cy="69.7842" r="1" fill="green"/>
<circle cx="44.0219" cy="93.8181" r="1" fill="red"/>
<circle cx="45" cy="58.8733" r="1" fill="green"/>
<circle cx="45.9441" cy="27.6059" r="1" fill="red"/>
<circle cx="45.9691" cy="39.2382" r="1" fill="red"/>
<circle cx="46" cy="61.3637" r="1" fill="green"/>
<circle cx="46" cy="61.5573" r="1" fill="green"/>
<circle cx="46" cy="65.2946" r="1" fill="green"/>
<circle cx="46" cy="66.5022" r="1" fill="green"/>
<circle cx="47" cy="67.712" r="1" fill="green"/>
<circle cx="47.147" cy="54.0044" r="1" fill="red"/>
<circle cx="47.2029" cy="66.8938" r="1" fill="green"/>
<circle cx="48" cy="61.387" r="1" fill="green"/>
<circle cx="48.2024" cy="53.746" r="1" fill="red"/>
<circle cx="48.3595" cy="41.8932" r="1" fill="red"/>
<circle cx="48.9616" cy="57.6591" r="1" fill="red"/>
<circle cx="49" cy="66.2532" r="1" fill="green"/>
<circle cx="49" cy="68.7597" r="1" fill="green"/>
<circle cx="49.7621" cy="72.2718" r="1" fill="green"/>
<circle cx="49.9611" cy="47.8411" r="1" fill="red"/>
<circle cx="49.986" cy="54.9263" r="1" fill="red"/>
<circle cx="50" cy="60.9852" r="1" fill="green"/>
<circle cx="50" cy="61.1256" r="1" fill="green"/>
<circle cx="50" cy="64.8187" r="1" fill="green"/>
<circle cx="50" cy="68.4198" r="1" fill="green"/>
<circle cx="51" cy="64.2777" r="1" fill="green"/>
<circle cx="51" cy="64.8318" r="1" fill="green"/>
<circle cx="51" cy="71.541" r="1" fill="green"/>
<circle cx="51.0341" cy="71.9932" r="1" fill="green"/>
<circle cx="52" cy="60.8139" r="1" fill="green"/>
<circle cx="52" cy="66.2739" r="1" fill="green"/>
<circle cx="53" cy="62.8105" r="1" fill="green"/>
<circle cx="53" cy="65.1445" r="1" fill="green"/>
<circle cx="53" cy="67.0828" r="1" fill="green"/>
<circle cx="53" cy="69.7474" r="1" fill="green"/>
<circle cx="53.1806" cy="74.9741" r="1" fill="red"/>
<circle cx="54" cy="63.7068" r="1" fill="green"/>
<circle cx="54" cy="64.0619" r="1" fill="green"/>
<circle cx="54.1067" cy="8.22213" r="1" fill="red"/>
<circle cx="55" cy="65.2932" r="1" fill="green"/>
<circle cx="55" cy="68.3011" r="1" fill="green"/>
<circle cx="55" cy="69.4015" r="1" fill="green"/>
<circle cx="55" cy="72.9945" r="1" fill="green"/>
<circle cx="56" cy="65.2599" r="1" fill="green"/>
<circle cx="56" cy="68.7445" r="1" fill="green"/>
<circle cx="56" cy="68.7453" r="1" fill="green"/>
<circle cx="56" cy="68.9644" r="1" fill="green"/>
<circle cx="56" cy="74.3165" r="1" fill="green"/>
<circle cx="56.9406" cy="31.9071" r="1" fill="red"/>
<circle cx="57" cy="62.7442" r="1" fill="green"/>
<circle cx="57" cy="65.8541" r="1" fill="green"/>
<circle cx="58" cy="57.9399" r="1" fill="red"/>
<circle cx="58" cy="61.8918" r="1" fill="red"/>
<circle cx="58" cy="64.9624" r="1" fill="green"/>
<circle cx="58.276" cy="14.1056" r="1" fill="red"/>
<circle cx="59" cy="71.8576" r="1" fill="green"/>
<circle cx="59" cy="72.2789" r="1" fill="green"/>
<circle cx="59.027" cy="25.8367" r="1" fill="red"/>
<circle cx="59.0891" cy="49.7413" r="1" fill="red"/>
<circle cx="60" cy="69.5185" r="1" fill="green"/>
<circle cx="61" cy="64.929" r="1" fill="green"/>
<circle cx="62" cy="66.8191" r="1" fill="green"/>
<circle cx="62.3195" cy="43.9383" r="1" fill="red"/>
<circle cx="63" cy="64.8862" r="1" fill="green"/>
<circle cx="63" cy="69.201" r="1" fill="green"/>
<circle cx="63.2752" cy="15.1401" r="1" fill="red"/>
<circle cx="63.9146" cy="88.2228" r="1" fill="red"/>
<circle cx="64" cy="66.881" r="1" fill="green"/>
<circle cx="64" cy="66.9305" r="1" fill="green"/>
<circle cx="65" cy="71.0888" r="1" fill="green"/>
<circle cx="65.2523" cy="99.0819" r="1" fill="red"/>
<circle cx="67" cy="72.0111" r="1" fill="green"/>
<circle cx="67.0488" cy="58.1121" r="1" fill="red"/>
<circle cx="67.6647" cy="19.012" r="1" fill="red"/>
<circle cx="67.9727" cy="80.9538" r="1" fill="red"/>
<circle cx="68.9624" cy="98.1327" r="1" fill="red"/>
<circle cx="68.9638" cy="76.9253" r="1" fill="green"/>
<circle cx="69" cy="74.1788" r="1" fill="green"/>
<circle cx="69.8096" cy="28.2145" r="1" fill="red"/>
<circle cx="70" cy="65.5875" r="1" fill="red"/>
<circle cx="70.1577" cy="7.05908" r="1" fill="red"/>
<circle cx="71" cy="68.007" r="1" fill="green"/>
<circle cx="71" cy="71.3728" r="1" fill="green"/>
<circle cx="71" cy="75.2326" r="1" fill="green"/>
<circle cx="72" cy="64.0962" r="1" fill="red"/>
<circle cx="72" cy="74.2136" r="1" fill="green"/>
<circle cx="74" cy="73.1297" r="1" fill="green"/>
<circle cx="75" cy="71.0613" r="1" fill="green"/>
<circle cx="75.9587" cy="30.0667" r="1" fill="red"/>
<circle cx="76.2318" cy="56.9676" r="1" fill="red"/>
<circle cx="77" cy="70.9688" r="1" fill="green"/>
<circle cx="77.7894" cy="22.3553" r="1" fill="red"/>
<circle cx="78" cy="72.5478" r="1" fill="green"/>
<circle cx="78" cy="75.358" r="1" fill="green"/>
<circle cx="79" cy="69.7211" r="1" fill="green"/>
<circle cx="79.8563" cy="22.5164" r="1" fill="red"/>
<circle cx="79.9814" cy="95.0698" r="1" fill="red"/>
<circle cx="80" cy="70.9846" r="1" fill="green"/>
<circle cx="80" cy="71.6087" r="1" fill="green"/>
<circle cx="80" cy="72.864" r="1" fill="green"/>
<circle cx="80" cy="76.7098" r="1" fill="green"/>
<circle cx="80" cy="76.9246" r="1" fill="green"/>
<circle cx="81" cy="69.4614" r="1" fill="green"/>
<circle cx="81" cy="72.7219" r="1" fill="green"/>
<circle cx="81" cy="73.3228" r="1" fill="green"/>
<circle cx="82" cy="74.4853" r="1" fill="green"/>
<circle cx="82" cy="76.4126" r="1" fill="green"/>
<circle cx="82" cy="77.4407" r="1" fill="green"/>
<circle cx="83" cy="69.5425" r="1" fill="red"/>
<circle cx="83" cy="72.1903" r="1" fill="green"/>
<circle cx="83" cy="74.7531" r="1" fill="green"/>
<circle cx="83" cy="76.8428" r="1" fill="green"/>
<circle cx="83.9378" cy="82.231" r="1" fill="green"/>
<circle cx="84" cy="73.0331" r="1" fill="green"/>
<circle cx="84" cy="76.5336" r="1" fill="green"/>
<circle cx="84.1048" cy="59.2004" r="1" fill="red"/>
<circle cx="85" cy="71.8344" r="1" fill="green"/>
<circle cx="85" cy="74.8798" r="1" fill="green"/>
<circle cx="85.8214" cy="70.9885" r="1" fill="green"/>
<circle cx="86" cy="73.5334" r="1" fill="green"/>
<circle cx="86" cy="76.988" r="1" fill="green"/>
<circle cx="86" cy="77.8501" r="1" fill="green"/>
<circle cx="86" cy="81.4346" r="1" fill="green"/>
<circle cx="87" cy="77.474" r="1" fill="green"/>
<circle cx="87.4306" cy="60.6987" r="1" fill="red"/>
<circle cx="87.6709" cy="76.9066" r="1" fill="green"/>
<circle cx="88" cy="75.3394" r="1" fill="green"/>
<circle cx="89" cy="68.9449" r="1" fill="red"/>
<circle cx="89" cy="80.0906" r="1" fill="green"/>
<circle cx="89" cy="81.188" r="1" fill="green"/>
<circle cx="89" cy="83.1757" r="1" fill="green"/>
<circle cx="89.1432" cy="88.7471" r="1" fill="red"/>
<circle cx="91" cy="85.9918" r="1" fill="red"/>
<circle cx="91.831" cy="18.1614" r="1" fill="red"/>
<circle cx="92" cy="73.7984" r="1" fill="green"/>
<circle cx="92.8824" cy="48.8203" r="1" fill="red"/>
<circle cx="92.8951" cy="8.70904" r="1" fill="red"/>
<circle cx="94" cy="74.6657" r="1" fill="green"/>
<circle cx="94" cy="78.1453" r="1" fill="green"/>
<circle cx="94" cy="79.5845" r="1" fill="green"/>
<circle cx="94" cy="81.7157" r="1" fill="green"/>
<circle cx="94.2208" cy="38.9898" r="1" fill="red"/>
<circle cx="95" cy="75.0651" r="1" fill="green"/>
<circle cx="96" cy="74.4862" r="1" fill="green"/>
<circle cx="96" cy="77.2481" r="1" fill="green"/>
<circle cx="96" cy="77.8033" r="1" fill="green"/>
<circle cx="97.4826" cy="86.1878" r="1" fill="green"/>
<circle cx="98" cy="77.6629" r="1" fill="green"/>
<circle cx="98.0299" cy="56.1912" r="1" fill="red"/>
<circle cx="98.8609" cy="3.79574" r="1" fill="red"/>
<circle cx="99" cy="75.3545" r="1" fill="green"/>
<circle cx="99" cy="76.3303" r="1" fill="green"/>
<circle cx="99" cy="76.4194" r="1" fill="green"/>
<polyline points="0,50.4205,100,81.8344" stroke="blue" stroke-width="0.5" fill="none"/>
</svg>