<?xml version="1.0" standalone="yes"?>
<!-- SVG graphic -->
<svg xmlns='http://www.w3.org/2000/svg' xmlns:xlink='http://www.w3.org/1999/xlink'
width="100px" height="100px" preserveAspectRatio="xMinYMin meet" viewBox="0 0 100 100" version="1.1">
<circle cx="0" cy="43.6793" r="1" fill="red"/>
<circle cx="0" cy="48.8491" r="1" fill="red"/>
<circle cx="0" cy="51.3265" r="1" fill="red"/>
<circle cx="0" cy="51.5562" r="1" fill="red"/>
<circle cx="0.972741" cy="50.9538" r="1" fill="red"/>
<circle cx="1" cy="46.1385" r="1" fill="red"/>
<circle cx="1" cy="48.5951" r="1" fill="red"/>
<circle cx="2" cy="47.2769" r="1" fill="red"/>
<circle cx="2" cy="48.65" r="1" fill="red"/>
<circle cx="2" cy="50.086" r="1" fill="red"/>
<circle cx="2" cy="56.6132" r="1" fill="red"/>
<circle cx="2.29857" cy="59.9467" r="1" fill="red"/>
<circle cx="3" cy="50.1182" r="1" fill="red"/>
<circle cx="3.78051" cy="25.9528" r="1" fill="red"/>
<circle cx="4" cy="54.5482" r="1" fill="red"/>
<circle cx="4.88242" cy="45.8203" r="1" fill="red"/>
<circle cx="5" cy="50.1015" r="1" fill="red"/>
<circle cx="5" cy="51.3825" r="1" fill="red"/>
<circle cx="5" cy="53.1401" r="1" fill="red"/>
<circle cx="5.90024" cy="89.0878" r="1" fill="red"/>
<circle cx="6" cy="47.47" r="1" fill="red"/>
<circle cx="6.986" cy="52.9263" r="1" fill="red"/>
<circle cx="7" cy="44.8836" r="1" fill="red"/>
<circle cx="7" cy="49.6155" r="1" fill="red"/>
<circle cx="7" cy="52.1192" r="1" fill="red"/>
<circle cx="8" cy="50.2255" r="1" fill="red"/>
<circle cx="8" cy="50.3971" r="1" fill="red"/>
<circle cx="8.0669" cy="82.0084" r="1" fill="red"/>
<circle cx="9" cy="53.8956" r="1" fill="red"/>
<circle cx="10" cy="51.7375" r="1" fill="red"/>
<circle cx="10" cy="52.6491" r="1" fill="red"/>
<circle cx="10" cy="54.3273" r="1" fill="red"/>
<circle cx="10" cy="56.766" r="1" fill="red"/>
<circle cx="10.1765" cy="63.425" r="1" fill="red"/>
<circle cx="11" cy="51.4448" r="1" fill="red"/>
<circle cx="12.7081" cy="28.3121" r="1" fill="red"/>
<circle cx="13.0891" cy="61.7413" r="1" fill="red"/>
<circle cx="13.2029" cy="66.8938" r="1" fill="red"/>
<circle cx="13.9146" cy="87.2228" r="1" fill="red"/>
<circle cx="14" cy="51.3093" r="1" fill="red"/>
<circle cx="14" cy="51.5656" r="1" fill="red"/>
<circle cx="14.1664" cy="95.7821" r="1" fill="red"/>
<circle cx="15" cy="52.4187" r="1" fill="red"/>
<circle cx="16" cy="54.5532" r="1" fill="red"/>
<circle cx="16" cy="56.9678" r="1" fill="red"/>
<circle cx="16" cy="60.3228" r="1" fill="red"/>
<circle cx="17" cy="54.5157" r="1" fill="red"/>
<circle cx="17" cy="56.669" r="1" fill="red"/>
<circle cx="17" cy="57.8358" r="1" fill="red"/>
<circle cx="17" cy="58.504" r="1" fill="red"/>
<circle cx="18" cy="58.4779" r="1" fill="red"/>
<circle cx="18.3285" cy="59.9442" r="1" fill="red"/>
<circle cx="20" cy="54.051" r="1" fill="red"/>
<circle cx="20" cy="54.9322" r="1" fill="red"/>
<circle cx="20" cy="55.0139" r="1" fill="red"/>
<circle cx="20" cy="55.5583" r="1" fill="red"/>
<circle cx="20" cy="55.8549" r="1" fill="red"/>
<circle cx="21" cy="55.918" r="1" fill="red"/>
<circle cx="22" cy="55.1753" r="1" fill="red"/>
<circle cx="22" cy="55.613" r="1" fill="red"/>
<circle cx="23" cy="53.8888" r="1" fill="red"/>
<circle cx="23" cy="58.3409" r="1" fill="red"/>
<circle cx="24" cy="53.9881" r="1" fill="red"/>
<circle cx="25" cy="53.3562" r="1" fill="red"/>
<circle cx="25" cy="55.6844" r="1" fill="red"/>
<circle cx="25" cy="60.1084" r="1" fill="red"/>
<circle cx="25" cy="60.2125" r="1" fill="red"/>
<circle cx="26" cy="56.4405" r="1" fill="red"/>
<circle cx="26" cy="59.5315" r="1" fill="red"/>
<circle cx="26.2523" cy="1.08192" r="1" fill="red"/>
<circle cx="27" cy="55.6284" r="1" fill="red"/>
<circle cx="27" cy="63.2805" r="1" fill="red"/>
<circle cx="27.9691" cy="78.2382" r="1" fill="red"/>
<circle cx="28" cy="55.9877" r="1" fill="red"/>
<circle cx="28" cy="57.5574" r="1" fill="red"/>
<circle cx="28" cy="61.5055" r="1" fill="red"/>
<circle cx="28" cy="62.2159" r="1" fill="red"/>
<circle cx="28.8951" cy="34.709" r="1" fill="red"/>
<circle cx="29.9611" cy="53.8411" r="1" fill="red"/>
<circle cx="30" cy="53.4564" r="1" fill="red"/>
<circle cx="31" cy="57.5938" r="1" fill="red"/>
<circle cx="31" cy="60.8542" r="1" fill="red"/>
<circle cx="31" cy="61.6212" r="1" fill="red"/>
<circle cx="32" cy="60.7076" r="1" fill="red"/>
<circle cx="32" cy="63.6395" r="1" fill="red"/>
<circle cx="32.8924" cy="58.1629" r="1" fill="red"/>
<circle cx="33" cy="56.8005" r="1" fill="red"/>
<circle cx="33" cy="58.0738" r="1" fill="red"/>
<circle cx="33" cy="58.093" r="1" fill="red"/>
<circle cx="33" cy="59.4774" r="1" fill="red"/>
<circle cx="34" cy="57.0203" r="1" fill="red"/>
<circle cx="34" cy="59.3822" r="1" fill="red"/>
<circle cx="34" cy="59.8255" r="1" fill="red"/>
<circle cx="35" cy="57.6726" r="1" fill="red"/>
<circle cx="35" cy="64.9813" r="1" fill="red"/>
<circle cx="35" cy="66.0434" r="1" fill="red"/>
<circle cx="36" cy="58.6438" r="1" fill="red"/>
<circle cx="36" cy="60.8759" r="1" fill="red"/>
<circle cx="36" cy="60.8893" r="1" fill="red"/>
<circle cx="36" cy="61.7683" r="1" fill="red"/>
<circle cx="36" cy="65.2164" r="1" fill="red"/>
<circle cx="37" cy="55.4774" r="1" fill="red"/>
<circle cx="37" cy="63.2616" r="1" fill="red"/>
<circle cx="37" cy="64.426" r="1" fill="red"/>
<circle cx="37.7894" cy="23.3553" r="1" fill="red"/>
<circle cx="37.9176" cy="0.225584" r="1" fill="red"/>
<circle cx="38" cy="26.9586" r="1" fill="red"/>
<circle cx="38" cy="55.1115" r="1" fill="red"/>
<circle cx="38" cy="57.5711" r="1" fill="red"/>
<circle cx="38" cy="60.1679" r="1" fill="red"/>
<circle cx="39" cy="58.3365" r="1" fill="red"/>
<circle cx="39" cy="64.6615" r="1" fill="red"/>
<circle cx="39" cy="64.6866" r="1" fill="red"/>
<circle cx="39" cy="65.8582" r="1" fill="red"/>
<circle cx="40" cy="62.9504" r="1" fill="red"/>
<circle cx="41" cy="62.6832" r="1" fill="red"/>
<circle cx="41" cy="62.9801" r="1" fill="red"/>
<circle cx="42" cy="59.5587" r="1" fill="red"/>
<circle cx="42" cy="63.6992" r="1" fill="red"/>
<circle cx="42" cy="67.5928" r="1" fill="red"/>
<circle cx="42.1806" cy="33.9741" r="1" fill="red"/>
<circle cx="42.8096" cy="12.2145" r="1" fill="red"/>
<circle cx="43" cy="67.5434" r="1" fill="red"/>
<circle cx="43.9441" cy="9.6059" r="1" fill="red"/>
<circle cx="44" cy="58.5939" r="1" fill="red"/>
<circle cx="44.2211" cy="34.2781" r="1" fill="red"/>
<circle cx="44.8957" cy="24.8222" r="1" fill="red"/>
<circle cx="45" cy="65.7725" r="1" fill="red"/>
<circle cx="46" cy="60.349" r="1" fill="red"/>
<circle cx="46" cy="64.3351" r="1" fill="red"/>
<circle cx="46" cy="66.5037" r="1" fill="red"/>
<circle cx="47" cy="61.4756" r="1" fill="red"/>
<circle cx="47" cy="62.7822" r="1" fill="red"/>
<circle cx="47" cy="63.096" r="1" fill="red"/>
<circle cx="47" cy="63.4332" r="1" fill="red"/>
<circle cx="47.4236" cy="48.1415" r="1" fill="red"/>
<circle cx="48" cy="59.9934" r="1" fill="red"/>
<circle cx="48" cy="60.9153" r="1" fill="red"/>
<circle cx="49" cy="65.8417" r="1" fill="red"/>
<circle cx="49" cy="67.8632" r="1" fill="red"/>
<circle cx="49.117" cy="7.13692" r="1" fill="red"/>
<circle cx="50" cy="63.081" r="1" fill="red"/>
<circle cx="50.1432" cy="61.7471" r="1" fill="red"/>
<circle cx="50.8659" cy="23.8433" r="1" fill="red"/>
<circle cx="51" cy="62.9331" r="1" fill="red"/>
<circle cx="51" cy="63.3316" r="1" fill="red"/>
<circle cx="51.253" cy="90.9952" r="1" fill="red"/>
<circle cx="54" cy="65.573" r="1" fill="red"/>
<circle cx="54" cy="69.4477" r="1" fill="red"/>
<circle cx="55.6709" cy="9.90657" r="1" fill="red"/>
<circle cx="56" cy="63.8675" r="1" fill="red"/>
<circle cx="56.0637" cy="47.0518" r="1" fill="red"/>
<circle cx="57" cy="66.4394" r="1" fill="red"/>
<circle cx="57" cy="70.5903" r="1" fill="red"/>
<circle cx="57" cy="74.1782" r="1" fill="red"/>
<circle cx="57.2318" cy="35.9676" r="1" fill="red"/>
<circle cx="57.7621" cy="53.2718" r="1" fill="red"/>
<circle cx="58" cy="63.4702" r="1" fill="red"/>
<circle cx="58" cy="69.257" r="1" fill="red"/>
<circle cx="58" cy="71.242" r="1" fill="red"/>
<circle cx="58.08" cy="1.25319" r="1" fill="red"/>
<circle cx="58.8256" cy="27.1564" r="1" fill="red"/>
<circle cx="59" cy="65.1114" r="1" fill="red"/>
<circle cx="59.0244" cy="35.8013" r="1" fill="red"/>
<circle cx="60" cy="66.3001" r="1" fill="red"/>
<circle cx="60" cy="70.516" r="1" fill="red"/>
<circle cx="60" cy="72.8642" r="1" fill="red"/>
<circle cx="60.0341" cy="39.9932" r="1" fill="red"/>
<circle cx="60.8611" cy="35.1609" r="1" fill="red"/>
<circle cx="61" cy="64.014" r="1" fill="red"/>
<circle cx="61" cy="66.3845" r="1" fill="red"/>
<circle cx="61" cy="66.4917" r="1" fill="red"/>
<circle cx="61" cy="70.049" r="1" fill="red"/>
<circle cx="61" cy="71.1105" r="1" fill="red"/>
<circle cx="62" cy="67.1532" r="1" fill="red"/>
<circle cx="63" cy="71.5673" r="1" fill="red"/>
<circle cx="63" cy="72.0461" r="1" fill="red"/>
<circle cx="63.1295" cy="81.9296" r="1" fill="red"/>
<circle cx="63.4139" cy="4.09419" r="1" fill="red"/>
<circle cx="63.8997" cy="57.1321" r="1" fill="red"/>
<circle cx="63.9378" cy="79.231" r="1" fill="red"/>
<circle cx="64" cy="70.2408" r="1" fill="red"/>
<circle cx="64.9638" cy="31.9253" r="1" fill="red"/>
<circle cx="65" cy="71.6618" r="1" fill="red"/>
<circle cx="65" cy="72.1018" r="1" fill="red"/>
<circle cx="65.4826" cy="67.1878" r="1" fill="red"/>
<circle cx="66.1641" cy="89.9348" r="1" fill="red"/>
<circle cx="66.9814" cy="76.0698" r="1" fill="red"/>
<circle cx="67" cy="68.0487" r="1" fill="red"/>
<circle cx="67" cy="69.7561" r="1" fill="red"/>
<circle cx="67" cy="72.1458" r="1" fill="red"/>
<circle cx="68.6647" cy="11.012" r="1" fill="red"/>
<circle cx="69" cy="64.7138" r="1" fill="red"/>
<circle cx="69" cy="67.1044" r="1" fill="red"/>
<circle cx="69" cy="67.3225" r="1" fill="red"/>
<circle cx="69" cy="67.5169" r="1" fill="red"/>
<circle cx="69" cy="68.12" r="1" fill="red"/>
<circle cx="69" cy="68.7055" r="1" fill="red"/>
<circle cx="69" cy="73.0397" r="1" fill="red"/>
<circle cx="69.0219" cy="6.81811" r="1" fill="red"/>
<circle cx="69.1067" cy="81.2221" r="1" fill="red"/>
<circle cx="69.1577" cy="36.0591" r="1" fill="red"/>
<circle cx="71.3195" cy="8.93833" r="1" fill="red"/>
<circle cx="72" cy="72.8711" r="1" fill="red"/>
<circle cx="72.2752" cy="65.1401" r="1" fill="red"/>
<circle cx="72.7351" cy="47.6719" r="1" fill="red"/>
<circle cx="73" cy="71.1026" r="1" fill="red"/>
<circle cx="74" cy="67.5853" r="1" fill="red"/>
<circle cx="74" cy="73.7289" r="1" fill="red"/>
<circle cx="74" cy="76.6492" r="1" fill="red"/>
<circle cx="74.8214" cy="49.9885" r="1" fill="red"/>
<circle cx="75" cy="72.1573" r="1" fill="red"/>
<circle cx="75.9762" cy="63.1765" r="1" fill="red"/>
<circle cx="76" cy="78.0674" r="1" fill="red"/>
<circle cx="76.147" cy="84.0044" r="1" fill="red"/>
<circle cx="76.831" cy="5.16144" r="1" fill="red"/>
<circle cx="77" cy="70.5179" r="1" fill="red"/>
<circle cx="77" cy="72.2515" r="1" fill="red"/>
<circle cx="77" cy="74.1373" r="1" fill="red"/>
<circle cx="78" cy="76.1806" r="1" fill="red"/>
<circle cx="80" cy="75.0803" r="1" fill="red"/>
<circle cx="80" cy="76.3502" r="1" fill="red"/>
<circle cx="80.8609" cy="25.7957" r="1" fill="red"/>
<circle cx="81" cy="71.089" r="1" fill="red"/>
<circle cx="82" cy="72.2539" r="1" fill="red"/>
<circle cx="82" cy="72.8058" r="1" fill="red"/>
<circle cx="82" cy="74.8059" r="1" fill="red"/>
<circle cx="82" cy="75.3438" r="1" fill="red"/>
<circle cx="82.1084" cy="54.8123" r="1" fill="red"/>
<circle cx="83.9406" cy="38.9071" r="1" fill="red"/>
<circle cx="84" cy="69.197" r="1" fill="red"/>
<circle cx="84" cy="74.3481" r="1" fill="red"/>
<circle cx="84.0299" cy="94.1912" r="1" fill="red"/>
<circle cx="84.2208" cy="2.98976" r="1" fill="red"/>
<circle cx="85" cy="71.8706" r="1" fill="red"/>
<circle cx="86" cy="72.6455" r="1" fill="red"/>
<circle cx="86" cy="74.4361" r="1" fill="red"/>
<circle cx="86" cy="75.7995" r="1" fill="red"/>
<circle cx="86" cy="77.0178" r="1" fill="red"/>
<circle cx="87" cy="75.1032" r="1" fill="red"/>
<circle cx="88" cy="76.3756" r="1" fill="red"/>
<circle cx="88" cy="81.4959" r="1" fill="red"/>
<circle cx="88.276" cy="35.1056" r="1" fill="red"/>
<circle cx="88.4306" cy="12.6987" r="1" fill="red"/>
<circle cx="88.6991" cy="54.0072" r="1" fill="red"/>
<circle cx="89" cy="74.8867" r="1" fill="red"/>
<circle cx="89" cy="74.9665" r="1" fill="red"/>
<circle cx="89.7402" cy="67.8202" r="1" fill="red"/>
<circle cx="90" cy="75.9967" r="1" fill="red"/>
<circle cx="90" cy="77.6747" r="1" fill="red"/>
<circle cx="90" cy="78.3837" r="1" fill="red"/>
<circle cx="90" cy="79.8126" r="1" fill="red"/>
<circle cx="90.0997" cy="34.8376" r="1" fill="red"/>
<circle cx="90.3802" cy="7.85869" r="1" fill="red"/>
<circle cx="92" cy="73.3436" r="1" fill="red"/>
<circle cx="92" cy="77.3754" r="1" fill="red"/>
<circle cx="92" cy="79.6909" r="1" fill="red"/>
<circle cx="92.2024" cy="30.746" r="1" fill="red"/>
<circle cx="92.9616" cy="54.6591" r="1" fill="red"/>
<circle cx="93" cy="76.6584" r="1" fill="red"/>
<circle cx="93.027" cy="33.8367" r="1" fill="red"/>
<circle cx="94" cy="75.7896" r="1" fill="red"/>
<circle cx="94" cy="76.4717" r="1" fill="red"/>
<circle cx="94" cy="81.7904" r="1" fill="red"/>
<circle cx="94" cy="81.8631" r="1" fill="red"/>
<circle cx="94.0488" cy="66.1121" r="1" fill="red"/>
<circle cx="94.83" cy="33.0001" r="1" fill="red"/>
<circle cx="94.8563" cy="90.5164" r="1" fill="red"/>
<circle cx="94.8858" cy="1.39828" r="1" fill="red"/>
<circle cx="94.9587" cy="26.0667" r="1" fill="red"/>
<circle cx="94.9624" cy="90.1327" r="1" fill="red"/>
<circle cx="95" cy="78.4562" r="1" fill="red"/>
<circle cx="95" cy="80.061" r="1" fill="red"/>
<circle cx="95.1335" cy="9.74896" r="1" fill="red"/>
<circle cx="96" cy="74.3735" r="1" fill="red"/>
<circle cx="96.3595" cy="50.8932" r="1" fill="red"/>
<circle cx="97" cy="76.3521" r="1" fill="red"/>
<circle cx="97" cy="81.8185" r="1" fill="red"/>
<circle cx="99" cy="77.1462" r="1" fill="red"/>
<circle cx="99" cy="79.033" r="1" fill="red"/>
<circle cx="99.08" cy="41.0878" r="1" fill="red"/>
<circle cx="99.1048" cy="28.2004" r="1" fill="red"/>
</svg>