<?xml version="1.0" standalone="yes"?>
<!-- SVG graphic -->
<svg xmlns='http://www.w3.org/2000/svg' xmlns:xlink='http://www.w3.org/1999/xlink'
width="100px" height="100px" preserveAspectRatio="xMinYMin meet" viewBox="0 0 100 100" version="1.1">
<circle cx="0" cy="48.3105" r="1" fill="green"/>
<circle cx="0.809583" cy="92.2145" r="1" fill="red"/>
<circle cx="1" cy="50.0944" r="1" fill="green"/>
<circle cx="1" cy="57.5769" r="1" fill="green"/>
<circle cx="2" cy="50.6336" r="1" fill="green"/>
<circle cx="2" cy="50.6512" r="1" fill="green"/>
<circle cx="2.14322" cy="65.7471" r="1" fill="red"/>
<circle cx="3.15774" cy="12.0591" r="1" fill="red"/>
<circle cx="4" cy="46.558" r="1" fill="green"/>
<circle cx="4" cy="50.0328" r="1" fill="green"/>
<circle cx="4" cy="54.9937" r="1" fill="green"/>
<circle cx="4" cy="55.603" r="1" fill="green"/>
<circle cx="4.04877" cy="96.1121" r="1" fill="red"/>
<circle cx="5" cy="59.286" r="1" fill="green"/>
<circle cx="5" cy="60.0123" r="1" fill="green"/>
<circle cx="6" cy="44.0885" r="1" fill="green"/>
<circle cx="6" cy="50.644" r="1" fill="green"/>
<circle cx="6.8924" cy="71.1629" r="1" fill="red"/>
<circle cx="7" cy="39.4713" r="1" fill="red"/>
<circle cx="7" cy="51.2317" r="1" fill="green"/>
<circle cx="7.48261" cy="0.187773" r="1" fill="red"/>
<circle cx="8" cy="51.627" r="1" fill="green"/>
<circle cx="8" cy="55.1458" r="1" fill="green"/>
<circle cx="8.18058" cy="46.9741" r="1" fill="green"/>
<circle cx="8.32851" cy="51.9442" r="1" fill="green"/>
<circle cx="9" cy="59.7691" r="1" fill="green"/>
<circle cx="9.08" cy="54.2532" r="1" fill="green"/>
<circle cx="10.08" cy="49.0878" r="1" fill="green"/>
<circle cx="10.7805" cy="95.9529" r="1" fill="red"/>
<circle cx="10.83" cy="19.0001" r="1" fill="red"/>
<circle cx="11" cy="50.6793" r="1" fill="green"/>
<circle cx="12" cy="50.5755" r="1" fill="green"/>
<circle cx="12.2318" cy="75.9676" r="1" fill="red"/>
<circle cx="13" cy="52.8027" r="1" fill="green"/>
<circle cx="14" cy="47.7226" r="1" fill="green"/>
<circle cx="14" cy="53.1423" r="1" fill="green"/>
<circle cx="14" cy="59.3826" r="1" fill="green"/>
<circle cx="14.2986" cy="11.9467" r="1" fill="red"/>
<circle cx="15" cy="53.5237" r="1" fill="green"/>
<circle cx="15" cy="58.6128" r="1" fill="green"/>
<circle cx="16" cy="44.2947" r="1" fill="red"/>
<circle cx="16" cy="49.4778" r="1" fill="green"/>
<circle cx="16" cy="51.3874" r="1" fill="green"/>
<circle cx="16" cy="59.5543" r="1" fill="green"/>
<circle cx="16.3595" cy="68.8932" r="1" fill="red"/>
<circle cx="16.8858" cy="53.3983" r="1" fill="green"/>
<circle cx="17" cy="47.8484" r="1" fill="green"/>
<circle cx="18" cy="51.4166" r="1" fill="green"/>
<circle cx="18" cy="52.2042" r="1" fill="green"/>
<circle cx="18" cy="53.6429" r="1" fill="green"/>
<circle cx="18" cy="53.7737" r="1" fill="green"/>
<circle cx="18" cy="57.7228" r="1" fill="green"/>
<circle cx="18.1641" cy="-0.0652472" r="1" fill="red"/>
<circle cx="19" cy="58.7301" r="1" fill="green"/>
<circle cx="20" cy="48.5514" r="1" fill="green"/>
<circle cx="20.1295" cy="9.92964" r="1" fill="red"/>
<circle cx="21" cy="58.1671" r="1" fill="green"/>
<circle cx="21" cy="60.2769" r="1" fill="green"/>
<circle cx="22" cy="56.1681" r="1" fill="green"/>
<circle cx="22.0299" cy="43.1912" r="1" fill="red"/>
<circle cx="23" cy="53.7267" r="1" fill="green"/>
<circle cx="23" cy="57.0562" r="1" fill="green"/>
<circle cx="23" cy="58.8236" r="1" fill="green"/>
<circle cx="23" cy="59.6234" r="1" fill="green"/>
<circle cx="24" cy="57.1234" r="1" fill="green"/>
<circle cx="24" cy="61.7648" r="1" fill="green"/>
<circle cx="24" cy="63.8778" r="1" fill="green"/>
<circle cx="25" cy="51.4018" r="1" fill="green"/>
<circle cx="25" cy="56.4775" r="1" fill="green"/>
<circle cx="25" cy="63.1835" r="1" fill="green"/>
<circle cx="25.0244" cy="3.80133" r="1" fill="red"/>
<circle cx="25.7081" cy="19.3121" r="1" fill="red"/>
<circle cx="26" cy="50.4599" r="1" fill="green"/>
<circle cx="26" cy="59.798" r="1" fill="green"/>
<circle cx="26" cy="61.5831" r="1" fill="green"/>
<circle cx="26" cy="63.757" r="1" fill="green"/>
<circle cx="28" cy="51.1173" r="1" fill="green"/>
<circle cx="28" cy="60.4924" r="1" fill="green"/>
<circle cx="28" cy="63.9356" r="1" fill="green"/>
<circle cx="28.6647" cy="69.012" r="1" fill="red"/>
<circle cx="28.9587" cy="99.0667" r="1" fill="red"/>
<circle cx="29" cy="58.4681" r="1" fill="green"/>
<circle cx="29" cy="60.5154" r="1" fill="green"/>
<circle cx="29" cy="61.2276" r="1" fill="green"/>
<circle cx="30" cy="53.0893" r="1" fill="green"/>
<circle cx="30" cy="54.4072" r="1" fill="green"/>
<circle cx="30" cy="56.6132" r="1" fill="green"/>
<circle cx="30" cy="56.6208" r="1" fill="green"/>
<circle cx="30" cy="66.7287" r="1" fill="green"/>
<circle cx="31" cy="59.4019" r="1" fill="green"/>
<circle cx="31" cy="62.0412" r="1" fill="green"/>
<circle cx="32" cy="58.1581" r="1" fill="green"/>
<circle cx="32" cy="71.9868" r="1" fill="red"/>
<circle cx="33" cy="64.7661" r="1" fill="green"/>
<circle cx="33.9727" cy="45.9538" r="1" fill="red"/>
<circle cx="34.2523" cy="3.08192" r="1" fill="red"/>
<circle cx="34.4306" cy="39.6987" r="1" fill="red"/>
<circle cx="34.8611" cy="38.1609" r="1" fill="red"/>
<circle cx="35" cy="55.985" r="1" fill="green"/>
<circle cx="35" cy="60.6328" r="1" fill="green"/>
<circle cx="35.7894" cy="65.3553" r="1" fill="green"/>
<circle cx="37" cy="59.5095" r="1" fill="green"/>
<circle cx="37" cy="63.6216" r="1" fill="green"/>
<circle cx="38" cy="58.9068" r="1" fill="green"/>
<circle cx="38" cy="61.0069" r="1" fill="green"/>
<circle cx="38.9611" cy="88.8411" r="1" fill="red"/>
<circle cx="38.986" cy="61.9263" r="1" fill="green"/>
<circle cx="39" cy="58.4534" r="1" fill="green"/>
<circle cx="40" cy="58.8355" r="1" fill="green"/>
<circle cx="40" cy="59.0164" r="1" fill="green"/>
<circle cx="40.0219" cy="88.8181" r="1" fill="red"/>
<circle cx="41" cy="55.526" r="1" fill="green"/>
<circle cx="41" cy="61.4005" r="1" fill="green"/>
<circle cx="41.2024" cy="71.746" r="1" fill="red"/>
<circle cx="41.6991" cy="83.0072" r="1" fill="red"/>
<circle cx="42.9691" cy="26.2382" r="1" fill="red"/>
<circle cx="43" cy="64.2016" r="1" fill="green"/>
<circle cx="43" cy="66.5591" r="1" fill="green"/>
<circle cx="44" cy="57.1607" r="1" fill="green"/>
<circle cx="45" cy="52.6428" r="1" fill="red"/>
<circle cx="45" cy="57.1485" r="1" fill="green"/>
<circle cx="46" cy="58.2295" r="1" fill="green"/>
<circle cx="46" cy="61.6438" r="1" fill="green"/>
<circle cx="46" cy="62.4046" r="1" fill="green"/>
<circle cx="46" cy="63.1859" r="1" fill="green"/>
<circle cx="46.0891" cy="53.7413" r="1" fill="red"/>
<circle cx="46.9762" cy="92.1765" r="1" fill="red"/>
<circle cx="47" cy="66.6376" r="1" fill="green"/>
<circle cx="47" cy="66.8199" r="1" fill="green"/>
<circle cx="47.3195" cy="0.938329" r="1" fill="red"/>
<circle cx="48" cy="60.9552" r="1" fill="green"/>
<circle cx="48" cy="66.2213" r="1" fill="green"/>
<circle cx="48.7402" cy="-0.1798" r="1" fill="red"/>
<circle cx="49" cy="70.8081" r="1" fill="green"/>
<circle cx="49.1335" cy="7.74896" r="1" fill="red"/>
<circle cx="49.9378" cy="58.231" r="1" fill="green"/>
<circle cx="50" cy="60.7817" r="1" fill="green"/>
<circle cx="50" cy="71.4104" r="1" fill="green"/>
<circle cx="50.2211" cy="98.2781" r="1" fill="red"/>
<circle cx="50.8214" cy="31.9885" r="1" fill="red"/>
<circle cx="50.8609" cy="46.7957" r="1" fill="red"/>
<circle cx="50.9814" cy="15.0698" r="1" fill="red"/>
<circle cx="51" cy="60.5824" r="1" fill="green"/>
<circle cx="51" cy="60.6929" r="1" fill="green"/>
<circle cx="51" cy="61.8568" r="1" fill="green"/>
<circle cx="51" cy="71.853" r="1" fill="green"/>
<circle cx="51" cy="71.8906" r="1" fill="green"/>
<circle cx="51.2029" cy="46.8938" r="1" fill="red"/>
<circle cx="52" cy="70.8961" r="1" fill="green"/>
<circle cx="52" cy="72.3234" r="1" fill="green"/>
<circle cx="53" cy="61.2898" r="1" fill="green"/>
<circle cx="53" cy="62.9067" r="1" fill="green"/>
<circle cx="54.8951" cy="22.709" r="1" fill="red"/>
<circle cx="55" cy="62.7266" r="1" fill="green"/>
<circle cx="55" cy="72.3206" r="1" fill="green"/>
<circle cx="55.1067" cy="1.22213" r="1" fill="red"/>
<circle cx="56" cy="72.2346" r="1" fill="green"/>
<circle cx="56.2208" cy="16.9898" r="1" fill="red"/>
<circle cx="57" cy="63.4577" r="1" fill="green"/>
<circle cx="57" cy="64.9273" r="1" fill="green"/>
<circle cx="58" cy="62.452" r="1" fill="green"/>
<circle cx="58" cy="71.3149" r="1" fill="green"/>
<circle cx="58.0341" cy="66.9932" r="1" fill="green"/>
<circle cx="59" cy="65.2681" r="1" fill="green"/>
<circle cx="60.8824" cy="70.8203" r="1" fill="green"/>
<circle cx="61" cy="58.5988" r="1" fill="red"/>
<circle cx="61" cy="63.1682" r="1" fill="green"/>
<circle cx="61" cy="63.4911" r="1" fill="green"/>
<circle cx="61" cy="66.8151" r="1" fill="green"/>
<circle cx="62" cy="67.1091" r="1" fill="green"/>
<circle cx="62" cy="68.7146" r="1" fill="green"/>
<circle cx="62.027" cy="51.8367" r="1" fill="red"/>
<circle cx="62.0997" cy="61.8376" r="1" fill="green"/>
<circle cx="62.9638" cy="35.9253" r="1" fill="red"/>
<circle cx="63" cy="70.2741" r="1" fill="green"/>
<circle cx="63.1048" cy="20.2004" r="1" fill="red"/>
<circle cx="64" cy="71.3259" r="1" fill="green"/>
<circle cx="64.117" cy="77.1369" r="1" fill="green"/>
<circle cx="65" cy="67.7557" r="1" fill="green"/>
<circle cx="65" cy="67.7727" r="1" fill="green"/>
<circle cx="65.1084" cy="21.8123" r="1" fill="red"/>
<circle cx="66" cy="58.7952" r="1" fill="red"/>
<circle cx="66" cy="70.7365" r="1" fill="green"/>
<circle cx="66" cy="72.5318" r="1" fill="green"/>
<circle cx="66" cy="74.5573" r="1" fill="green"/>
<circle cx="66" cy="79.0179" r="1" fill="red"/>
<circle cx="66.3802" cy="79.8587" r="1" fill="red"/>
<circle cx="66.4139" cy="96.0942" r="1" fill="red"/>
<circle cx="67" cy="62.0394" r="1" fill="green"/>
<circle cx="67" cy="65.3807" r="1" fill="green"/>
<circle cx="67" cy="75.0184" r="1" fill="green"/>
<circle cx="68" cy="67.0521" r="1" fill="green"/>
<circle cx="68.1664" cy="40.7821" r="1" fill="red"/>
<circle cx="69" cy="70.699" r="1" fill="green"/>
<circle cx="69" cy="71.6435" r="1" fill="green"/>
<circle cx="69" cy="72.8312" r="1" fill="green"/>
<circle cx="69" cy="75.2139" r="1" fill="green"/>
<circle cx="70" cy="63.4996" r="1" fill="green"/>
<circle cx="70" cy="68.0252" r="1" fill="green"/>
<circle cx="70" cy="68.5526" r="1" fill="green"/>
<circle cx="70.9146" cy="52.2228" r="1" fill="red"/>
<circle cx="72" cy="66.1759" r="1" fill="green"/>
<circle cx="72" cy="67.3784" r="1" fill="green"/>
<circle cx="72" cy="71.3461" r="1" fill="green"/>
<circle cx="72" cy="76.3469" r="1" fill="green"/>
<circle cx="72" cy="77.4593" r="1" fill="green"/>
<circle cx="73" cy="67.3699" r="1" fill="green"/>
<circle cx="73" cy="76.6877" r="1" fill="green"/>
<circle cx="73" cy="78.1832" r="1" fill="green"/>
<circle cx="73.8563" cy="77.5164" r="1" fill="green"/>
<circle cx="74" cy="70.8967" r="1" fill="green"/>
<circle cx="75" cy="64.7536" r="1" fill="green"/>
<circle cx="75" cy="77.5569" r="1" fill="green"/>
<circle cx="76" cy="70.5907" r="1" fill="green"/>
<circle cx="76" cy="83.3231" r="1" fill="red"/>
<circle cx="77" cy="69.5103" r="1" fill="green"/>
<circle cx="77" cy="72.5003" r="1" fill="green"/>
<circle cx="77" cy="73.4604" r="1" fill="green"/>
<circle cx="77" cy="74.756" r="1" fill="green"/>
<circle cx="77" cy="76.1607" r="1" fill="green"/>
<circle cx="77" cy="77.1944" r="1" fill="green"/>
<circle cx="77.9176" cy="8.22558" r="1" fill="red"/>
<circle cx="78.2752" cy="55.1401" r="1" fill="red"/>
<circle cx="79" cy="66.9995" r="1" fill="green"/>
<circle cx="79" cy="68.3185" r="1" fill="green"/>
<circle cx="79" cy="74.8867" r="1" fill="green"/>
<circle cx="79" cy="82.4374" r="1" fill="red"/>
<circle cx="80" cy="66.1292" r="1" fill="green"/>
<circle cx="80" cy="78.8356" r="1" fill="green"/>
<circle cx="81" cy="61.0559" r="1" fill="red"/>
<circle cx="81" cy="66.2243" r="1" fill="green"/>
<circle cx="82" cy="71.0949" r="1" fill="green"/>
<circle cx="82.276" cy="46.1056" r="1" fill="red"/>
<circle cx="83.147" cy="50.0044" r="1" fill="red"/>
<circle cx="84" cy="78.0702" r="1" fill="green"/>
<circle cx="85" cy="86.5295" r="1" fill="red"/>
<circle cx="85.4236" cy="92.1415" r="1" fill="red"/>
<circle cx="85.7351" cy="36.6719" r="1" fill="red"/>
<circle cx="85.9441" cy="29.6059" r="1" fill="red"/>
<circle cx="86" cy="70.5303" r="1" fill="green"/>
<circle cx="86" cy="84.7179" r="1" fill="red"/>
<circle cx="86.9406" cy="3.90713" r="1" fill="red"/>
<circle cx="87" cy="76.3072" r="1" fill="green"/>
<circle cx="87.1765" cy="42.425" r="1" fill="red"/>
<circle cx="88" cy="70.8796" r="1" fill="green"/>
<circle cx="88.0669" cy="7.00844" r="1" fill="red"/>
<circle cx="88.6709" cy="83.9066" r="1" fill="green"/>
<circle cx="88.8957" cy="95.8222" r="1" fill="red"/>
<circle cx="89" cy="81.4315" r="1" fill="green"/>
<circle cx="89.9624" cy="47.1327" r="1" fill="red"/>
<circle cx="90" cy="69.9586" r="1" fill="green"/>
<circle cx="90" cy="84.8884" r="1" fill="green"/>
<circle cx="90.253" cy="15.9952" r="1" fill="red"/>
<circle cx="90.8997" cy="24.1321" r="1" fill="red"/>
<circle cx="91" cy="74.6027" r="1" fill="green"/>
<circle cx="91" cy="75.5442" r="1" fill="green"/>
<circle cx="91" cy="76.1069" r="1" fill="green"/>
<circle cx="91" cy="77.9707" r="1" fill="green"/>
<circle cx="91" cy="79.5244" r="1" fill="green"/>
<circle cx="91" cy="83.897" r="1" fill="green"/>
<circle cx="92.8256" cy="4.1564" r="1" fill="red"/>
<circle cx="93" cy="73.5521" r="1" fill="green"/>
<circle cx="93" cy="75.5939" r="1" fill="green"/>
<circle cx="94" cy="75.0378" r="1" fill="green"/>
<circle cx="94" cy="75.9034" r="1" fill="green"/>
<circle cx="94" cy="78.9471" r="1" fill="green"/>
<circle cx="95.8659" cy="29.8433" r="1" fill="red"/>
<circle cx="96" cy="72.9846" r="1" fill="green"/>
<circle cx="96" cy="73.2355" r="1" fill="green"/>
<circle cx="96" cy="78.7573" r="1" fill="green"/>
<circle cx="96" cy="82.5827" r="1" fill="green"/>
<circle cx="96" cy="88.501" r="1" fill="red"/>
<circle cx="96.0637" cy="92.0518" r="1" fill="red"/>
<circle cx="96.9002" cy="94.0878" r="1" fill="red"/>
<circle cx="96.9616" cy="39.6591" r="1" fill="red"/>
<circle cx="97" cy="76.0663" r="1" fill="green"/>
<circle cx="97" cy="79.0889" r="1" fill="green"/>
<circle cx="97" cy="81.0383" r="1" fill="green"/>
<circle cx="97.7621" cy="37.2718" r="1" fill="red"/>
<circle cx="97.831" cy="4.16144" r="1" fill="red"/>
<circle cx="98" cy="78.2331" r="1" fill="green"/>
<circle cx="99" cy="87.5423" r="1" fill="green"/>
<polyline points="0,50.3125,100,79.633" stroke="blue" stroke-width="0.5" fill="none"/>
</svg>