<?xml version="1.0" standalone="yes"?>
<!-- SVG graphic -->
<svg xmlns='http://www.w3.org/2000/svg' xmlns:xlink='http://www.w3.org/1999/xlink'
width="100px" height="100px" preserveAspectRatio="xMinYMin meet" viewBox="0 0 100 100" version="1.1">
<circle cx="0" cy="46.878" r="1" fill="green"/>
<circle cx="0" cy="53.2424" r="1" fill="green"/>
<circle cx="1" cy="52.1555" r="1" fill="green"/>
<circle cx="1.89512" cy="64.709" r="1" fill="red"/>
<circle cx="2" cy="47.6765" r="1" fill="green"/>
<circle cx="2" cy="48.288" r="1" fill="green"/>
<circle cx="2" cy="52.9314" r="1" fill="green"/>
<circle cx="2" cy="60.0539" r="1" fill="red"/>
<circle cx="2.12951" cy="2.92964" r="1" fill="red"/>
<circle cx="3" cy="49.6361" r="1" fill="green"/>
<circle cx="3" cy="50.8905" r="1" fill="green"/>
<circle cx="3" cy="53.2535" r="1" fill="green"/>
<circle cx="4" cy="44.4536" r="1" fill="red"/>
<circle cx="4" cy="47.2211" r="1" fill="green"/>
<circle cx="4" cy="49.9732" r="1" fill="green"/>
<circle cx="4" cy="51.1992" r="1" fill="green"/>
<circle cx="4" cy="56.5856" r="1" fill="green"/>
<circle cx="4.8924" cy="21.1629" r="1" fill="red"/>
<circle cx="5" cy="48.6215" r="1" fill="green"/>
<circle cx="5.25297" cy="16.9952" r="1" fill="red"/>
<circle cx="6" cy="58.0373" r="1" fill="red"/>
<circle cx="6" cy="61.6127" r="1" fill="red"/>
<circle cx="6.74019" cy="17.8202" r="1" fill="red"/>
<circle cx="6.96379" cy="64.9253" r="1" fill="red"/>
<circle cx="7" cy="41.2754" r="1" fill="red"/>
<circle cx="7.986" cy="21.9263" r="1" fill="red"/>
<circle cx="9" cy="46.205" r="1" fill="red"/>
<circle cx="9" cy="46.4085" r="1" fill="red"/>
<circle cx="9" cy="50.6607" r="1" fill="green"/>
<circle cx="9" cy="51.0983" r="1" fill="green"/>
<circle cx="9" cy="57.18" r="1" fill="green"/>
<circle cx="9.82143" cy="93.9885" r="1" fill="red"/>
<circle cx="10" cy="46.6154" r="1" fill="red"/>
<circle cx="10" cy="48.6013" r="1" fill="green"/>
<circle cx="11" cy="48.073" r="1" fill="green"/>
<circle cx="11" cy="51.4519" r="1" fill="green"/>
<circle cx="11" cy="57.3751" r="1" fill="green"/>
<circle cx="11.0219" cy="94.8181" r="1" fill="red"/>
<circle cx="12" cy="51.463" r="1" fill="green"/>
<circle cx="12" cy="53.7138" r="1" fill="green"/>
<circle cx="13" cy="51.0268" r="1" fill="green"/>
<circle cx="13" cy="53.1558" r="1" fill="green"/>
<circle cx="14.2211" cy="91.2781" r="1" fill="red"/>
<circle cx="14.8611" cy="78.1609" r="1" fill="red"/>
<circle cx="15" cy="56.4897" r="1" fill="green"/>
<circle cx="15" cy="58.5556" r="1" fill="green"/>
<circle cx="15.7805" cy="9.95285" r="1" fill="red"/>
<circle cx="16" cy="59.7891" r="1" fill="green"/>
<circle cx="17" cy="52.8537" r="1" fill="green"/>
<circle cx="17" cy="59.2448" r="1" fill="green"/>
<circle cx="17" cy="60.8629" r="1" fill="green"/>
<circle cx="17.0637" cy="69.0518" r="1" fill="red"/>
<circle cx="17.147" cy="34.0044" r="1" fill="red"/>
<circle cx="17.4826" cy="55.1878" r="1" fill="green"/>
<circle cx="18" cy="51.6733" r="1" fill="green"/>
<circle cx="18.8957" cy="18.8222" r="1" fill="red"/>
<circle cx="19" cy="60.5716" r="1" fill="green"/>
<circle cx="19.8096" cy="90.2145" r="1" fill="red"/>
<circle cx="21" cy="50.9066" r="1" fill="green"/>
<circle cx="22.2752" cy="34.1401" r="1" fill="red"/>
<circle cx="22.276" cy="85.1056" r="1" fill="red"/>
<circle cx="22.6991" cy="29.0072" r="1" fill="red"/>
<circle cx="23" cy="61.0037" r="1" fill="green"/>
<circle cx="24" cy="54.2844" r="1" fill="green"/>
<circle cx="24" cy="54.4172" r="1" fill="green"/>
<circle cx="24" cy="54.5997" r="1" fill="green"/>
<circle cx="24" cy="59.4933" r="1" fill="green"/>
<circle cx="24" cy="63.8738" r="1" fill="red"/>
<circle cx="25" cy="49.0661" r="1" fill="red"/>
<circle cx="25" cy="60.2642" r="1" fill="green"/>
<circle cx="26" cy="59.4488" r="1" fill="green"/>
<circle cx="26" cy="59.7066" r="1" fill="green"/>
<circle cx="26" cy="62.0158" r="1" fill="green"/>
<circle cx="26" cy="63.4168" r="1" fill="green"/>
<circle cx="26.9146" cy="50.2228" r="1" fill="red"/>
<circle cx="26.9406" cy="50.9071" r="1" fill="red"/>
<circle cx="27" cy="53.5381" r="1" fill="green"/>
<circle cx="27" cy="61.3517" r="1" fill="green"/>
<circle cx="27" cy="61.5088" r="1" fill="green"/>
<circle cx="27" cy="62.5422" r="1" fill="green"/>
<circle cx="27" cy="68.5301" r="1" fill="red"/>
<circle cx="28" cy="53.2234" r="1" fill="green"/>
<circle cx="28.2208" cy="86.9898" r="1" fill="red"/>
<circle cx="28.2318" cy="87.9676" r="1" fill="red"/>
<circle cx="28.8824" cy="95.8203" r="1" fill="red"/>
<circle cx="29" cy="55.7082" r="1" fill="green"/>
<circle cx="29" cy="58.5012" r="1" fill="green"/>
<circle cx="29.4139" cy="8.09419" r="1" fill="red"/>
<circle cx="30" cy="64.106" r="1" fill="green"/>
<circle cx="31" cy="50.9847" r="1" fill="red"/>
<circle cx="32" cy="59.0382" r="1" fill="green"/>
<circle cx="33" cy="66.5246" r="1" fill="red"/>
<circle cx="34" cy="62.9472" r="1" fill="green"/>
<circle cx="34" cy="67.6892" r="1" fill="red"/>
<circle cx="34.9611" cy="90.8411" r="1" fill="red"/>
<circle cx="35" cy="59.0209" r="1" fill="green"/>
<circle cx="35" cy="62.3638" r="1" fill="green"/>
<circle cx="35.9762" cy="31.1765" r="1" fill="red"/>
<circle cx="36" cy="54.1602" r="1" fill="red"/>
<circle cx="36.2029" cy="56.8938" r="1" fill="green"/>
<circle cx="36.9616" cy="27.6591" r="1" fill="red"/>
<circle cx="37" cy="59.9829" r="1" fill="green"/>
<circle cx="37" cy="60.5271" r="1" fill="green"/>
<circle cx="37.1335" cy="43.749" r="1" fill="red"/>
<circle cx="37.7894" cy="31.3553" r="1" fill="red"/>
<circle cx="38" cy="49.9586" r="1" fill="red"/>
<circle cx="39" cy="55.2711" r="1" fill="red"/>
<circle cx="39" cy="58.0737" r="1" fill="green"/>
<circle cx="39" cy="58.1808" r="1" fill="green"/>
<circle cx="39" cy="64.8364" r="1" fill="green"/>
<circle cx="39" cy="66.4192" r="1" fill="green"/>
<circle cx="39.6709" cy="67.9066" r="1" fill="red"/>
<circle cx="39.8659" cy="79.8433" r="1" fill="red"/>
<circle cx="40" cy="65.9127" r="1" fill="green"/>
<circle cx="40.08" cy="97.0878" r="1" fill="red"/>
<circle cx="40.9624" cy="53.1327" r="1" fill="red"/>
<circle cx="41.1067" cy="75.2221" r="1" fill="red"/>
<circle cx="42" cy="60.5542" r="1" fill="green"/>
<circle cx="42" cy="61.3221" r="1" fill="green"/>
<circle cx="42" cy="61.6595" r="1" fill="green"/>
<circle cx="42" cy="63.612" r="1" fill="green"/>
<circle cx="42" cy="69.5651" r="1" fill="red"/>
<circle cx="43" cy="67.9222" r="1" fill="green"/>
<circle cx="44" cy="61.6951" r="1" fill="green"/>
<circle cx="44.1577" cy="58.0591" r="1" fill="green"/>
<circle cx="45.9002" cy="54.0878" r="1" fill="red"/>
<circle cx="46" cy="59.7563" r="1" fill="green"/>
<circle cx="46" cy="59.9171" r="1" fill="green"/>
<circle cx="46" cy="61.6374" r="1" fill="green"/>
<circle cx="46" cy="64.1089" r="1" fill="green"/>
<circle cx="46" cy="64.4403" r="1" fill="green"/>
<circle cx="46" cy="64.9778" r="1" fill="green"/>
<circle cx="46.9378" cy="52.231" r="1" fill="red"/>
<circle cx="46.9814" cy="6.06978" r="1" fill="red"/>
<circle cx="47.1048" cy="0.200427" r="1" fill="red"/>
<circle cx="48" cy="60.7843" r="1" fill="green"/>
<circle cx="48" cy="63.3774" r="1" fill="green"/>
<circle cx="48" cy="63.629" r="1" fill="green"/>
<circle cx="48" cy="68.174" r="1" fill="green"/>
<circle cx="49" cy="58.0901" r="1" fill="red"/>
<circle cx="49" cy="66.6524" r="1" fill="green"/>
<circle cx="49" cy="67.0334" r="1" fill="green"/>
<circle cx="49.08" cy="97.2532" r="1" fill="red"/>
<circle cx="50" cy="60.9548" r="1" fill="green"/>
<circle cx="50" cy="64.9344" r="1" fill="green"/>
<circle cx="50" cy="69.1746" r="1" fill="green"/>
<circle cx="50.1084" cy="53.8123" r="1" fill="red"/>
<circle cx="50.2986" cy="82.9467" r="1" fill="red"/>
<circle cx="51" cy="64.4632" r="1" fill="green"/>
<circle cx="52" cy="65.7339" r="1" fill="green"/>
<circle cx="52" cy="71.2113" r="1" fill="green"/>
<circle cx="52.0669" cy="33.0084" r="1" fill="red"/>
<circle cx="52.9691" cy="2.23818" r="1" fill="red"/>
<circle cx="53.7621" cy="55.2718" r="1" fill="red"/>
<circle cx="54" cy="66.0237" r="1" fill="green"/>
<circle cx="54" cy="66.0623" r="1" fill="green"/>
<circle cx="54" cy="66.3776" r="1" fill="green"/>
<circle cx="54" cy="68.5343" r="1" fill="green"/>
<circle cx="54" cy="69.9" r="1" fill="green"/>
<circle cx="54" cy="70.7395" r="1" fill="green"/>
<circle cx="54.4306" cy="61.6987" r="1" fill="green"/>
<circle cx="55" cy="63.9076" r="1" fill="green"/>
<circle cx="55.1664" cy="91.7821" r="1" fill="red"/>
<circle cx="55.8563" cy="38.5164" r="1" fill="red"/>
<circle cx="56.7081" cy="90.3121" r="1" fill="red"/>
<circle cx="57" cy="60.178" r="1" fill="red"/>
<circle cx="57" cy="64.0956" r="1" fill="green"/>
<circle cx="57" cy="67.4612" r="1" fill="green"/>
<circle cx="57" cy="68.2124" r="1" fill="green"/>
<circle cx="57" cy="68.3447" r="1" fill="green"/>
<circle cx="57" cy="72.5131" r="1" fill="green"/>
<circle cx="57.4236" cy="69.1415" r="1" fill="green"/>
<circle cx="58" cy="63.5269" r="1" fill="green"/>
<circle cx="58" cy="65.4315" r="1" fill="green"/>
<circle cx="58" cy="71.4687" r="1" fill="green"/>
<circle cx="58" cy="73.049" r="1" fill="green"/>
<circle cx="58.0299" cy="38.1912" r="1" fill="red"/>
<circle cx="58.3285" cy="25.9442" r="1" fill="red"/>
<circle cx="58.83" cy="70.0001" r="1" fill="green"/>
<circle cx="59" cy="61.4577" r="1" fill="red"/>
<circle cx="59" cy="65.8063" r="1" fill="green"/>
<circle cx="59" cy="70.7687" r="1" fill="green"/>
<circle cx="59" cy="75.9842" r="1" fill="red"/>
<circle cx="59.831" cy="44.1614" r="1" fill="red"/>
<circle cx="60" cy="59.0206" r="1" fill="red"/>
<circle cx="60" cy="61.0909" r="1" fill="red"/>
<circle cx="60" cy="65.4343" r="1" fill="green"/>
<circle cx="60" cy="66.606" r="1" fill="green"/>
<circle cx="60" cy="67.0347" r="1" fill="green"/>
<circle cx="60" cy="69.1156" r="1" fill="green"/>
<circle cx="60" cy="70.3416" r="1" fill="green"/>
<circle cx="61" cy="65.3487" r="1" fill="green"/>
<circle cx="61" cy="66.3234" r="1" fill="green"/>
<circle cx="61" cy="68.8749" r="1" fill="green"/>
<circle cx="61.0488" cy="12.1121" r="1" fill="red"/>
<circle cx="61.3595" cy="94.8932" r="1" fill="red"/>
<circle cx="63" cy="71.5235" r="1" fill="green"/>
<circle cx="64" cy="76.8439" r="1" fill="red"/>
<circle cx="64" cy="76.9934" r="1" fill="red"/>
<circle cx="65.7351" cy="28.6719" r="1" fill="red"/>
<circle cx="66" cy="66.1815" r="1" fill="green"/>
<circle cx="66" cy="67.7022" r="1" fill="green"/>
<circle cx="66" cy="73.0426" r="1" fill="green"/>
<circle cx="67" cy="65.0548" r="1" fill="green"/>
<circle cx="67" cy="69.7298" r="1" fill="green"/>
<circle cx="68" cy="69.0367" r="1" fill="green"/>
<circle cx="68" cy="74.7344" r="1" fill="green"/>
<circle cx="68" cy="76.1238" r="1" fill="green"/>
<circle cx="69" cy="70.1859" r="1" fill="green"/>
<circle cx="69.9176" cy="72.2256" r="1" fill="green"/>
<circle cx="70" cy="71.0873" r="1" fill="green"/>
<circle cx="71" cy="68.0383" r="1" fill="green"/>
<circle cx="71.027" cy="98.8367" r="1" fill="red"/>
<circle cx="71.1641" cy="16.9348" r="1" fill="red"/>
<circle cx="71.8997" cy="0.132115" r="1" fill="red"/>
<circle cx="73" cy="70.6273" r="1" fill="green"/>
<circle cx="74" cy="67.1337" r="1" fill="green"/>
<circle cx="74" cy="72.2288" r="1" fill="green"/>
<circle cx="74.1765" cy="79.425" r="1" fill="red"/>
<circle cx="75" cy="69.2657" r="1" fill="green"/>
<circle cx="75" cy="69.8088" r="1" fill="green"/>
<circle cx="76" cy="71.8934" r="1" fill="green"/>
<circle cx="76.0244" cy="86.8013" r="1" fill="red"/>
<circle cx="77" cy="75.2665" r="1" fill="green"/>
<circle cx="77" cy="76.4556" r="1" fill="green"/>
<circle cx="77" cy="77.8448" r="1" fill="green"/>
<circle cx="78" cy="84.0173" r="1" fill="red"/>
<circle cx="79.2523" cy="63.0819" r="1" fill="red"/>
<circle cx="80" cy="69.3873" r="1" fill="green"/>
<circle cx="80" cy="73.6631" r="1" fill="green"/>
<circle cx="80" cy="75.6205" r="1" fill="green"/>
<circle cx="81.9441" cy="7.60591" r="1" fill="red"/>
<circle cx="82" cy="63.2479" r="1" fill="red"/>
<circle cx="82" cy="70.7694" r="1" fill="green"/>
<circle cx="82.1432" cy="52.7471" r="1" fill="red"/>
<circle cx="82.8858" cy="23.3983" r="1" fill="red"/>
<circle cx="82.9587" cy="62.0667" r="1" fill="red"/>
<circle cx="83" cy="70.1253" r="1" fill="green"/>
<circle cx="83" cy="77.4973" r="1" fill="green"/>
<circle cx="83.1806" cy="44.9741" r="1" fill="red"/>
<circle cx="84" cy="70.9589" r="1" fill="green"/>
<circle cx="84" cy="84.2198" r="1" fill="red"/>
<circle cx="85.6647" cy="38.012" r="1" fill="red"/>
<circle cx="86" cy="73.0896" r="1" fill="green"/>
<circle cx="86" cy="77.791" r="1" fill="green"/>
<circle cx="86" cy="79.8777" r="1" fill="green"/>
<circle cx="86" cy="80.0189" r="1" fill="green"/>
<circle cx="86" cy="81.4546" r="1" fill="green"/>
<circle cx="87" cy="73.5407" r="1" fill="green"/>
<circle cx="87" cy="74.3736" r="1" fill="green"/>
<circle cx="87" cy="76.9087" r="1" fill="green"/>
<circle cx="87" cy="81.9253" r="1" fill="green"/>
<circle cx="87.3802" cy="-0.141315" r="1" fill="red"/>
<circle cx="87.8256" cy="39.1564" r="1" fill="red"/>
<circle cx="88" cy="74.8939" r="1" fill="green"/>
<circle cx="88" cy="75.3995" r="1" fill="green"/>
<circle cx="88.0891" cy="57.7413" r="1" fill="red"/>
<circle cx="89.9727" cy="34.9538" r="1" fill="red"/>
<circle cx="90" cy="67.6938" r="1" fill="red"/>
<circle cx="90" cy="79.1614" r="1" fill="green"/>
<circle cx="90" cy="85.3152" r="1" fill="red"/>
<circle cx="91.2024" cy="49.746" r="1" fill="red"/>
<circle cx="92" cy="74.5231" r="1" fill="green"/>
<circle cx="92" cy="76.5998" r="1" fill="green"/>
<circle cx="92" cy="76.7236" r="1" fill="green"/>
<circle cx="92" cy="77.5634" r="1" fill="green"/>
<circle cx="93" cy="77.2661" r="1" fill="green"/>
<circle cx="93" cy="77.3736" r="1" fill="green"/>
<circle cx="93" cy="79.3256" r="1" fill="green"/>
<circle cx="93" cy="81.4095" r="1" fill="green"/>
<circle cx="94" cy="79.6525" r="1" fill="green"/>
<circle cx="94" cy="79.756" r="1" fill="green"/>
<circle cx="95.0341" cy="95.9932" r="1" fill="red"/>
<circle cx="96" cy="73.9822" r="1" fill="green"/>
<circle cx="96" cy="76.5256" r="1" fill="green"/>
<circle cx="96" cy="78.5824" r="1" fill="green"/>
<circle cx="96.0997" cy="81.8376" r="1" fill="green"/>
<circle cx="96.117" cy="55.1369" r="1" fill="red"/>
<circle cx="97" cy="82.5818" r="1" fill="green"/>
<circle cx="97.8609" cy="91.7957" r="1" fill="red"/>
<circle cx="98" cy="76.6876" r="1" fill="green"/>
<circle cx="99.3195" cy="39.9383" r="1" fill="red"/>
<polyline points="0,50.0956,100,80.2474" stroke="blue" stroke-width="0.5" fill="none"/>
</svg>