<?xml version="1.0" standalone="yes"?>
<!-- SVG graphic -->
<svg xmlns='http://www.w3.org/2000/svg' xmlns:xlink='http://www.w3.org/1999/xlink'
width="100px" height="100px" preserveAspectRatio="xMinYMin meet" viewBox="0 0 100 100" version="1.1">
<circle cx="0" cy="42.7733" r="1" fill="red"/>
<circle cx="0" cy="46.5884" r="1" fill="red"/>
<circle cx="0" cy="48.8435" r="1" fill="red"/>
<circle cx="0" cy="57.5334" r="1" fill="red"/>
<circle cx="0" cy="60.0829" r="1" fill="red"/>
<circle cx="1" cy="53.8015" r="1" fill="red"/>
<circle cx="1" cy="55.164" r="1" fill="red"/>
<circle cx="1" cy="57.2873" r="1" fill="red"/>
<circle cx="1.96914" cy="4.23818" r="1" fill="red"/>
<circle cx="2" cy="42.5099" r="1" fill="red"/>
<circle cx="2" cy="47.132" r="1" fill="red"/>
<circle cx="3" cy="44.995" r="1" fill="red"/>
<circle cx="3" cy="52.418" r="1" fill="red"/>
<circle cx="3" cy="57.2283" r="1" fill="red"/>
<circle cx="3" cy="58.7532" r="1" fill="red"/>
<circle cx="3" cy="63.3728" r="1" fill="red"/>
<circle cx="3.8924" cy="78.1629" r="1" fill="red"/>
<circle cx="4" cy="48.4278" r="1" fill="red"/>
<circle cx="4" cy="52.7258" r="1" fill="red"/>
<circle cx="4" cy="56.75" r="1" fill="red"/>
<circle cx="4.16408" cy="81.9348" r="1" fill="red"/>
<circle cx="4.97274" cy="95.9538" r="1" fill="red"/>
<circle cx="5" cy="44.6571" r="1" fill="red"/>
<circle cx="6" cy="43.4719" r="1" fill="red"/>
<circle cx="6" cy="44.4274" r="1" fill="red"/>
<circle cx="7" cy="47.2225" r="1" fill="red"/>
<circle cx="7" cy="58.3619" r="1" fill="red"/>
<circle cx="7" cy="58.7634" r="1" fill="red"/>
<circle cx="8" cy="47.8935" r="1" fill="red"/>
<circle cx="8" cy="56.5208" r="1" fill="red"/>
<circle cx="8.78944" cy="9.35528" r="1" fill="red"/>
<circle cx="9" cy="48.8611" r="1" fill="red"/>
<circle cx="9" cy="54.8384" r="1" fill="red"/>
<circle cx="9" cy="61.117" r="1" fill="red"/>
<circle cx="10" cy="49.941" r="1" fill="red"/>
<circle cx="10" cy="50.909" r="1" fill="red"/>
<circle cx="10" cy="52.2289" r="1" fill="red"/>
<circle cx="11" cy="51.0814" r="1" fill="red"/>
<circle cx="11" cy="51.8137" r="1" fill="red"/>
<circle cx="11" cy="55.9902" r="1" fill="red"/>
<circle cx="12" cy="49.2266" r="1" fill="red"/>
<circle cx="12.0669" cy="76.0084" r="1" fill="red"/>
<circle cx="12.6991" cy="91.0072" r="1" fill="red"/>
<circle cx="13" cy="49.8314" r="1" fill="red"/>
<circle cx="14" cy="50.3639" r="1" fill="red"/>
<circle cx="14" cy="50.3752" r="1" fill="red"/>
<circle cx="14" cy="60.4564" r="1" fill="red"/>
<circle cx="14" cy="66.0516" r="1" fill="red"/>
<circle cx="14.9406" cy="26.9071" r="1" fill="red"/>
<circle cx="15" cy="47.023" r="1" fill="red"/>
<circle cx="15" cy="51.9104" r="1" fill="red"/>
<circle cx="15" cy="56.1735" r="1" fill="red"/>
<circle cx="15.9002" cy="18.0878" r="1" fill="red"/>
<circle cx="16" cy="70.7259" r="1" fill="red"/>
<circle cx="17" cy="51.0149" r="1" fill="red"/>
<circle cx="17.0219" cy="54.8181" r="1" fill="red"/>
<circle cx="18" cy="45.4852" r="1" fill="red"/>
<circle cx="18" cy="50.5485" r="1" fill="red"/>
<circle cx="18.0299" cy="22.1912" r="1" fill="red"/>
<circle cx="18.0341" cy="25.9932" r="1" fill="red"/>
<circle cx="19.027" cy="18.8367" r="1" fill="red"/>
<circle cx="19.1432" cy="82.7471" r="1" fill="red"/>
<circle cx="19.3195" cy="70.9383" r="1" fill="red"/>
<circle cx="19.9624" cy="0.132681" r="1" fill="red"/>
<circle cx="20" cy="54.5892" r="1" fill="red"/>
<circle cx="20" cy="62.1126" r="1" fill="red"/>
<circle cx="21.6647" cy="39.012" r="1" fill="red"/>
<circle cx="22.8957" cy="57.8222" r="1" fill="red"/>
<circle cx="23" cy="57.9318" r="1" fill="red"/>
<circle cx="23.7402" cy="68.8202" r="1" fill="red"/>
<circle cx="24" cy="43.2408" r="1" fill="red"/>
<circle cx="24" cy="63.5236" r="1" fill="red"/>
<circle cx="25" cy="52.0765" r="1" fill="red"/>
<circle cx="25" cy="53.071" r="1" fill="red"/>
<circle cx="26" cy="56.2661" r="1" fill="red"/>
<circle cx="26.9616" cy="30.6591" r="1" fill="red"/>
<circle cx="27" cy="51.502" r="1" fill="red"/>
<circle cx="27" cy="53.7956" r="1" fill="red"/>
<circle cx="27" cy="66.5253" r="1" fill="red"/>
<circle cx="27.7621" cy="49.2718" r="1" fill="red"/>
<circle cx="28" cy="48.0363" r="1" fill="red"/>
<circle cx="28" cy="58.3988" r="1" fill="red"/>
<circle cx="28" cy="60.8006" r="1" fill="red"/>
<circle cx="28.2208" cy="72.9898" r="1" fill="red"/>
<circle cx="29" cy="59.2417" r="1" fill="red"/>
<circle cx="29" cy="61.4333" r="1" fill="red"/>
<circle cx="29" cy="63.7334" r="1" fill="red"/>
<circle cx="30" cy="54.9201" r="1" fill="red"/>
<circle cx="31" cy="58.9736" r="1" fill="red"/>
<circle cx="31" cy="59.4707" r="1" fill="red"/>
<circle cx="31" cy="65.3833" r="1" fill="red"/>
<circle cx="31.1577" cy="46.0591" r="1" fill="red"/>
<circle cx="32" cy="54.4785" r="1" fill="red"/>
<circle cx="32" cy="64.4635" r="1" fill="red"/>
<circle cx="32.8611" cy="47.1609" r="1" fill="red"/>
<circle cx="32.8858" cy="68.3983" r="1" fill="red"/>
<circle cx="33" cy="47.427" r="1" fill="red"/>
<circle cx="33" cy="60.1009" r="1" fill="red"/>
<circle cx="33.1295" cy="67.9296" r="1" fill="red"/>
<circle cx="33.9638" cy="51.9253" r="1" fill="red"/>
<circle cx="34.2024" cy="90.746" r="1" fill="red"/>
<circle cx="35" cy="56.073" r="1" fill="red"/>
<circle cx="35" cy="58.8244" r="1" fill="red"/>
<circle cx="36" cy="64.297" r="1" fill="red"/>
<circle cx="36.4236" cy="75.1415" r="1" fill="red"/>
<circle cx="37" cy="59.5996" r="1" fill="red"/>
<circle cx="37" cy="61.231" r="1" fill="red"/>
<circle cx="37" cy="63.8401" r="1" fill="red"/>
<circle cx="37" cy="67.6017" r="1" fill="red"/>
<circle cx="37" cy="70.456" r="1" fill="red"/>
<circle cx="37.1335" cy="55.749" r="1" fill="red"/>
<circle cx="37.8609" cy="33.7957" r="1" fill="red"/>
<circle cx="38" cy="47.1784" r="1" fill="red"/>
<circle cx="38" cy="59.4832" r="1" fill="red"/>
<circle cx="38" cy="73.0562" r="1" fill="red"/>
<circle cx="40" cy="56.6745" r="1" fill="red"/>
<circle cx="40" cy="58.0995" r="1" fill="red"/>
<circle cx="40" cy="58.7561" r="1" fill="red"/>
<circle cx="41" cy="57.9147" r="1" fill="red"/>
<circle cx="41" cy="72.2369" r="1" fill="red"/>
<circle cx="42" cy="63.813" r="1" fill="red"/>
<circle cx="43.8214" cy="48.9885" r="1" fill="red"/>
<circle cx="43.8997" cy="56.1321" r="1" fill="red"/>
<circle cx="44.8824" cy="64.8203" r="1" fill="red"/>
<circle cx="45" cy="62.1401" r="1" fill="red"/>
<circle cx="45" cy="69.369" r="1" fill="red"/>
<circle cx="45.1806" cy="12.9741" r="1" fill="red"/>
<circle cx="45.7805" cy="95.9529" r="1" fill="red"/>
<circle cx="45.9611" cy="77.8411" r="1" fill="red"/>
<circle cx="46" cy="53.6804" r="1" fill="red"/>
<circle cx="46" cy="54.3628" r="1" fill="red"/>
<circle cx="46" cy="59.117" r="1" fill="red"/>
<circle cx="46" cy="66.134" r="1" fill="red"/>
<circle cx="47" cy="67.3497" r="1" fill="red"/>
<circle cx="48" cy="62.3551" r="1" fill="red"/>
<circle cx="48.9441" cy="62.6059" r="1" fill="red"/>
<circle cx="49" cy="70.9171" r="1" fill="red"/>
<circle cx="50" cy="63.2059" r="1" fill="red"/>
<circle cx="51" cy="63.0573" r="1" fill="red"/>
<circle cx="51" cy="64.4573" r="1" fill="red"/>
<circle cx="53.4139" cy="5.09419" r="1" fill="red"/>
<circle cx="54" cy="56.4575" r="1" fill="red"/>
<circle cx="54" cy="56.5566" r="1" fill="red"/>
<circle cx="54" cy="63.3594" r="1" fill="red"/>
<circle cx="54" cy="63.9792" r="1" fill="red"/>
<circle cx="54" cy="64.6993" r="1" fill="red"/>
<circle cx="54.8951" cy="18.709" r="1" fill="red"/>
<circle cx="55" cy="65.5061" r="1" fill="red"/>
<circle cx="56" cy="73.52" r="1" fill="red"/>
<circle cx="56.831" cy="93.1614" r="1" fill="red"/>
<circle cx="57" cy="58.2579" r="1" fill="red"/>
<circle cx="57" cy="65.2598" r="1" fill="red"/>
<circle cx="57" cy="66.1491" r="1" fill="red"/>
<circle cx="57" cy="69.8832" r="1" fill="red"/>
<circle cx="57" cy="69.9599" r="1" fill="red"/>
<circle cx="57" cy="70.6303" r="1" fill="red"/>
<circle cx="57.276" cy="58.1056" r="1" fill="red"/>
<circle cx="57.83" cy="53.0001" r="1" fill="red"/>
<circle cx="58" cy="59.5782" r="1" fill="red"/>
<circle cx="58" cy="82.119" r="1" fill="red"/>
<circle cx="58.0637" cy="82.0518" r="1" fill="red"/>
<circle cx="58.3595" cy="36.8932" r="1" fill="red"/>
<circle cx="59" cy="60.5456" r="1" fill="red"/>
<circle cx="59" cy="64.9065" r="1" fill="red"/>
<circle cx="59" cy="68.6605" r="1" fill="red"/>
<circle cx="59.9814" cy="80.0698" r="1" fill="red"/>
<circle cx="60" cy="61.9323" r="1" fill="red"/>
<circle cx="60" cy="68.4633" r="1" fill="red"/>
<circle cx="60.08" cy="89.0878" r="1" fill="red"/>
<circle cx="60.9587" cy="41.0667" r="1" fill="red"/>
<circle cx="61" cy="73.0045" r="1" fill="red"/>
<circle cx="62" cy="72.1244" r="1" fill="red"/>
<circle cx="62" cy="76.842" r="1" fill="red"/>
<circle cx="62.2318" cy="24.9676" r="1" fill="red"/>
<circle cx="63" cy="61.6751" r="1" fill="red"/>
<circle cx="63" cy="71.3307" r="1" fill="red"/>
<circle cx="63.1765" cy="87.425" r="1" fill="red"/>
<circle cx="64" cy="55.731" r="1" fill="red"/>
<circle cx="64" cy="58.817" r="1" fill="red"/>
<circle cx="64" cy="65.9447" r="1" fill="red"/>
<circle cx="65" cy="69.2715" r="1" fill="red"/>
<circle cx="66" cy="64.3722" r="1" fill="red"/>
<circle cx="66" cy="65.4822" r="1" fill="red"/>
<circle cx="66" cy="67.5426" r="1" fill="red"/>
<circle cx="66.2752" cy="64.1401" r="1" fill="red"/>
<circle cx="66.2986" cy="85.9467" r="1" fill="red"/>
<circle cx="66.9146" cy="45.2228" r="1" fill="red"/>
<circle cx="67.08" cy="50.2532" r="1" fill="red"/>
<circle cx="68" cy="56.8932" r="1" fill="red"/>
<circle cx="68" cy="67.0305" r="1" fill="red"/>
<circle cx="68.0244" cy="51.8013" r="1" fill="red"/>
<circle cx="68.9378" cy="74.231" r="1" fill="red"/>
<circle cx="69" cy="61.1232" r="1" fill="red"/>
<circle cx="69" cy="67.735" r="1" fill="red"/>
<circle cx="69" cy="68.2975" r="1" fill="red"/>
<circle cx="69" cy="78.8197" r="1" fill="red"/>
<circle cx="70" cy="68.7409" r="1" fill="red"/>
<circle cx="70" cy="81.6885" r="1" fill="red"/>
<circle cx="70.1084" cy="27.8123" r="1" fill="red"/>
<circle cx="70.3802" cy="23.8587" r="1" fill="red"/>
<circle cx="70.8256" cy="79.1564" r="1" fill="red"/>
<circle cx="70.986" cy="6.92628" r="1" fill="red"/>
<circle cx="71" cy="78.6074" r="1" fill="red"/>
<circle cx="72" cy="57.451" r="1" fill="red"/>
<circle cx="72" cy="67.4912" r="1" fill="red"/>
<circle cx="72.1048" cy="23.2004" r="1" fill="red"/>
<circle cx="72.8563" cy="76.5164" r="1" fill="red"/>
<circle cx="73" cy="64.3322" r="1" fill="red"/>
<circle cx="73" cy="78.8254" r="1" fill="red"/>
<circle cx="75" cy="75.4845" r="1" fill="red"/>
<circle cx="75" cy="80.159" r="1" fill="red"/>
<circle cx="77" cy="69.9533" r="1" fill="red"/>
<circle cx="77" cy="76.3421" r="1" fill="red"/>
<circle cx="78" cy="72.1448" r="1" fill="red"/>
<circle cx="78" cy="72.2836" r="1" fill="red"/>
<circle cx="78" cy="72.6105" r="1" fill="red"/>
<circle cx="78" cy="75.1667" r="1" fill="red"/>
<circle cx="78.253" cy="9.99518" r="1" fill="red"/>
<circle cx="78.4306" cy="56.6987" r="1" fill="red"/>
<circle cx="79" cy="65.5338" r="1" fill="red"/>
<circle cx="79" cy="69.6631" r="1" fill="red"/>
<circle cx="79" cy="73.1447" r="1" fill="red"/>
<circle cx="79" cy="74.9041" r="1" fill="red"/>
<circle cx="79" cy="75.2303" r="1" fill="red"/>
<circle cx="79.7351" cy="36.6719" r="1" fill="red"/>
<circle cx="80" cy="81.4836" r="1" fill="red"/>
<circle cx="80" cy="85.6901" r="1" fill="red"/>
<circle cx="81" cy="74.0019" r="1" fill="red"/>
<circle cx="81" cy="78.4463" r="1" fill="red"/>
<circle cx="82" cy="68.7951" r="1" fill="red"/>
<circle cx="82.1067" cy="58.2221" r="1" fill="red"/>
<circle cx="83" cy="78.1627" r="1" fill="red"/>
<circle cx="83.0997" cy="54.8376" r="1" fill="red"/>
<circle cx="83.117" cy="17.1369" r="1" fill="red"/>
<circle cx="83.2211" cy="23.2781" r="1" fill="red"/>
<circle cx="84" cy="69.0171" r="1" fill="red"/>
<circle cx="84" cy="72.1313" r="1" fill="red"/>
<circle cx="84" cy="75.4663" r="1" fill="red"/>
<circle cx="84.3285" cy="81.9443" r="1" fill="red"/>
<circle cx="84.6709" cy="3.90657" r="1" fill="red"/>
<circle cx="85" cy="73.741" r="1" fill="red"/>
<circle cx="85" cy="79.4352" r="1" fill="red"/>
<circle cx="85" cy="80.6132" r="1" fill="red"/>
<circle cx="86" cy="71.9114" r="1" fill="red"/>
<circle cx="86" cy="73.9461" r="1" fill="red"/>
<circle cx="87" cy="68.9379" r="1" fill="red"/>
<circle cx="87" cy="70.1726" r="1" fill="red"/>
<circle cx="87.8096" cy="94.2145" r="1" fill="red"/>
<circle cx="88" cy="79.5133" r="1" fill="red"/>
<circle cx="88.9176" cy="18.2256" r="1" fill="red"/>
<circle cx="89" cy="71.8074" r="1" fill="red"/>
<circle cx="89" cy="79.1732" r="1" fill="red"/>
<circle cx="89" cy="80.2002" r="1" fill="red"/>
<circle cx="90" cy="69.2352" r="1" fill="red"/>
<circle cx="90" cy="74.8278" r="1" fill="red"/>
<circle cx="90" cy="76.4946" r="1" fill="red"/>
<circle cx="90.8659" cy="66.8433" r="1" fill="red"/>
<circle cx="91" cy="2.95856" r="1" fill="red"/>
<circle cx="91" cy="72.6847" r="1" fill="red"/>
<circle cx="91" cy="79.6417" r="1" fill="red"/>
<circle cx="92" cy="70.8247" r="1" fill="red"/>
<circle cx="92" cy="71.0959" r="1" fill="red"/>
<circle cx="92" cy="77.7473" r="1" fill="red"/>
<circle cx="93" cy="70.9261" r="1" fill="red"/>
<circle cx="93.2029" cy="98.8938" r="1" fill="red"/>
<circle cx="93.7081" cy="30.3121" r="1" fill="red"/>
<circle cx="94.1664" cy="70.7821" r="1" fill="red"/>
<circle cx="94.9762" cy="21.1765" r="1" fill="red"/>
<circle cx="95" cy="65.8491" r="1" fill="red"/>
<circle cx="95" cy="80.6291" r="1" fill="red"/>
<circle cx="95" cy="85.6172" r="1" fill="red"/>
<circle cx="95" cy="89.7338" r="1" fill="red"/>
<circle cx="95.4826" cy="9.18777" r="1" fill="red"/>
<circle cx="97" cy="79.1658" r="1" fill="red"/>
<circle cx="97" cy="85.2556" r="1" fill="red"/>
<circle cx="97.0891" cy="88.7413" r="1" fill="red"/>
<circle cx="98.0488" cy="6.11211" r="1" fill="red"/>
<circle cx="98.2523" cy="56.0819" r="1" fill="red"/>
<circle cx="99" cy="77.7909" r="1" fill="red"/>
<circle cx="99" cy="78.9263" r="1" fill="red"/>
<circle cx="99" cy="90.6444" r="1" fill="red"/>
<circle cx="99.147" cy="89.0044" r="1" fill="red"/>
</svg>