<?xml version="1.0" standalone="yes"?>
<!-- SVG graphic -->
<svg xmlns='http://www.w3.org/2000/svg' xmlns:xlink='http://www.w3.org/1999/xlink'
width="100px" height="100px" preserveAspectRatio="xMinYMin meet" viewBox="0 0 100 100" version="1.1">
<circle cx="0.830965" cy="29.1614" r="1" fill="red"/>
<circle cx="1" cy="41.0707" r="1" fill="red"/>
<circle cx="1" cy="45.1925" r="1" fill="red"/>
<circle cx="1" cy="52.4338" r="1" fill="red"/>
<circle cx="1" cy="55.5169" r="1" fill="red"/>
<circle cx="1" cy="56.6264" r="1" fill="red"/>
<circle cx="2" cy="43.9538" r="1" fill="red"/>
<circle cx="2" cy="48.9521" r="1" fill="red"/>
<circle cx="2" cy="50.7785" r="1" fill="red"/>
<circle cx="2" cy="59.6154" r="1" fill="red"/>
<circle cx="2.98141" cy="88.0698" r="1" fill="red"/>
<circle cx="3" cy="49.2148" r="1" fill="red"/>
<circle cx="3" cy="58.9789" r="1" fill="red"/>
<circle cx="3.70809" cy="3.31213" r="1" fill="red"/>
<circle cx="4" cy="45.1775" r="1" fill="red"/>
<circle cx="5" cy="39.5275" r="1" fill="red"/>
<circle cx="5" cy="50.7509" r="1" fill="red"/>
<circle cx="5" cy="51.4125" r="1" fill="red"/>
<circle cx="5.16408" cy="67.9348" r="1" fill="red"/>
<circle cx="6" cy="54.2356" r="1" fill="red"/>
<circle cx="7" cy="50.0934" r="1" fill="red"/>
<circle cx="7" cy="57.5716" r="1" fill="red"/>
<circle cx="7.42363" cy="76.1415" r="1" fill="red"/>
<circle cx="7.96163" cy="88.6591" r="1" fill="red"/>
<circle cx="8" cy="48.7861" r="1" fill="red"/>
<circle cx="9" cy="52.6873" r="1" fill="red"/>
<circle cx="9" cy="52.8517" r="1" fill="red"/>
<circle cx="9.13354" cy="46.749" r="1" fill="red"/>
<circle cx="9.32851" cy="29.9442" r="1" fill="red"/>
<circle cx="10" cy="48.8374" r="1" fill="red"/>
<circle cx="10" cy="52.2361" r="1" fill="red"/>
<circle cx="11" cy="44.7281" r="1" fill="red"/>
<circle cx="11" cy="46.5731" r="1" fill="red"/>
<circle cx="11" cy="53.0099" r="1" fill="red"/>
<circle cx="12" cy="48.7753" r="1" fill="red"/>
<circle cx="12" cy="56.2033" r="1" fill="red"/>
<circle cx="13" cy="52.5365" r="1" fill="red"/>
<circle cx="13.9624" cy="45.1327" r="1" fill="red"/>
<circle cx="14" cy="53.0842" r="1" fill="red"/>
<circle cx="14.6709" cy="55.9066" r="1" fill="red"/>
<circle cx="15" cy="48.0779" r="1" fill="red"/>
<circle cx="15" cy="53.1664" r="1" fill="red"/>
<circle cx="15" cy="60.0612" r="1" fill="red"/>
<circle cx="15.1765" cy="74.425" r="1" fill="red"/>
<circle cx="15.9587" cy="24.0667" r="1" fill="red"/>
<circle cx="16" cy="49.5511" r="1" fill="red"/>
<circle cx="16" cy="51.1477" r="1" fill="red"/>
<circle cx="16" cy="51.7674" r="1" fill="red"/>
<circle cx="17" cy="57.8674" r="1" fill="red"/>
<circle cx="17.7402" cy="54.8202" r="1" fill="red"/>
<circle cx="18" cy="54.7123" r="1" fill="red"/>
<circle cx="18" cy="57.4815" r="1" fill="red"/>
<circle cx="18.4139" cy="9.09419" r="1" fill="red"/>
<circle cx="19" cy="46.4878" r="1" fill="red"/>
<circle cx="19.2318" cy="91.9676" r="1" fill="red"/>
<circle cx="20" cy="49.6909" r="1" fill="red"/>
<circle cx="20" cy="61.4369" r="1" fill="red"/>
<circle cx="20" cy="62.6521" r="1" fill="red"/>
<circle cx="20" cy="63.4818" r="1" fill="red"/>
<circle cx="21" cy="52.4739" r="1" fill="red"/>
<circle cx="21" cy="59.763" r="1" fill="red"/>
<circle cx="21.1664" cy="62.7821" r="1" fill="red"/>
<circle cx="21.2029" cy="26.8938" r="1" fill="red"/>
<circle cx="21.7894" cy="72.3553" r="1" fill="red"/>
<circle cx="22" cy="54.6691" r="1" fill="red"/>
<circle cx="22.3802" cy="47.8587" r="1" fill="red"/>
<circle cx="23" cy="51.931" r="1" fill="red"/>
<circle cx="23" cy="56.7165" r="1" fill="red"/>
<circle cx="24" cy="52.2568" r="1" fill="red"/>
<circle cx="24" cy="58.6832" r="1" fill="red"/>
<circle cx="24" cy="59.5913" r="1" fill="red"/>
<circle cx="24.0669" cy="7.00844" r="1" fill="red"/>
<circle cx="25" cy="54.7029" r="1" fill="red"/>
<circle cx="25.0891" cy="41.7413" r="1" fill="red"/>
<circle cx="25.1295" cy="40.9296" r="1" fill="red"/>
<circle cx="26" cy="51.4406" r="1" fill="red"/>
<circle cx="26" cy="54.8049" r="1" fill="red"/>
<circle cx="26" cy="58.2816" r="1" fill="red"/>
<circle cx="27" cy="58.0989" r="1" fill="red"/>
<circle cx="27" cy="60.574" r="1" fill="red"/>
<circle cx="27" cy="60.9887" r="1" fill="red"/>
<circle cx="27" cy="61.0002" r="1" fill="red"/>
<circle cx="28" cy="55.7645" r="1" fill="red"/>
<circle cx="28" cy="64.6922" r="1" fill="red"/>
<circle cx="28" cy="65.7262" r="1" fill="red"/>
<circle cx="29" cy="56.3981" r="1" fill="red"/>
<circle cx="29" cy="61.2422" r="1" fill="red"/>
<circle cx="30" cy="51.1403" r="1" fill="red"/>
<circle cx="30" cy="56.4751" r="1" fill="red"/>
<circle cx="30" cy="64.923" r="1" fill="red"/>
<circle cx="30.027" cy="56.8367" r="1" fill="red"/>
<circle cx="30.8096" cy="80.2145" r="1" fill="red"/>
<circle cx="31" cy="54.0347" r="1" fill="red"/>
<circle cx="31" cy="59.0969" r="1" fill="red"/>
<circle cx="31" cy="69.4919" r="1" fill="red"/>
<circle cx="31.7351" cy="37.6719" r="1" fill="red"/>
<circle cx="31.8924" cy="67.1629" r="1" fill="red"/>
<circle cx="32" cy="54.2949" r="1" fill="red"/>
<circle cx="32" cy="58.313" r="1" fill="red"/>
<circle cx="32" cy="59.1508" r="1" fill="red"/>
<circle cx="32" cy="61.0875" r="1" fill="red"/>
<circle cx="32" cy="65.7559" r="1" fill="red"/>
<circle cx="32.4306" cy="64.6987" r="1" fill="red"/>
<circle cx="32.9406" cy="90.9071" r="1" fill="red"/>
<circle cx="33" cy="65.521" r="1" fill="red"/>
<circle cx="33.9378" cy="28.231" r="1" fill="red"/>
<circle cx="34" cy="57.4207" r="1" fill="red"/>
<circle cx="35" cy="49.2547" r="1" fill="red"/>
<circle cx="35" cy="65.4333" r="1" fill="red"/>
<circle cx="35.3595" cy="56.8932" r="1" fill="red"/>
<circle cx="36" cy="64.9818" r="1" fill="red"/>
<circle cx="36" cy="67.2954" r="1" fill="red"/>
<circle cx="37" cy="50.0129" r="1" fill="red"/>
<circle cx="37" cy="52.8124" r="1" fill="red"/>
<circle cx="37" cy="63.0366" r="1" fill="red"/>
<circle cx="37.2752" cy="43.1401" r="1" fill="red"/>
<circle cx="38" cy="55.0337" r="1" fill="red"/>
<circle cx="38" cy="57.4109" r="1" fill="red"/>
<circle cx="38" cy="57.562" r="1" fill="red"/>
<circle cx="38" cy="60.372" r="1" fill="red"/>
<circle cx="38.0637" cy="85.0518" r="1" fill="red"/>
<circle cx="39" cy="54.2972" r="1" fill="red"/>
<circle cx="39.117" cy="3.13692" r="1" fill="red"/>
<circle cx="39.2208" cy="91.9898" r="1" fill="red"/>
<circle cx="40" cy="64.6529" r="1" fill="red"/>
<circle cx="40.08" cy="93.2532" r="1" fill="red"/>
<circle cx="41" cy="56.6452" r="1" fill="red"/>
<circle cx="41" cy="59.4064" r="1" fill="red"/>
<circle cx="41" cy="72.2856" r="1" fill="red"/>
<circle cx="41.8563" cy="6.51644" r="1" fill="red"/>
<circle cx="42" cy="58.4975" r="1" fill="red"/>
<circle cx="43" cy="57.5065" r="1" fill="red"/>
<circle cx="43" cy="62.635" r="1" fill="red"/>
<circle cx="43" cy="66.0113" r="1" fill="red"/>
<circle cx="43.8256" cy="89.1564" r="1" fill="red"/>
<circle cx="43.9611" cy="14.8411" r="1" fill="red"/>
<circle cx="44.8611" cy="84.1609" r="1" fill="red"/>
<circle cx="45.2211" cy="81.2781" r="1" fill="red"/>
<circle cx="46" cy="58.5312" r="1" fill="red"/>
<circle cx="46" cy="63.565" r="1" fill="red"/>
<circle cx="46" cy="65.7008" r="1" fill="red"/>
<circle cx="46.0299" cy="17.1912" r="1" fill="red"/>
<circle cx="46.9441" cy="15.6059" r="1" fill="red"/>
<circle cx="47" cy="65.7596" r="1" fill="red"/>
<circle cx="48.8659" cy="27.8433" r="1" fill="red"/>
<circle cx="50" cy="70.2035" r="1" fill="red"/>
<circle cx="51" cy="63.5961" r="1" fill="red"/>
<circle cx="51" cy="63.7364" r="1" fill="red"/>
<circle cx="52" cy="11.9586" r="1" fill="red"/>
<circle cx="52" cy="53.0231" r="1" fill="red"/>
<circle cx="52" cy="68.6578" r="1" fill="red"/>
<circle cx="52" cy="76.6869" r="1" fill="red"/>
<circle cx="52.9691" cy="71.2382" r="1" fill="red"/>
<circle cx="53" cy="62.0691" r="1" fill="red"/>
<circle cx="53" cy="64.0414" r="1" fill="red"/>
<circle cx="53" cy="72.708" r="1" fill="red"/>
<circle cx="53.986" cy="70.9263" r="1" fill="red"/>
<circle cx="54" cy="63.5754" r="1" fill="red"/>
<circle cx="56" cy="54.1586" r="1" fill="red"/>
<circle cx="56" cy="63.3901" r="1" fill="red"/>
<circle cx="56" cy="69.9328" r="1" fill="red"/>
<circle cx="56" cy="72.8526" r="1" fill="red"/>
<circle cx="57" cy="59.4423" r="1" fill="red"/>
<circle cx="57" cy="75.4164" r="1" fill="red"/>
<circle cx="57.9176" cy="70.2256" r="1" fill="red"/>
<circle cx="58" cy="68.9704" r="1" fill="red"/>
<circle cx="58" cy="72.1004" r="1" fill="red"/>
<circle cx="58.7621" cy="20.2718" r="1" fill="red"/>
<circle cx="59" cy="73.2661" r="1" fill="red"/>
<circle cx="60" cy="66.4052" r="1" fill="red"/>
<circle cx="60" cy="69.0783" r="1" fill="red"/>
<circle cx="60" cy="71.1085" r="1" fill="red"/>
<circle cx="60.147" cy="92.0044" r="1" fill="red"/>
<circle cx="60.9146" cy="17.2228" r="1" fill="red"/>
<circle cx="61" cy="66.3065" r="1" fill="red"/>
<circle cx="62" cy="71.738" r="1" fill="red"/>
<circle cx="62" cy="77.8868" r="1" fill="red"/>
<circle cx="62.6991" cy="58.0072" r="1" fill="red"/>
<circle cx="63" cy="81.9836" r="1" fill="red"/>
<circle cx="64" cy="64.6476" r="1" fill="red"/>
<circle cx="64" cy="68.0314" r="1" fill="red"/>
<circle cx="64" cy="71.6851" r="1" fill="red"/>
<circle cx="64" cy="76.6891" r="1" fill="red"/>
<circle cx="64.253" cy="14.9952" r="1" fill="red"/>
<circle cx="65" cy="65.602" r="1" fill="red"/>
<circle cx="65.8957" cy="52.8222" r="1" fill="red"/>
<circle cx="65.9638" cy="93.9253" r="1" fill="red"/>
<circle cx="66" cy="66.1835" r="1" fill="red"/>
<circle cx="66" cy="81.8264" r="1" fill="red"/>
<circle cx="67" cy="58.0939" r="1" fill="red"/>
<circle cx="67" cy="71.1703" r="1" fill="red"/>
<circle cx="68" cy="76.3733" r="1" fill="red"/>
<circle cx="69" cy="72.9152" r="1" fill="red"/>
<circle cx="69" cy="75.1741" r="1" fill="red"/>
<circle cx="69.0219" cy="45.8181" r="1" fill="red"/>
<circle cx="69.9002" cy="58.0878" r="1" fill="red"/>
<circle cx="69.9762" cy="11.1765" r="1" fill="red"/>
<circle cx="70" cy="69.6788" r="1" fill="red"/>
<circle cx="70" cy="71.7665" r="1" fill="red"/>
<circle cx="70" cy="82.0456" r="1" fill="red"/>
<circle cx="70.1806" cy="79.9741" r="1" fill="red"/>
<circle cx="72" cy="68.1435" r="1" fill="red"/>
<circle cx="72" cy="73.0646" r="1" fill="red"/>
<circle cx="72" cy="73.7984" r="1" fill="red"/>
<circle cx="72.08" cy="47.0878" r="1" fill="red"/>
<circle cx="73.3195" cy="28.9383" r="1" fill="red"/>
<circle cx="73.8997" cy="92.1321" r="1" fill="red"/>
<circle cx="74" cy="70.946" r="1" fill="red"/>
<circle cx="74" cy="72.3164" r="1" fill="red"/>
<circle cx="74" cy="74.2747" r="1" fill="red"/>
<circle cx="74" cy="74.6296" r="1" fill="red"/>
<circle cx="74.8951" cy="74.709" r="1" fill="red"/>
<circle cx="75" cy="65.5307" r="1" fill="red"/>
<circle cx="75" cy="67.6791" r="1" fill="red"/>
<circle cx="75" cy="69.7722" r="1" fill="red"/>
<circle cx="75" cy="82.2283" r="1" fill="red"/>
<circle cx="75.1048" cy="87.2004" r="1" fill="red"/>
<circle cx="75.1067" cy="17.2221" r="1" fill="red"/>
<circle cx="76" cy="80.3321" r="1" fill="red"/>
<circle cx="76" cy="83.1912" r="1" fill="red"/>
<circle cx="76.2024" cy="65.746" r="1" fill="red"/>
<circle cx="77" cy="74.0172" r="1" fill="red"/>
<circle cx="77" cy="74.4603" r="1" fill="red"/>
<circle cx="77" cy="80.2808" r="1" fill="red"/>
<circle cx="77.1084" cy="71.8123" r="1" fill="red"/>
<circle cx="77.9727" cy="78.9538" r="1" fill="red"/>
<circle cx="79" cy="69.7999" r="1" fill="red"/>
<circle cx="79" cy="86.3052" r="1" fill="red"/>
<circle cx="80" cy="80.2109" r="1" fill="red"/>
<circle cx="80" cy="80.6963" r="1" fill="red"/>
<circle cx="80.7805" cy="32.9529" r="1" fill="red"/>
<circle cx="81" cy="76.5835" r="1" fill="red"/>
<circle cx="81" cy="79.7074" r="1" fill="red"/>
<circle cx="81.2523" cy="45.0819" r="1" fill="red"/>
<circle cx="81.8824" cy="90.8203" r="1" fill="red"/>
<circle cx="82" cy="65.7469" r="1" fill="red"/>
<circle cx="82" cy="66.277" r="1" fill="red"/>
<circle cx="82" cy="82.3671" r="1" fill="red"/>
<circle cx="82.6647" cy="50.012" r="1" fill="red"/>
<circle cx="83" cy="62.4918" r="1" fill="red"/>
<circle cx="83" cy="68.1449" r="1" fill="red"/>
<circle cx="83" cy="68.701" r="1" fill="red"/>
<circle cx="83.0341" cy="71.9932" r="1" fill="red"/>
<circle cx="84" cy="68.0088" r="1" fill="red"/>
<circle cx="85" cy="67.7583" r="1" fill="red"/>
<circle cx="85" cy="79.8356" r="1" fill="red"/>
<circle cx="85.0997" cy="56.8376" r="1" fill="red"/>
<circle cx="85.4826" cy="50.1878" r="1" fill="red"/>
<circle cx="86" cy="77.1562" r="1" fill="red"/>
<circle cx="86.1577" cy="53.0591" r="1" fill="red"/>
<circle cx="87.2986" cy="80.9467" r="1" fill="red"/>
<circle cx="88" cy="68.0113" r="1" fill="red"/>
<circle cx="88.1432" cy="79.7471" r="1" fill="red"/>
<circle cx="88.83" cy="8.00007" r="1" fill="red"/>
<circle cx="89" cy="80.3856" r="1" fill="red"/>
<circle cx="89.8609" cy="98.7957" r="1" fill="red"/>
<circle cx="89.8858" cy="14.3983" r="1" fill="red"/>
<circle cx="90" cy="62.5672" r="1" fill="red"/>
<circle cx="90" cy="70.8498" r="1" fill="red"/>
<circle cx="90" cy="73.4117" r="1" fill="red"/>
<circle cx="90" cy="77.1309" r="1" fill="red"/>
<circle cx="90" cy="77.2367" r="1" fill="red"/>
<circle cx="90" cy="80.498" r="1" fill="red"/>
<circle cx="91" cy="73.8791" r="1" fill="red"/>
<circle cx="91" cy="80.5802" r="1" fill="red"/>
<circle cx="91.0244" cy="88.8013" r="1" fill="red"/>
<circle cx="92" cy="76.7165" r="1" fill="red"/>
<circle cx="92" cy="76.7548" r="1" fill="red"/>
<circle cx="92.0488" cy="41.1121" r="1" fill="red"/>
<circle cx="93.276" cy="55.1056" r="1" fill="red"/>
<circle cx="94" cy="78.2585" r="1" fill="red"/>
<circle cx="95" cy="63.3638" r="1" fill="red"/>
<circle cx="95" cy="83.8346" r="1" fill="red"/>
<circle cx="96" cy="74.4644" r="1" fill="red"/>
<circle cx="96" cy="78.8384" r="1" fill="red"/>
<circle cx="96.8214" cy="36.9885" r="1" fill="red"/>
<circle cx="97" cy="73.9358" r="1" fill="red"/>
<circle cx="97" cy="77.403" r="1" fill="red"/>
<circle cx="98" cy="72.4473" r="1" fill="red"/>
<circle cx="98" cy="75.7734" r="1" fill="red"/>
<circle cx="99" cy="76.3002" r="1" fill="red"/>
<circle cx="99" cy="84.3794" r="1" fill="red"/>
</svg>